<svg width="384" height="384" viewBox="0 0 384 384" fill="none" xmlns="http://www.w3.org/2000/svg">
<rect x="2.5" y="2.5" width="379" height="379" rx="114.5" fill="white" stroke="black" stroke-width="5"/>
<circle cx="192.188" cy="192.188" r="153.562" fill="white"/>
<mask id="path-3-inside-1_22_337" fill="white">
<path fill-rule="evenodd" clip-rule="evenodd" d="M193.677 83.8022L148.554 57.75L103.43 83.8022V135.907L148.554 161.959L193.677 135.907V83.8022ZM185.347 88.6118L148.554 67.3693L111.76 88.6118V131.097L148.554 152.339L185.347 131.097V88.6118Z"/>
</mask>
<path fill-rule="evenodd" clip-rule="evenodd" d="M193.677 83.8022L148.554 57.75L103.43 83.8022V135.907L148.554 161.959L193.677 135.907V83.8022ZM185.347 88.6118L148.554 67.3693L111.76 88.6118V131.097L148.554 152.339L185.347 131.097V88.6118Z" fill="#0F0F0F"/>
<path d="M148.554 57.75L149.054 56.884L148.554 56.5953L148.054 56.884L148.554 57.75ZM193.677 83.8022H194.677V83.2248L194.177 82.9361L193.677 83.8022ZM103.43 83.8022L102.93 82.9361L102.43 83.2248V83.8022H103.43ZM103.43 135.907H102.43V136.484L102.93 136.773L103.43 135.907ZM148.554 161.959L148.054 162.825L148.554 163.113L149.054 162.825L148.554 161.959ZM193.677 135.907L194.177 136.773L194.677 136.484V135.907H193.677ZM148.554 67.3693L149.054 66.5032L148.554 66.2146L148.054 66.5032L148.554 67.3693ZM185.347 88.6118H186.347V88.0345L185.847 87.7458L185.347 88.6118ZM111.76 88.6118L111.26 87.7458L110.76 88.0345V88.6118H111.76ZM111.76 131.097H110.76V131.674L111.26 131.963L111.76 131.097ZM148.554 152.339L148.054 153.205L148.554 153.494L149.054 153.205L148.554 152.339ZM185.347 131.097L185.847 131.963L186.347 131.674V131.097H185.347ZM148.054 58.616L193.177 84.6682L194.177 82.9361L149.054 56.884L148.054 58.616ZM103.93 84.6682L149.054 58.616L148.054 56.884L102.93 82.9361L103.93 84.6682ZM104.43 135.907V83.8022H102.43V135.907H104.43ZM149.054 161.093L103.93 135.04L102.93 136.773L148.054 162.825L149.054 161.093ZM193.177 135.04L148.054 161.093L149.054 162.825L194.177 136.773L193.177 135.04ZM192.677 83.8022V135.907H194.677V83.8022H192.677ZM148.054 68.2353L184.847 89.4778L185.847 87.7458L149.054 66.5032L148.054 68.2353ZM112.26 89.4778L149.054 68.2353L148.054 66.5032L111.26 87.7458L112.26 89.4778ZM112.76 131.097V88.6118H110.76V131.097H112.76ZM149.054 151.473L112.26 130.231L111.26 131.963L148.054 153.205L149.054 151.473ZM184.847 130.231L148.054 151.473L149.054 153.205L185.847 131.963L184.847 130.231ZM184.347 88.6118V131.097H186.347V88.6118H184.347Z" fill="black" mask="url(#path-3-inside-1_22_337)"/>
<mask id="path-5-inside-2_22_337" fill="white">
<path fill-rule="evenodd" clip-rule="evenodd" d="M284.472 83.8022L239.349 57.75L194.225 83.8022V135.907L239.349 161.959L284.472 135.907V83.8022ZM276.142 88.6118L239.349 67.3693L202.555 88.6118V131.097L239.349 152.339L276.142 131.097V88.6118Z"/>
</mask>
<path fill-rule="evenodd" clip-rule="evenodd" d="M284.472 83.8022L239.349 57.75L194.225 83.8022V135.907L239.349 161.959L284.472 135.907V83.8022ZM276.142 88.6118L239.349 67.3693L202.555 88.6118V131.097L239.349 152.339L276.142 131.097V88.6118Z" fill="#0C0C0C"/>
<path d="M239.349 57.75L239.849 56.884L239.349 56.5953L238.849 56.884L239.349 57.75ZM284.472 83.8022H285.472V83.2248L284.972 82.9361L284.472 83.8022ZM194.225 83.8022L193.725 82.9361L193.225 83.2248V83.8022H194.225ZM194.225 135.907H193.225V136.484L193.725 136.773L194.225 135.907ZM239.349 161.959L238.849 162.825L239.349 163.113L239.849 162.825L239.349 161.959ZM284.472 135.907L284.972 136.773L285.472 136.484V135.907H284.472ZM239.349 67.3693L239.849 66.5032L239.349 66.2146L238.849 66.5032L239.349 67.3693ZM276.142 88.6118H277.142V88.0345L276.642 87.7458L276.142 88.6118ZM202.555 88.6118L202.055 87.7458L201.555 88.0345V88.6118H202.555ZM202.555 131.097H201.555V131.674L202.055 131.963L202.555 131.097ZM239.349 152.339L238.849 153.205L239.349 153.494L239.849 153.205L239.349 152.339ZM276.142 131.097L276.642 131.963L277.142 131.674V131.097H276.142ZM238.849 58.616L283.972 84.6682L284.972 82.9361L239.849 56.884L238.849 58.616ZM194.725 84.6682L239.849 58.616L238.849 56.884L193.725 82.9361L194.725 84.6682ZM195.225 135.907V83.8022H193.225V135.907H195.225ZM239.849 161.093L194.725 135.04L193.725 136.773L238.849 162.825L239.849 161.093ZM283.972 135.04L238.849 161.093L239.849 162.825L284.972 136.773L283.972 135.04ZM283.472 83.8022V135.907H285.472V83.8022H283.472ZM238.849 68.2353L275.642 89.4778L276.642 87.7458L239.849 66.5032L238.849 68.2353ZM203.055 89.4778L239.849 68.2353L238.849 66.5032L202.055 87.7458L203.055 89.4778ZM203.555 131.097V88.6118H201.555V131.097H203.555ZM239.849 151.473L203.055 130.231L202.055 131.963L238.849 153.205L239.849 151.473ZM275.642 130.231L238.849 151.473L239.849 153.205L276.642 131.963L275.642 130.231ZM275.142 88.6118V131.097H277.142V88.6118H275.142Z" fill="black" mask="url(#path-5-inside-2_22_337)"/>
<mask id="path-7-inside-3_22_337" fill="white">
<path fill-rule="evenodd" clip-rule="evenodd" d="M194.692 244.657L149.569 218.605L104.445 244.657V296.761L149.569 322.814L194.692 296.761V244.657ZM186.362 249.466L149.569 228.224L112.775 249.466V291.951L149.569 313.194L186.362 291.951V249.466Z"/>
</mask>
<path fill-rule="evenodd" clip-rule="evenodd" d="M194.692 244.657L149.569 218.605L104.445 244.657V296.761L149.569 322.814L194.692 296.761V244.657ZM186.362 249.466L149.569 228.224L112.775 249.466V291.951L149.569 313.194L186.362 291.951V249.466Z" fill="#B49E2F"/>
<path d="M149.569 218.605L150.069 217.739L149.569 217.45L149.069 217.739L149.569 218.605ZM194.692 244.657H195.692V244.08L195.192 243.791L194.692 244.657ZM104.445 244.657L103.945 243.791L103.445 244.08V244.657H104.445ZM104.445 296.761H103.445V297.339L103.945 297.628L104.445 296.761ZM149.569 322.814L149.069 323.68L149.569 323.968L150.069 323.68L149.569 322.814ZM194.692 296.761L195.192 297.628L195.692 297.339V296.761H194.692ZM149.569 228.224L150.069 227.358L149.569 227.069L149.069 227.358L149.569 228.224ZM186.362 249.466H187.362V248.889L186.862 248.6L186.362 249.466ZM112.775 249.466L112.275 248.6L111.775 248.889V249.466H112.775ZM112.775 291.951H111.775V292.529L112.275 292.818L112.775 291.951ZM149.569 313.194L149.069 314.06L149.569 314.349L150.069 314.06L149.569 313.194ZM186.362 291.951L186.862 292.818L187.362 292.529V291.951H186.362ZM149.069 219.471L194.192 245.523L195.192 243.791L150.069 217.739L149.069 219.471ZM104.945 245.523L150.069 219.471L149.069 217.739L103.945 243.791L104.945 245.523ZM105.445 296.761V244.657H103.445V296.761H105.445ZM150.069 321.948L104.945 295.895L103.945 297.628L149.069 323.68L150.069 321.948ZM194.192 295.895L149.069 321.948L150.069 323.68L195.192 297.628L194.192 295.895ZM193.692 244.657V296.761H195.692V244.657H193.692ZM149.069 229.09L185.862 250.332L186.862 248.6L150.069 227.358L149.069 229.09ZM113.275 250.332L150.069 229.09L149.069 227.358L112.275 248.6L113.275 250.332ZM113.775 291.951V249.466H111.775V291.951H113.775ZM150.069 312.328L113.275 291.085L112.275 292.818L149.069 314.06L150.069 312.328ZM185.862 291.085L149.069 312.328L150.069 314.06L186.862 292.818L185.862 291.085ZM185.362 249.466V291.951H187.362V249.466H185.362Z" fill="black" mask="url(#path-7-inside-3_22_337)"/>
<mask id="path-9-inside-4_22_337" fill="white">
<path fill-rule="evenodd" clip-rule="evenodd" d="M239.369 163.963L194.245 137.911L149.121 163.963V216.067L194.245 242.119L239.369 216.067V163.963ZM231.038 168.772L194.245 147.53L157.452 168.772V211.257L194.245 232.5L231.038 211.257V168.772Z"/>
</mask>
<path fill-rule="evenodd" clip-rule="evenodd" d="M239.369 163.963L194.245 137.911L149.121 163.963V216.067L194.245 242.119L239.369 216.067V163.963ZM231.038 168.772L194.245 147.53L157.452 168.772V211.257L194.245 232.5L231.038 211.257V168.772Z" fill="#130B0B"/>
<path d="M194.245 137.911L194.745 137.045L194.245 136.756L193.745 137.045L194.245 137.911ZM239.369 163.963H240.369V163.385L239.869 163.097L239.369 163.963ZM149.121 163.963L148.621 163.097L148.121 163.385V163.963H149.121ZM149.121 216.067H148.121V216.645L148.621 216.933L149.121 216.067ZM194.245 242.119L193.745 242.985L194.245 243.274L194.745 242.985L194.245 242.119ZM239.369 216.067L239.869 216.933L240.369 216.645V216.067H239.369ZM194.245 147.53L194.745 146.664L194.245 146.375L193.745 146.664L194.245 147.53ZM231.038 168.772H232.038V168.195L231.538 167.906L231.038 168.772ZM157.452 168.772L156.952 167.906L156.452 168.195V168.772H157.452ZM157.452 211.257H156.452V211.835L156.952 212.123L157.452 211.257ZM194.245 232.5L193.745 233.366L194.245 233.654L194.745 233.366L194.245 232.5ZM231.038 211.257L231.538 212.123L232.038 211.835V211.257H231.038ZM193.745 138.777L238.869 164.829L239.869 163.097L194.745 137.045L193.745 138.777ZM149.621 164.829L194.745 138.777L193.745 137.045L148.621 163.097L149.621 164.829ZM150.121 216.067V163.963H148.121V216.067H150.121ZM194.745 241.253L149.621 215.201L148.621 216.933L193.745 242.985L194.745 241.253ZM238.869 215.201L193.745 241.253L194.745 242.985L239.869 216.933L238.869 215.201ZM238.369 163.963V216.067H240.369V163.963H238.369ZM193.745 148.396L230.538 169.638L231.538 167.906L194.745 146.664L193.745 148.396ZM157.952 169.638L194.745 148.396L193.745 146.664L156.952 167.906L157.952 169.638ZM158.452 211.257V168.772H156.452V211.257H158.452ZM194.745 231.634L157.952 210.391L156.952 212.123L193.745 233.366L194.745 231.634ZM230.538 210.391L193.745 231.634L194.745 233.366L231.538 212.123L230.538 210.391ZM230.038 168.772V211.257H232.038V168.772H230.038Z" fill="black" mask="url(#path-9-inside-4_22_337)"/>
<mask id="path-11-inside-5_22_337" fill="white">
<path fill-rule="evenodd" clip-rule="evenodd" d="M331.5 163.428L286.376 137.375L241.253 163.428V215.532L286.376 241.584L331.5 215.532V163.428ZM323.17 168.237L286.376 146.994L249.583 168.237V210.722L286.376 231.965L323.17 210.722V168.237Z"/>
</mask>
<path fill-rule="evenodd" clip-rule="evenodd" d="M331.5 163.428L286.376 137.375L241.253 163.428V215.532L286.376 241.584L331.5 215.532V163.428ZM323.17 168.237L286.376 146.994L249.583 168.237V210.722L286.376 231.965L323.17 210.722V168.237Z" fill="#0C0C0C"/>
<path d="M286.376 137.375L286.876 136.509L286.376 136.221L285.876 136.509L286.376 137.375ZM331.5 163.428H332.5V162.85L332 162.562L331.5 163.428ZM241.253 163.428L240.753 162.562L240.253 162.85V163.428H241.253ZM241.253 215.532H240.253V216.109L240.753 216.398L241.253 215.532ZM286.376 241.584L285.876 242.45L286.376 242.739L286.876 242.45L286.376 241.584ZM331.5 215.532L332 216.398L332.5 216.109V215.532H331.5ZM286.376 146.994L286.876 146.128L286.376 145.84L285.876 146.128L286.376 146.994ZM323.17 168.237H324.17V167.66L323.67 167.371L323.17 168.237ZM249.583 168.237L249.083 167.371L248.583 167.66V168.237H249.583ZM249.583 210.722H248.583V211.299L249.083 211.588L249.583 210.722ZM286.376 231.965L285.876 232.831L286.376 233.119L286.876 232.831L286.376 231.965ZM323.17 210.722L323.67 211.588L324.17 211.299V210.722H323.17ZM285.876 138.242L331 164.294L332 162.562L286.876 136.509L285.876 138.242ZM241.753 164.294L286.876 138.242L285.876 136.509L240.753 162.562L241.753 164.294ZM242.253 215.532V163.428H240.253V215.532H242.253ZM286.876 240.718L241.753 214.666L240.753 216.398L285.876 242.45L286.876 240.718ZM331 214.666L285.876 240.718L286.876 242.45L332 216.398L331 214.666ZM330.5 163.428V215.532H332.5V163.428H330.5ZM285.876 147.86L322.67 169.103L323.67 167.371L286.876 146.128L285.876 147.86ZM250.083 169.103L286.876 147.86L285.876 146.128L249.083 167.371L250.083 169.103ZM250.583 210.722V168.237H248.583V210.722H250.583ZM286.876 231.099L250.083 209.856L249.083 211.588L285.876 232.831L286.876 231.099ZM322.67 209.856L285.876 231.099L286.876 232.831L323.67 211.588L322.67 209.856ZM322.17 168.237V210.722H324.17V168.237H322.17Z" fill="black" mask="url(#path-11-inside-5_22_337)"/>
<mask id="path-13-inside-6_22_337" fill="white">
<path fill-rule="evenodd" clip-rule="evenodd" d="M147.238 164.497L102.114 138.445L56.9901 164.497V216.601L102.114 242.654L147.238 216.601V164.497ZM138.907 169.307L102.114 148.064L65.3205 169.307V211.792L102.114 233.035L138.907 211.792V169.307Z"/>
</mask>
<path fill-rule="evenodd" clip-rule="evenodd" d="M147.238 164.497L102.114 138.445L56.9901 164.497V216.601L102.114 242.654L147.238 216.601V164.497ZM138.907 169.307L102.114 148.064L65.3205 169.307V211.792L102.114 233.035L138.907 211.792V169.307Z" fill="#0C0C0C"/>
<path d="M102.114 138.445L102.614 137.579L102.114 137.29L101.614 137.579L102.114 138.445ZM147.238 164.497H148.238V163.92L147.738 163.631L147.238 164.497ZM56.9901 164.497L56.4901 163.631L55.9901 163.92V164.497H56.9901ZM56.9901 216.601H55.9901V217.179L56.4901 217.467L56.9901 216.601ZM102.114 242.654L101.614 243.52L102.114 243.808L102.614 243.52L102.114 242.654ZM147.238 216.601L147.738 217.467L148.238 217.179V216.601H147.238ZM102.114 148.064L102.614 147.198L102.114 146.91L101.614 147.198L102.114 148.064ZM138.907 169.307H139.907V168.73L139.407 168.441L138.907 169.307ZM65.3205 169.307L64.8205 168.441L64.3205 168.73V169.307H65.3205ZM65.3205 211.792H64.3205V212.369L64.8205 212.658L65.3205 211.792ZM102.114 233.035L101.614 233.901L102.114 234.189L102.614 233.901L102.114 233.035ZM138.907 211.792L139.407 212.658L139.907 212.369V211.792H138.907ZM101.614 139.311L146.738 165.363L147.738 163.631L102.614 137.579L101.614 139.311ZM57.4901 165.363L102.614 139.311L101.614 137.579L56.4901 163.631L57.4901 165.363ZM57.9901 216.601V164.497H55.9901V216.601H57.9901ZM102.614 241.787L57.4901 215.735L56.4901 217.467L101.614 243.52L102.614 241.787ZM146.738 215.735L101.614 241.787L102.614 243.52L147.738 217.467L146.738 215.735ZM146.238 164.497V216.601H148.238V164.497H146.238ZM101.614 148.93L138.407 170.173L139.407 168.441L102.614 147.198L101.614 148.93ZM65.8205 170.173L102.614 148.93L101.614 147.198L64.8205 168.441L65.8205 170.173ZM66.3205 211.792V169.307H64.3205V211.792H66.3205ZM102.614 232.169L65.8205 210.926L64.8205 212.658L101.614 233.901L102.614 232.169ZM138.407 210.926L101.614 232.169L102.614 233.901L139.407 212.658L138.407 210.926ZM137.907 169.307V211.792H139.907V169.307H137.907Z" fill="black" mask="url(#path-13-inside-6_22_337)"/>
<mask id="path-15-inside-7_22_337" fill="white">
<path fill-rule="evenodd" clip-rule="evenodd" d="M285.488 244.657L240.364 218.605L195.24 244.657V296.761L240.364 322.814L285.488 296.761V244.657ZM277.157 249.466L240.364 228.224L203.571 249.466V291.951L240.364 313.194L277.157 291.951V249.466Z"/>
</mask>
<path fill-rule="evenodd" clip-rule="evenodd" d="M285.488 244.657L240.364 218.605L195.24 244.657V296.761L240.364 322.814L285.488 296.761V244.657ZM277.157 249.466L240.364 228.224L203.571 249.466V291.951L240.364 313.194L277.157 291.951V249.466Z" fill="#1A1918"/>
<path d="M240.364 218.605L240.864 217.739L240.364 217.45L239.864 217.739L240.364 218.605ZM285.488 244.657H286.488V244.08L285.988 243.791L285.488 244.657ZM195.24 244.657L194.74 243.791L194.24 244.08V244.657H195.24ZM195.24 296.761H194.24V297.339L194.74 297.628L195.24 296.761ZM240.364 322.814L239.864 323.68L240.364 323.968L240.864 323.68L240.364 322.814ZM285.488 296.761L285.988 297.628L286.488 297.339V296.761H285.488ZM240.364 228.224L240.864 227.358L240.364 227.069L239.864 227.358L240.364 228.224ZM277.157 249.466H278.157V248.889L277.657 248.6L277.157 249.466ZM203.571 249.466L203.071 248.6L202.571 248.889V249.466H203.571ZM203.571 291.951H202.571V292.529L203.071 292.818L203.571 291.951ZM240.364 313.194L239.864 314.06L240.364 314.349L240.864 314.06L240.364 313.194ZM277.157 291.951L277.657 292.818L278.157 292.529V291.951H277.157ZM239.864 219.471L284.988 245.523L285.988 243.791L240.864 217.739L239.864 219.471ZM195.74 245.523L240.864 219.471L239.864 217.739L194.74 243.791L195.74 245.523ZM196.24 296.761V244.657H194.24V296.761H196.24ZM240.864 321.948L195.74 295.895L194.74 297.628L239.864 323.68L240.864 321.948ZM284.988 295.895L239.864 321.948L240.864 323.68L285.988 297.628L284.988 295.895ZM284.488 244.657V296.761H286.488V244.657H284.488ZM239.864 229.09L276.657 250.332L277.657 248.6L240.864 227.358L239.864 229.09ZM204.071 250.332L240.864 229.09L239.864 227.358L203.071 248.6L204.071 250.332ZM204.571 291.951V249.466H202.571V291.951H204.571ZM240.864 312.328L204.071 291.085L203.071 292.818L239.864 314.06L240.864 312.328ZM276.657 291.085L239.864 312.328L240.864 314.06L277.657 292.818L276.657 291.085ZM276.157 249.466V291.951H278.157V249.466H276.157Z" fill="black" mask="url(#path-15-inside-7_22_337)"/>
<path d="M141.286 247.444H145.572V251.73H141.286V247.444ZM137.001 247.444H141.286V251.73H137.001V247.444ZM137.001 251.73H141.286V256.016H137.001V251.73ZM141.286 251.73H145.572V256.016H141.286V251.73ZM145.572 251.73H149.858V256.016H145.572V251.73ZM145.572 247.444H149.858V251.73H145.572V247.444ZM149.858 247.444H154.144V251.73H149.858V247.444ZM154.144 247.444H158.429V251.73H154.144V247.444ZM154.144 251.73H158.429V256.016H154.144V251.73ZM149.858 251.73H154.144V256.016H149.858V251.73ZM149.858 256.016H154.144V260.301H149.858V256.016ZM154.144 256.016H158.429V260.301H154.144V256.016ZM158.429 251.73H162.715V256.016H158.429V251.73ZM158.429 256.016H162.715V260.301H158.429V256.016ZM158.429 260.301H162.715V264.587H158.429V260.301ZM158.429 264.587H162.715V268.873H158.429V264.587ZM158.429 268.873H162.715V273.158H158.429V268.873ZM158.429 273.158H162.715V277.444H158.429V273.158ZM158.429 277.444H162.715V281.73H158.429V277.444ZM158.429 281.73H162.715V286.016H158.429V281.73ZM154.144 281.73H158.429V286.016H154.144V281.73ZM154.144 277.444H158.429V281.73H154.144V277.444ZM154.144 273.158H158.429V277.444H154.144V273.158ZM154.144 268.873H158.429V273.158H154.144V268.873ZM154.144 264.587H158.429V268.873H154.144V264.587ZM154.144 260.301H158.429V264.587H154.144V260.301ZM149.858 277.444H154.144V281.73H149.858V277.444ZM149.858 281.73H154.144V286.016H149.858V281.73ZM149.858 286.016H154.144V290.301H149.858V286.016ZM145.572 286.016H149.858V290.301H145.572V286.016ZM145.572 281.73H149.858V286.016H145.572V281.73ZM141.286 286.016H145.572V290.301H141.286V286.016ZM137.001 286.016H141.286V290.301H137.001V286.016ZM137.001 281.73H141.286V286.016H137.001V281.73ZM141.286 281.73H145.572V286.016H141.286V281.73ZM141.286 277.444H145.572V281.73H141.286V277.444ZM137.001 277.444H141.286V281.73H137.001V277.444ZM132.715 281.73H137.001V286.016H132.715V281.73ZM132.715 277.444H137.001V281.73H132.715V277.444ZM132.715 273.158H137.001V277.444H132.715V273.158ZM132.715 268.873H137.001V273.158H132.715V268.873ZM132.715 264.587H137.001V268.873H132.715V264.587ZM132.715 260.301H137.001V264.587H132.715V260.301ZM132.715 256.016H137.001V260.301H132.715V256.016ZM137.001 256.016H141.286V260.301H137.001V256.016ZM132.715 251.73H137.001V256.016H132.715V251.73ZM141.286 256.016H145.572V260.301H141.286V256.016ZM137.001 260.301H141.286V264.587H137.001V260.301ZM137.001 264.587H141.286V268.873H137.001V264.587ZM137.001 268.873H141.286V273.158H137.001V268.873ZM137.001 273.158H141.286V277.444H137.001V273.158ZM145.572 290.301H149.858V294.587H145.572V290.301ZM149.858 290.301H154.144V294.587H149.858V290.301ZM154.144 290.301H158.429V294.587H154.144V290.301ZM149.858 294.587H154.144V298.873H149.858V294.587ZM154.144 294.587H158.429V298.873H154.144V294.587ZM158.429 294.587H162.715V298.873H158.429V294.587ZM158.429 290.301H162.715V294.587H158.429V290.301Z" fill="#CCB928"/>
<g opacity="0.2">
<mask id="path-18-inside-8_22_337" fill="white">
<path fill-rule="evenodd" clip-rule="evenodd" d="M189.562 87.0087L144.438 60.9565L99.3146 87.0087V139.113L144.438 165.165L189.562 139.113V87.0087ZM181.232 91.8183L144.438 70.5758L107.645 91.8183V134.303L144.438 155.546L181.232 134.303V91.8183Z"/>
</mask>
<path fill-rule="evenodd" clip-rule="evenodd" d="M189.562 87.0087L144.438 60.9565L99.3146 87.0087V139.113L144.438 165.165L189.562 139.113V87.0087ZM181.232 91.8183L144.438 70.5758L107.645 91.8183V134.303L144.438 155.546L181.232 134.303V91.8183Z" fill="#0F0F0F"/>
<path d="M144.438 60.9565L144.938 60.0905L144.438 59.8018L143.938 60.0905L144.438 60.9565ZM189.562 87.0087H190.562V86.4314L190.062 86.1427L189.562 87.0087ZM99.3146 87.0087L98.8146 86.1427L98.3146 86.4314V87.0087H99.3146ZM99.3146 139.113H98.3146V139.69L98.8146 139.979L99.3146 139.113ZM144.438 165.165L143.938 166.031L144.438 166.32L144.938 166.031L144.438 165.165ZM189.562 139.113L190.062 139.979L190.562 139.69V139.113H189.562ZM144.438 70.5758L144.938 69.7098L144.438 69.4211L143.938 69.7098L144.438 70.5758ZM181.232 91.8183H182.232V91.241L181.732 90.9523L181.232 91.8183ZM107.645 91.8183L107.145 90.9523L106.645 91.241V91.8183H107.645ZM107.645 134.303H106.645V134.881L107.145 135.169L107.645 134.303ZM144.438 155.546L143.938 156.412L144.438 156.701L144.938 156.412L144.438 155.546ZM181.232 134.303L181.732 135.169L182.232 134.881V134.303H181.232ZM143.938 61.8226L189.062 87.8747L190.062 86.1427L144.938 60.0905L143.938 61.8226ZM99.8146 87.8747L144.938 61.8226L143.938 60.0905L98.8146 86.1427L99.8146 87.8747ZM100.315 139.113V87.0087H98.3146V139.113H100.315ZM144.938 164.299L99.8146 138.247L98.8146 139.979L143.938 166.031L144.938 164.299ZM189.062 138.247L143.938 164.299L144.938 166.031L190.062 139.979L189.062 138.247ZM188.562 87.0087V139.113H190.562V87.0087H188.562ZM143.938 71.4418L180.732 92.6844L181.732 90.9523L144.938 69.7098L143.938 71.4418ZM108.145 92.6844L144.938 71.4418L143.938 69.7098L107.145 90.9523L108.145 92.6844ZM108.645 134.303V91.8183H106.645V134.303H108.645ZM144.938 154.68L108.145 133.437L107.145 135.169L143.938 156.412L144.938 154.68ZM180.732 133.437L143.938 154.68L144.938 156.412L181.732 135.169L180.732 133.437ZM180.232 91.8183V134.303H182.232V91.8183H180.232Z" fill="#C8C3C3" mask="url(#path-18-inside-8_22_337)"/>
<mask id="path-20-inside-9_22_337" fill="white">
<path fill-rule="evenodd" clip-rule="evenodd" d="M280.357 87.0082L235.234 60.9561L190.11 87.0082V139.113L235.234 165.165L280.357 139.113V87.0082ZM272.027 91.8182L235.234 70.5757L198.441 91.8182V134.303L235.234 155.546L272.027 134.303V91.8182Z"/>
</mask>
<path fill-rule="evenodd" clip-rule="evenodd" d="M280.357 87.0082L235.234 60.9561L190.11 87.0082V139.113L235.234 165.165L280.357 139.113V87.0082ZM272.027 91.8182L235.234 70.5757L198.441 91.8182V134.303L235.234 155.546L272.027 134.303V91.8182Z" fill="#0C0C0C"/>
<path d="M235.234 60.9561L235.734 60.09L235.234 59.8014L234.734 60.09L235.234 60.9561ZM280.357 87.0082H281.357V86.4309L280.857 86.1422L280.357 87.0082ZM190.11 87.0082L189.61 86.1422L189.11 86.4309V87.0082H190.11ZM190.11 139.113H189.11V139.69L189.61 139.979L190.11 139.113ZM235.234 165.165L234.734 166.031L235.234 166.319L235.734 166.031L235.234 165.165ZM280.357 139.113L280.857 139.979L281.357 139.69V139.113H280.357ZM235.234 70.5757L235.734 69.7097L235.234 69.421L234.734 69.7097L235.234 70.5757ZM272.027 91.8182H273.027V91.2409L272.527 90.9522L272.027 91.8182ZM198.441 91.8182L197.941 90.9522L197.441 91.2409V91.8182H198.441ZM198.441 134.303H197.441V134.881L197.941 135.169L198.441 134.303ZM235.234 155.546L234.734 156.412L235.234 156.701L235.734 156.412L235.234 155.546ZM272.027 134.303L272.527 135.169L273.027 134.881V134.303H272.027ZM234.734 61.8221L279.857 87.8743L280.857 86.1422L235.734 60.09L234.734 61.8221ZM190.61 87.8743L235.734 61.8221L234.734 60.09L189.61 86.1422L190.61 87.8743ZM191.11 139.113V87.0082H189.11V139.113H191.11ZM235.734 164.299L190.61 138.247L189.61 139.979L234.734 166.031L235.734 164.299ZM279.857 138.247L234.734 164.299L235.734 166.031L280.857 139.979L279.857 138.247ZM279.357 87.0082V139.113H281.357V87.0082H279.357ZM234.734 71.4417L271.527 92.6842L272.527 90.9522L235.734 69.7097L234.734 71.4417ZM198.941 92.6842L235.734 71.4417L234.734 69.7097L197.941 90.9522L198.941 92.6842ZM199.441 134.303V91.8182H197.441V134.303H199.441ZM235.734 154.68L198.941 133.437L197.941 135.169L234.734 156.412L235.734 154.68ZM271.527 133.437L234.734 154.68L235.734 156.412L272.527 135.169L271.527 133.437ZM271.027 91.8182V134.303H273.027V91.8182H271.027Z" fill="#C8C3C3" mask="url(#path-20-inside-9_22_337)"/>
<mask id="path-22-inside-10_22_337" fill="white">
<path fill-rule="evenodd" clip-rule="evenodd" d="M190.577 247.864L145.454 221.812L100.33 247.864V299.969L145.454 326.021L190.577 299.969V247.864ZM182.247 252.674L145.454 231.431L108.661 252.674V295.159L145.454 316.401L182.247 295.159V252.674Z"/>
</mask>
<path fill-rule="evenodd" clip-rule="evenodd" d="M190.577 247.864L145.454 221.812L100.33 247.864V299.969L145.454 326.021L190.577 299.969V247.864ZM182.247 252.674L145.454 231.431L108.661 252.674V295.159L145.454 316.401L182.247 295.159V252.674Z" fill="#B49E2F"/>
<path d="M145.454 221.812L145.954 220.946L145.454 220.657L144.954 220.946L145.454 221.812ZM190.577 247.864H191.577V247.287L191.077 246.998L190.577 247.864ZM100.33 247.864L99.83 246.998L99.33 247.287V247.864H100.33ZM100.33 299.969H99.33V300.546L99.83 300.835L100.33 299.969ZM145.454 326.021L144.954 326.887L145.454 327.175L145.954 326.887L145.454 326.021ZM190.577 299.969L191.077 300.835L191.577 300.546V299.969H190.577ZM145.454 231.431L145.954 230.565L145.454 230.277L144.954 230.565L145.454 231.431ZM182.247 252.674H183.247V252.096L182.747 251.808L182.247 252.674ZM108.661 252.674L108.161 251.808L107.661 252.096V252.674H108.661ZM108.661 295.159H107.661V295.736L108.161 296.025L108.661 295.159ZM145.454 316.401L144.954 317.267L145.454 317.556L145.954 317.267L145.454 316.401ZM182.247 295.159L182.747 296.025L183.247 295.736V295.159H182.247ZM144.954 222.678L190.077 248.73L191.077 246.998L145.954 220.946L144.954 222.678ZM100.83 248.73L145.954 222.678L144.954 220.946L99.83 246.998L100.83 248.73ZM101.33 299.969V247.864H99.33V299.969H101.33ZM145.954 325.155L100.83 299.103L99.83 300.835L144.954 326.887L145.954 325.155ZM190.077 299.103L144.954 325.155L145.954 326.887L191.077 300.835L190.077 299.103ZM189.577 247.864V299.969H191.577V247.864H189.577ZM144.954 232.297L181.747 253.54L182.747 251.808L145.954 230.565L144.954 232.297ZM109.161 253.54L145.954 232.297L144.954 230.565L108.161 251.808L109.161 253.54ZM109.661 295.159V252.674H107.661V295.159H109.661ZM145.954 315.535L109.161 294.293L108.161 296.025L144.954 317.267L145.954 315.535ZM181.747 294.293L144.954 315.535L145.954 317.267L182.747 296.025L181.747 294.293ZM181.247 252.674V295.159H183.247V252.674H181.247Z" fill="#C8C3C3" mask="url(#path-22-inside-10_22_337)"/>
<mask id="path-24-inside-11_22_337" fill="white">
<path fill-rule="evenodd" clip-rule="evenodd" d="M235.254 167.169L190.13 141.117L145.006 167.169V219.274L190.13 245.326L235.254 219.274V167.169ZM226.923 171.979L190.13 150.736L153.337 171.979V214.464L190.13 235.707L226.923 214.464V171.979Z"/>
</mask>
<path fill-rule="evenodd" clip-rule="evenodd" d="M235.254 167.169L190.13 141.117L145.006 167.169V219.274L190.13 245.326L235.254 219.274V167.169ZM226.923 171.979L190.13 150.736L153.337 171.979V214.464L190.13 235.707L226.923 214.464V171.979Z" fill="#130B0B"/>
<path d="M190.13 141.117L190.63 140.251L190.13 139.962L189.63 140.251L190.13 141.117ZM235.254 167.169H236.254V166.592L235.754 166.303L235.254 167.169ZM145.006 167.169L144.506 166.303L144.006 166.592V167.169H145.006ZM145.006 219.274H144.006V219.851L144.506 220.14L145.006 219.274ZM190.13 245.326L189.63 246.192L190.13 246.481L190.63 246.192L190.13 245.326ZM235.254 219.274L235.754 220.14L236.254 219.851V219.274H235.254ZM190.13 150.736L190.63 149.87L190.13 149.582L189.63 149.87L190.13 150.736ZM226.923 171.979H227.923V171.402L227.423 171.113L226.923 171.979ZM153.337 171.979L152.837 171.113L152.337 171.402V171.979H153.337ZM153.337 214.464H152.337V215.041L152.837 215.33L153.337 214.464ZM190.13 235.707L189.63 236.573L190.13 236.861L190.63 236.573L190.13 235.707ZM226.923 214.464L227.423 215.33L227.923 215.041V214.464H226.923ZM189.63 141.983L234.754 168.035L235.754 166.303L190.63 140.251L189.63 141.983ZM145.506 168.035L190.63 141.983L189.63 140.251L144.506 166.303L145.506 168.035ZM146.006 219.274V167.169H144.006V219.274H146.006ZM190.63 244.46L145.506 218.408L144.506 220.14L189.63 246.192L190.63 244.46ZM234.754 218.408L189.63 244.46L190.63 246.192L235.754 220.14L234.754 218.408ZM234.254 167.169V219.274H236.254V167.169H234.254ZM189.63 151.602L226.423 172.845L227.423 171.113L190.63 149.87L189.63 151.602ZM153.837 172.845L190.63 151.602L189.63 149.87L152.837 171.113L153.837 172.845ZM154.337 214.464V171.979H152.337V214.464H154.337ZM190.63 234.841L153.837 213.598L152.837 215.33L189.63 236.573L190.63 234.841ZM226.423 213.598L189.63 234.841L190.63 236.573L227.423 215.33L226.423 213.598ZM225.923 171.979V214.464H227.923V171.979H225.923Z" fill="#C8C3C3" mask="url(#path-24-inside-11_22_337)"/>
<mask id="path-26-inside-12_22_337" fill="white">
<path fill-rule="evenodd" clip-rule="evenodd" d="M327.385 166.636L282.261 140.583L237.138 166.636V218.74L282.261 244.792L327.385 218.74V166.636ZM319.054 171.445L282.261 150.203L245.468 171.445V213.93L282.261 235.173L319.054 213.93V171.445Z"/>
</mask>
<path fill-rule="evenodd" clip-rule="evenodd" d="M327.385 166.636L282.261 140.583L237.138 166.636V218.74L282.261 244.792L327.385 218.74V166.636ZM319.054 171.445L282.261 150.203L245.468 171.445V213.93L282.261 235.173L319.054 213.93V171.445Z" fill="#0C0C0C"/>
<path d="M282.261 140.583L282.761 139.717L282.261 139.429L281.761 139.717L282.261 140.583ZM327.385 166.636H328.385V166.058L327.885 165.77L327.385 166.636ZM237.138 166.636L236.638 165.77L236.138 166.058V166.636H237.138ZM237.138 218.74H236.138V219.317L236.638 219.606L237.138 218.74ZM282.261 244.792L281.761 245.658L282.261 245.947L282.761 245.658L282.261 244.792ZM327.385 218.74L327.885 219.606L328.385 219.317V218.74H327.385ZM282.261 150.203L282.761 149.337L282.261 149.048L281.761 149.337L282.261 150.203ZM319.054 171.445H320.054V170.868L319.554 170.579L319.054 171.445ZM245.468 171.445L244.968 170.579L244.468 170.868V171.445H245.468ZM245.468 213.93H244.468V214.508L244.968 214.796L245.468 213.93ZM282.261 235.173L281.761 236.039L282.261 236.328L282.761 236.039L282.261 235.173ZM319.054 213.93L319.554 214.796L320.054 214.508V213.93H319.054ZM281.761 141.45L326.885 167.502L327.885 165.77L282.761 139.717L281.761 141.45ZM237.638 167.502L282.761 141.45L281.761 139.717L236.638 165.77L237.638 167.502ZM238.138 218.74V166.636H236.138V218.74H238.138ZM282.761 243.926L237.638 217.874L236.638 219.606L281.761 245.658L282.761 243.926ZM326.885 217.874L281.761 243.926L282.761 245.658L327.885 219.606L326.885 217.874ZM326.385 166.636V218.74H328.385V166.636H326.385ZM281.761 151.069L318.554 172.311L319.554 170.579L282.761 149.337L281.761 151.069ZM245.968 172.311L282.761 151.069L281.761 149.337L244.968 170.579L245.968 172.311ZM246.468 213.93V171.445H244.468V213.93H246.468ZM282.761 234.307L245.968 213.064L244.968 214.796L281.761 236.039L282.761 234.307ZM318.554 213.064L281.761 234.307L282.761 236.039L319.554 214.796L318.554 213.064ZM318.054 171.445V213.93H320.054V171.445H318.054Z" fill="#C8C3C3" mask="url(#path-26-inside-12_22_337)"/>
<mask id="path-28-inside-13_22_337" fill="white">
<path fill-rule="evenodd" clip-rule="evenodd" d="M143.122 167.704L97.9987 141.651L52.875 167.704V219.808L97.9987 245.86L143.122 219.808V167.704ZM134.792 172.513L97.9987 151.271L61.2055 172.513V214.998L97.9987 236.241L134.792 214.998V172.513Z"/>
</mask>
<path fill-rule="evenodd" clip-rule="evenodd" d="M143.122 167.704L97.9987 141.651L52.875 167.704V219.808L97.9987 245.86L143.122 219.808V167.704ZM134.792 172.513L97.9987 151.271L61.2055 172.513V214.998L97.9987 236.241L134.792 214.998V172.513Z" fill="#0C0C0C"/>
<path d="M97.9987 141.651L98.4987 140.785L97.9987 140.497L97.4987 140.785L97.9987 141.651ZM143.122 167.704H144.122V167.126L143.622 166.838L143.122 167.704ZM52.875 167.704L52.375 166.838L51.875 167.126V167.704H52.875ZM52.875 219.808H51.875V220.385L52.375 220.674L52.875 219.808ZM97.9987 245.86L97.4987 246.726L97.9987 247.015L98.4987 246.726L97.9987 245.86ZM143.122 219.808L143.622 220.674L144.122 220.385V219.808H143.122ZM97.9987 151.271L98.4987 150.405L97.9987 150.116L97.4987 150.405L97.9987 151.271ZM134.792 172.513H135.792V171.936L135.292 171.647L134.792 172.513ZM61.2055 172.513L60.7055 171.647L60.2055 171.936V172.513H61.2055ZM61.2055 214.998H60.2055V215.576L60.7055 215.864L61.2055 214.998ZM97.9987 236.241L97.4987 237.107L97.9987 237.395L98.4987 237.107L97.9987 236.241ZM134.792 214.998L135.292 215.864L135.792 215.576V214.998H134.792ZM97.4987 142.517L142.622 168.57L143.622 166.838L98.4987 140.785L97.4987 142.517ZM53.375 168.57L98.4987 142.517L97.4987 140.785L52.375 166.838L53.375 168.57ZM53.875 219.808V167.704H51.875V219.808H53.875ZM98.4987 244.994L53.375 218.942L52.375 220.674L97.4987 246.726L98.4987 244.994ZM142.622 218.942L97.4987 244.994L98.4987 246.726L143.622 220.674L142.622 218.942ZM142.122 167.704V219.808H144.122V167.704H142.122ZM97.4987 152.137L134.292 173.379L135.292 171.647L98.4987 150.405L97.4987 152.137ZM61.7055 173.379L98.4987 152.137L97.4987 150.405L60.7055 171.647L61.7055 173.379ZM62.2055 214.998V172.513H60.2055V214.998H62.2055ZM98.4987 235.375L61.7055 214.132L60.7055 215.864L97.4987 237.107L98.4987 235.375ZM134.292 214.132L97.4987 235.375L98.4987 237.107L135.292 215.864L134.292 214.132ZM133.792 172.513V214.998H135.792V172.513H133.792Z" fill="#C8C3C3" mask="url(#path-28-inside-13_22_337)"/>
<mask id="path-30-inside-14_22_337" fill="white">
<path fill-rule="evenodd" clip-rule="evenodd" d="M281.373 247.864L236.249 221.812L191.125 247.864V299.969L236.249 326.021L281.373 299.969V247.864ZM273.042 252.674L236.249 231.431L199.456 252.674V295.159L236.249 316.401L273.042 295.159V252.674Z"/>
</mask>
<path fill-rule="evenodd" clip-rule="evenodd" d="M281.373 247.864L236.249 221.812L191.125 247.864V299.969L236.249 326.021L281.373 299.969V247.864ZM273.042 252.674L236.249 231.431L199.456 252.674V295.159L236.249 316.401L273.042 295.159V252.674Z" fill="#1A1918"/>
<path d="M236.249 221.812L236.749 220.946L236.249 220.657L235.749 220.946L236.249 221.812ZM281.373 247.864H282.373V247.287L281.873 246.998L281.373 247.864ZM191.125 247.864L190.625 246.998L190.125 247.287V247.864H191.125ZM191.125 299.969H190.125V300.546L190.625 300.835L191.125 299.969ZM236.249 326.021L235.749 326.887L236.249 327.175L236.749 326.887L236.249 326.021ZM281.373 299.969L281.873 300.835L282.373 300.546V299.969H281.373ZM236.249 231.431L236.749 230.565L236.249 230.277L235.749 230.565L236.249 231.431ZM273.042 252.674H274.042V252.096L273.542 251.808L273.042 252.674ZM199.456 252.674L198.956 251.808L198.456 252.096V252.674H199.456ZM199.456 295.159H198.456V295.736L198.956 296.025L199.456 295.159ZM236.249 316.401L235.749 317.267L236.249 317.556L236.749 317.267L236.249 316.401ZM273.042 295.159L273.542 296.025L274.042 295.736V295.159H273.042ZM235.749 222.678L280.873 248.73L281.873 246.998L236.749 220.946L235.749 222.678ZM191.625 248.73L236.749 222.678L235.749 220.946L190.625 246.998L191.625 248.73ZM192.125 299.969V247.864H190.125V299.969H192.125ZM236.749 325.155L191.625 299.103L190.625 300.835L235.749 326.887L236.749 325.155ZM280.873 299.103L235.749 325.155L236.749 326.887L281.873 300.835L280.873 299.103ZM280.373 247.864V299.969H282.373V247.864H280.373ZM235.749 232.297L272.542 253.54L273.542 251.808L236.749 230.565L235.749 232.297ZM199.956 253.54L236.749 232.297L235.749 230.565L198.956 251.808L199.956 253.54ZM200.456 295.159V252.674H198.456V295.159H200.456ZM236.749 315.535L199.956 294.293L198.956 296.025L235.749 317.267L236.749 315.535ZM272.542 294.293L235.749 315.535L236.749 317.267L273.542 296.025L272.542 294.293ZM272.042 252.674V295.159H274.042V252.674H272.042Z" fill="#C8C3C3" mask="url(#path-30-inside-14_22_337)"/>
<mask id="path-32-outside-15_22_337" maskUnits="userSpaceOnUse" x="127.6" y="249.507" width="32" height="54" fill="black">
<rect fill="white" x="127.6" y="249.507" width="32" height="54"/>
<path d="M137.171 250.65H141.457V254.936H137.171V250.65ZM132.886 250.65H137.171V254.936H132.886V250.65ZM132.886 254.936H137.171V259.222H132.886V254.936ZM137.171 254.936H141.457V259.222H137.171V254.936ZM141.457 254.936H145.743V259.222H141.457V254.936ZM141.457 250.65H145.743V254.936H141.457V250.65ZM145.743 250.65H150.029V254.936H145.743V250.65ZM150.029 250.65H154.314V254.936H150.029V250.65ZM150.029 254.936H154.314V259.222H150.029V254.936ZM145.743 254.936H150.029V259.222H145.743V254.936ZM145.743 259.222H150.029V263.507H145.743V259.222ZM150.029 259.222H154.314V263.507H150.029V259.222ZM154.314 254.936H158.6V259.222H154.314V254.936ZM154.314 259.222H158.6V263.507H154.314V259.222ZM154.314 263.507H158.6V267.793H154.314V263.507ZM154.314 267.793H158.6V272.079H154.314V267.793ZM154.314 272.079H158.6V276.364H154.314V272.079ZM154.314 276.364H158.6V280.65H154.314V276.364ZM154.314 280.65H158.6V284.936H154.314V280.65ZM154.314 284.936H158.6V289.222H154.314V284.936ZM150.029 284.936H154.314V289.222H150.029V284.936ZM150.029 280.65H154.314V284.936H150.029V280.65ZM150.029 276.364H154.314V280.65H150.029V276.364ZM150.029 272.079H154.314V276.364H150.029V272.079ZM150.029 267.793H154.314V272.079H150.029V267.793ZM150.029 263.507H154.314V267.793H150.029V263.507ZM145.743 280.65H150.029V284.936H145.743V280.65ZM145.743 284.936H150.029V289.222H145.743V284.936ZM145.743 289.222H150.029V293.507H145.743V289.222ZM141.457 289.222H145.743V293.507H141.457V289.222ZM141.457 284.936H145.743V289.222H141.457V284.936ZM137.171 289.222H141.457V293.507H137.171V289.222ZM132.886 289.222H137.171V293.507H132.886V289.222ZM132.886 284.936H137.171V289.222H132.886V284.936ZM137.171 284.936H141.457V289.222H137.171V284.936ZM137.171 280.65H141.457V284.936H137.171V280.65ZM132.886 280.65H137.171V284.936H132.886V280.65ZM128.6 284.936H132.886V289.222H128.6V284.936ZM128.6 280.65H132.886V284.936H128.6V280.65ZM128.6 276.364H132.886V280.65H128.6V276.364ZM128.6 272.079H132.886V276.364H128.6V272.079ZM128.6 267.793H132.886V272.079H128.6V267.793ZM128.6 263.507H132.886V267.793H128.6V263.507ZM128.6 259.222H132.886V263.507H128.6V259.222ZM132.886 259.222H137.171V263.507H132.886V259.222ZM128.6 254.936H132.886V259.222H128.6V254.936ZM137.171 259.222H141.457V263.507H137.171V259.222ZM132.886 263.507H137.171V267.793H132.886V263.507ZM132.886 267.793H137.171V272.079H132.886V267.793ZM132.886 272.079H137.171V276.364H132.886V272.079ZM132.886 276.364H137.171V280.65H132.886V276.364ZM141.457 293.507H145.743V297.793H141.457V293.507ZM145.743 293.507H150.029V297.793H145.743V293.507ZM150.029 293.507H154.314V297.793H150.029V293.507ZM145.743 297.793H150.029V302.079H145.743V297.793ZM150.029 297.793H154.314V302.079H150.029V297.793ZM154.314 297.793H158.6V302.079H154.314V297.793ZM154.314 293.507H158.6V297.793H154.314V293.507Z"/>
</mask>
<path d="M137.171 250.65H141.457V254.936H137.171V250.65ZM132.886 250.65H137.171V254.936H132.886V250.65ZM132.886 254.936H137.171V259.222H132.886V254.936ZM137.171 254.936H141.457V259.222H137.171V254.936ZM141.457 254.936H145.743V259.222H141.457V254.936ZM141.457 250.65H145.743V254.936H141.457V250.65ZM145.743 250.65H150.029V254.936H145.743V250.65ZM150.029 250.65H154.314V254.936H150.029V250.65ZM150.029 254.936H154.314V259.222H150.029V254.936ZM145.743 254.936H150.029V259.222H145.743V254.936ZM145.743 259.222H150.029V263.507H145.743V259.222ZM150.029 259.222H154.314V263.507H150.029V259.222ZM154.314 254.936H158.6V259.222H154.314V254.936ZM154.314 259.222H158.6V263.507H154.314V259.222ZM154.314 263.507H158.6V267.793H154.314V263.507ZM154.314 267.793H158.6V272.079H154.314V267.793ZM154.314 272.079H158.6V276.364H154.314V272.079ZM154.314 276.364H158.6V280.65H154.314V276.364ZM154.314 280.65H158.6V284.936H154.314V280.65ZM154.314 284.936H158.6V289.222H154.314V284.936ZM150.029 284.936H154.314V289.222H150.029V284.936ZM150.029 280.65H154.314V284.936H150.029V280.65ZM150.029 276.364H154.314V280.65H150.029V276.364ZM150.029 272.079H154.314V276.364H150.029V272.079ZM150.029 267.793H154.314V272.079H150.029V267.793ZM150.029 263.507H154.314V267.793H150.029V263.507ZM145.743 280.65H150.029V284.936H145.743V280.65ZM145.743 284.936H150.029V289.222H145.743V284.936ZM145.743 289.222H150.029V293.507H145.743V289.222ZM141.457 289.222H145.743V293.507H141.457V289.222ZM141.457 284.936H145.743V289.222H141.457V284.936ZM137.171 289.222H141.457V293.507H137.171V289.222ZM132.886 289.222H137.171V293.507H132.886V289.222ZM132.886 284.936H137.171V289.222H132.886V284.936ZM137.171 284.936H141.457V289.222H137.171V284.936ZM137.171 280.65H141.457V284.936H137.171V280.65ZM132.886 280.65H137.171V284.936H132.886V280.65ZM128.6 284.936H132.886V289.222H128.6V284.936ZM128.6 280.65H132.886V284.936H128.6V280.65ZM128.6 276.364H132.886V280.65H128.6V276.364ZM128.6 272.079H132.886V276.364H128.6V272.079ZM128.6 267.793H132.886V272.079H128.6V267.793ZM128.6 263.507H132.886V267.793H128.6V263.507ZM128.6 259.222H132.886V263.507H128.6V259.222ZM132.886 259.222H137.171V263.507H132.886V259.222ZM128.6 254.936H132.886V259.222H128.6V254.936ZM137.171 259.222H141.457V263.507H137.171V259.222ZM132.886 263.507H137.171V267.793H132.886V263.507ZM132.886 267.793H137.171V272.079H132.886V267.793ZM132.886 272.079H137.171V276.364H132.886V272.079ZM132.886 276.364H137.171V280.65H132.886V276.364ZM141.457 293.507H145.743V297.793H141.457V293.507ZM145.743 293.507H150.029V297.793H145.743V293.507ZM150.029 293.507H154.314V297.793H150.029V293.507ZM145.743 297.793H150.029V302.079H145.743V297.793ZM150.029 297.793H154.314V302.079H150.029V297.793ZM154.314 297.793H158.6V302.079H154.314V297.793ZM154.314 293.507H158.6V297.793H154.314V293.507Z" fill="#CCB928"/>
<path d="M137.171 250.65V249.65H136.171V250.65H137.171ZM141.457 250.65H142.457V249.65H141.457V250.65ZM141.457 254.936V255.936H142.457V254.936H141.457ZM137.171 254.936H136.171V255.936H137.171V254.936ZM132.886 250.65V249.65H131.886V250.65H132.886ZM137.171 250.65H138.171V249.65H137.171V250.65ZM137.171 254.936V255.936H138.171V254.936H137.171ZM132.886 254.936H131.886V255.936H132.886V254.936ZM132.886 254.936V253.936H131.886V254.936H132.886ZM137.171 254.936H138.171V253.936H137.171V254.936ZM137.171 259.222V260.222H138.171V259.222H137.171ZM132.886 259.222H131.886V260.222H132.886V259.222ZM137.171 254.936V253.936H136.171V254.936H137.171ZM141.457 254.936H142.457V253.936H141.457V254.936ZM141.457 259.222V260.222H142.457V259.222H141.457ZM137.171 259.222H136.171V260.222H137.171V259.222ZM141.457 254.936V253.936H140.457V254.936H141.457ZM145.743 254.936H146.743V253.936H145.743V254.936ZM145.743 259.222V260.222H146.743V259.222H145.743ZM141.457 259.222H140.457V260.222H141.457V259.222ZM141.457 250.65V249.65H140.457V250.65H141.457ZM145.743 250.65H146.743V249.65H145.743V250.65ZM145.743 254.936V255.936H146.743V254.936H145.743ZM141.457 254.936H140.457V255.936H141.457V254.936ZM145.743 250.65V249.65H144.743V250.65H145.743ZM150.029 250.65H151.029V249.65H150.029V250.65ZM150.029 254.936V255.936H151.029V254.936H150.029ZM145.743 254.936H144.743V255.936H145.743V254.936ZM150.029 250.65V249.65H149.029V250.65H150.029ZM154.314 250.65H155.314V249.65H154.314V250.65ZM154.314 254.936V255.936H155.314V254.936H154.314ZM150.029 254.936H149.029V255.936H150.029V254.936ZM150.029 254.936V253.936H149.029V254.936H150.029ZM154.314 254.936H155.314V253.936H154.314V254.936ZM154.314 259.222V260.222H155.314V259.222H154.314ZM150.029 259.222H149.029V260.222H150.029V259.222ZM145.743 254.936V253.936H144.743V254.936H145.743ZM150.029 254.936H151.029V253.936H150.029V254.936ZM150.029 259.222V260.222H151.029V259.222H150.029ZM145.743 259.222H144.743V260.222H145.743V259.222ZM145.743 259.222V258.222H144.743V259.222H145.743ZM150.029 259.222H151.029V258.222H150.029V259.222ZM150.029 263.507V264.507H151.029V263.507H150.029ZM145.743 263.507H144.743V264.507H145.743V263.507ZM150.029 259.222V258.222H149.029V259.222H150.029ZM154.314 259.222H155.314V258.222H154.314V259.222ZM154.314 263.507V264.507H155.314V263.507H154.314ZM150.029 263.507H149.029V264.507H150.029V263.507ZM154.314 254.936V253.936H153.314V254.936H154.314ZM158.6 254.936H159.6V253.936H158.6V254.936ZM158.6 259.222V260.222H159.6V259.222H158.6ZM154.314 259.222H153.314V260.222H154.314V259.222ZM154.314 259.222V258.222H153.314V259.222H154.314ZM158.6 259.222H159.6V258.222H158.6V259.222ZM158.6 263.507V264.507H159.6V263.507H158.6ZM154.314 263.507H153.314V264.507H154.314V263.507ZM154.314 263.507V262.507H153.314V263.507H154.314ZM158.6 263.507H159.6V262.507H158.6V263.507ZM158.6 267.793V268.793H159.6V267.793H158.6ZM154.314 267.793H153.314V268.793H154.314V267.793ZM154.314 267.793V266.793H153.314V267.793H154.314ZM158.6 267.793H159.6V266.793H158.6V267.793ZM158.6 272.079V273.079H159.6V272.079H158.6ZM154.314 272.079H153.314V273.079H154.314V272.079ZM154.314 272.079V271.079H153.314V272.079H154.314ZM158.6 272.079H159.6V271.079H158.6V272.079ZM158.6 276.364V277.364H159.6V276.364H158.6ZM154.314 276.364H153.314V277.364H154.314V276.364ZM154.314 276.364V275.364H153.314V276.364H154.314ZM158.6 276.364H159.6V275.364H158.6V276.364ZM158.6 280.65V281.65H159.6V280.65H158.6ZM154.314 280.65H153.314V281.65H154.314V280.65ZM154.314 280.65V279.65H153.314V280.65H154.314ZM158.6 280.65H159.6V279.65H158.6V280.65ZM158.6 284.936V285.936H159.6V284.936H158.6ZM154.314 284.936H153.314V285.936H154.314V284.936ZM154.314 284.936V283.936H153.314V284.936H154.314ZM158.6 284.936H159.6V283.936H158.6V284.936ZM158.6 289.222V290.222H159.6V289.222H158.6ZM154.314 289.222H153.314V290.222H154.314V289.222ZM150.029 284.936V283.936H149.029V284.936H150.029ZM154.314 284.936H155.314V283.936H154.314V284.936ZM154.314 289.222V290.222H155.314V289.222H154.314ZM150.029 289.222H149.029V290.222H150.029V289.222ZM150.029 280.65V279.65H149.029V280.65H150.029ZM154.314 280.65H155.314V279.65H154.314V280.65ZM154.314 284.936V285.936H155.314V284.936H154.314ZM150.029 284.936H149.029V285.936H150.029V284.936ZM150.029 276.364V275.364H149.029V276.364H150.029ZM154.314 276.364H155.314V275.364H154.314V276.364ZM154.314 280.65V281.65H155.314V280.65H154.314ZM150.029 280.65H149.029V281.65H150.029V280.65ZM150.029 272.079V271.079H149.029V272.079H150.029ZM154.314 272.079H155.314V271.079H154.314V272.079ZM154.314 276.364V277.364H155.314V276.364H154.314ZM150.029 276.364H149.029V277.364H150.029V276.364ZM150.029 267.793V266.793H149.029V267.793H150.029ZM154.314 267.793H155.314V266.793H154.314V267.793ZM154.314 272.079V273.079H155.314V272.079H154.314ZM150.029 272.079H149.029V273.079H150.029V272.079ZM150.029 263.507V262.507H149.029V263.507H150.029ZM154.314 263.507H155.314V262.507H154.314V263.507ZM154.314 267.793V268.793H155.314V267.793H154.314ZM150.029 267.793H149.029V268.793H150.029V267.793ZM145.743 280.65V279.65H144.743V280.65H145.743ZM150.029 280.65H151.029V279.65H150.029V280.65ZM150.029 284.936V285.936H151.029V284.936H150.029ZM145.743 284.936H144.743V285.936H145.743V284.936ZM145.743 284.936V283.936H144.743V284.936H145.743ZM150.029 284.936H151.029V283.936H150.029V284.936ZM150.029 289.222V290.222H151.029V289.222H150.029ZM145.743 289.222H144.743V290.222H145.743V289.222ZM145.743 289.222V288.222H144.743V289.222H145.743ZM150.029 289.222H151.029V288.222H150.029V289.222ZM150.029 293.507V294.507H151.029V293.507H150.029ZM145.743 293.507H144.743V294.507H145.743V293.507ZM141.457 289.222V288.222H140.457V289.222H141.457ZM145.743 289.222H146.743V288.222H145.743V289.222ZM145.743 293.507V294.507H146.743V293.507H145.743ZM141.457 293.507H140.457V294.507H141.457V293.507ZM141.457 284.936V283.936H140.457V284.936H141.457ZM145.743 284.936H146.743V283.936H145.743V284.936ZM145.743 289.222V290.222H146.743V289.222H145.743ZM141.457 289.222H140.457V290.222H141.457V289.222ZM137.171 289.222V288.222H136.171V289.222H137.171ZM141.457 289.222H142.457V288.222H141.457V289.222ZM141.457 293.507V294.507H142.457V293.507H141.457ZM137.171 293.507H136.171V294.507H137.171V293.507ZM132.886 289.222V288.222H131.886V289.222H132.886ZM137.171 289.222H138.171V288.222H137.171V289.222ZM137.171 293.507V294.507H138.171V293.507H137.171ZM132.886 293.507H131.886V294.507H132.886V293.507ZM132.886 284.936V283.936H131.886V284.936H132.886ZM137.171 284.936H138.171V283.936H137.171V284.936ZM137.171 289.222V290.222H138.171V289.222H137.171ZM132.886 289.222H131.886V290.222H132.886V289.222ZM137.171 284.936V283.936H136.171V284.936H137.171ZM141.457 284.936H142.457V283.936H141.457V284.936ZM141.457 289.222V290.222H142.457V289.222H141.457ZM137.171 289.222H136.171V290.222H137.171V289.222ZM137.171 280.65V279.65H136.171V280.65H137.171ZM141.457 280.65H142.457V279.65H141.457V280.65ZM141.457 284.936V285.936H142.457V284.936H141.457ZM137.171 284.936H136.171V285.936H137.171V284.936ZM132.886 280.65V279.65H131.886V280.65H132.886ZM137.171 280.65H138.171V279.65H137.171V280.65ZM137.171 284.936V285.936H138.171V284.936H137.171ZM132.886 284.936H131.886V285.936H132.886V284.936ZM128.6 284.936V283.936H127.6V284.936H128.6ZM132.886 284.936H133.886V283.936H132.886V284.936ZM132.886 289.222V290.222H133.886V289.222H132.886ZM128.6 289.222H127.6V290.222H128.6V289.222ZM128.6 280.65V279.65H127.6V280.65H128.6ZM132.886 280.65H133.886V279.65H132.886V280.65ZM132.886 284.936V285.936H133.886V284.936H132.886ZM128.6 284.936H127.6V285.936H128.6V284.936ZM128.6 276.364V275.364H127.6V276.364H128.6ZM132.886 276.364H133.886V275.364H132.886V276.364ZM132.886 280.65V281.65H133.886V280.65H132.886ZM128.6 280.65H127.6V281.65H128.6V280.65ZM128.6 272.079V271.079H127.6V272.079H128.6ZM132.886 272.079H133.886V271.079H132.886V272.079ZM132.886 276.364V277.364H133.886V276.364H132.886ZM128.6 276.364H127.6V277.364H128.6V276.364ZM128.6 267.793V266.793H127.6V267.793H128.6ZM132.886 267.793H133.886V266.793H132.886V267.793ZM132.886 272.079V273.079H133.886V272.079H132.886ZM128.6 272.079H127.6V273.079H128.6V272.079ZM128.6 263.507V262.507H127.6V263.507H128.6ZM132.886 263.507H133.886V262.507H132.886V263.507ZM132.886 267.793V268.793H133.886V267.793H132.886ZM128.6 267.793H127.6V268.793H128.6V267.793ZM128.6 259.222V258.222H127.6V259.222H128.6ZM132.886 259.222H133.886V258.222H132.886V259.222ZM132.886 263.507V264.507H133.886V263.507H132.886ZM128.6 263.507H127.6V264.507H128.6V263.507ZM132.886 259.222V258.222H131.886V259.222H132.886ZM137.171 259.222H138.171V258.222H137.171V259.222ZM137.171 263.507V264.507H138.171V263.507H137.171ZM132.886 263.507H131.886V264.507H132.886V263.507ZM128.6 254.936V253.936H127.6V254.936H128.6ZM132.886 254.936H133.886V253.936H132.886V254.936ZM132.886 259.222V260.222H133.886V259.222H132.886ZM128.6 259.222H127.6V260.222H128.6V259.222ZM137.171 259.222V258.222H136.171V259.222H137.171ZM141.457 259.222H142.457V258.222H141.457V259.222ZM141.457 263.507V264.507H142.457V263.507H141.457ZM137.171 263.507H136.171V264.507H137.171V263.507ZM132.886 263.507V262.507H131.886V263.507H132.886ZM137.171 263.507H138.171V262.507H137.171V263.507ZM137.171 267.793V268.793H138.171V267.793H137.171ZM132.886 267.793H131.886V268.793H132.886V267.793ZM132.886 267.793V266.793H131.886V267.793H132.886ZM137.171 267.793H138.171V266.793H137.171V267.793ZM137.171 272.079V273.079H138.171V272.079H137.171ZM132.886 272.079H131.886V273.079H132.886V272.079ZM132.886 272.079V271.079H131.886V272.079H132.886ZM137.171 272.079H138.171V271.079H137.171V272.079ZM137.171 276.364V277.364H138.171V276.364H137.171ZM132.886 276.364H131.886V277.364H132.886V276.364ZM132.886 276.364V275.364H131.886V276.364H132.886ZM137.171 276.364H138.171V275.364H137.171V276.364ZM137.171 280.65V281.65H138.171V280.65H137.171ZM132.886 280.65H131.886V281.65H132.886V280.65ZM141.457 293.507V292.507H140.457V293.507H141.457ZM145.743 293.507H146.743V292.507H145.743V293.507ZM145.743 297.793V298.793H146.743V297.793H145.743ZM141.457 297.793H140.457V298.793H141.457V297.793ZM145.743 293.507V292.507H144.743V293.507H145.743ZM150.029 293.507H151.029V292.507H150.029V293.507ZM150.029 297.793V298.793H151.029V297.793H150.029ZM145.743 297.793H144.743V298.793H145.743V297.793ZM150.029 293.507V292.507H149.029V293.507H150.029ZM154.314 293.507H155.314V292.507H154.314V293.507ZM154.314 297.793V298.793H155.314V297.793H154.314ZM150.029 297.793H149.029V298.793H150.029V297.793ZM145.743 297.793V296.793H144.743V297.793H145.743ZM150.029 297.793H151.029V296.793H150.029V297.793ZM150.029 302.079V303.079H151.029V302.079H150.029ZM145.743 302.079H144.743V303.079H145.743V302.079ZM150.029 297.793V296.793H149.029V297.793H150.029ZM154.314 297.793H155.314V296.793H154.314V297.793ZM154.314 302.079V303.079H155.314V302.079H154.314ZM150.029 302.079H149.029V303.079H150.029V302.079ZM154.314 297.793V296.793H153.314V297.793H154.314ZM158.6 297.793H159.6V296.793H158.6V297.793ZM158.6 302.079V303.079H159.6V302.079H158.6ZM154.314 302.079H153.314V303.079H154.314V302.079ZM154.314 293.507V292.507H153.314V293.507H154.314ZM158.6 293.507H159.6V292.507H158.6V293.507ZM158.6 297.793V298.793H159.6V297.793H158.6ZM154.314 297.793H153.314V298.793H154.314V297.793ZM137.171 251.65H141.457V249.65H137.171V251.65ZM140.457 250.65V254.936H142.457V250.65H140.457ZM141.457 253.936H137.171V255.936H141.457V253.936ZM138.171 254.936V250.65H136.171V254.936H138.171ZM132.886 251.65H137.171V249.65H132.886V251.65ZM136.171 250.65V254.936H138.171V250.65H136.171ZM137.171 253.936H132.886V255.936H137.171V253.936ZM133.886 254.936V250.65H131.886V254.936H133.886ZM132.886 255.936H137.171V253.936H132.886V255.936ZM136.171 254.936V259.222H138.171V254.936H136.171ZM137.171 258.222H132.886V260.222H137.171V258.222ZM133.886 259.222V254.936H131.886V259.222H133.886ZM137.171 255.936H141.457V253.936H137.171V255.936ZM140.457 254.936V259.222H142.457V254.936H140.457ZM141.457 258.222H137.171V260.222H141.457V258.222ZM138.171 259.222V254.936H136.171V259.222H138.171ZM141.457 255.936H145.743V253.936H141.457V255.936ZM144.743 254.936V259.222H146.743V254.936H144.743ZM145.743 258.222H141.457V260.222H145.743V258.222ZM142.457 259.222V254.936H140.457V259.222H142.457ZM141.457 251.65H145.743V249.65H141.457V251.65ZM144.743 250.65V254.936H146.743V250.65H144.743ZM145.743 253.936H141.457V255.936H145.743V253.936ZM142.457 254.936V250.65H140.457V254.936H142.457ZM145.743 251.65H150.029V249.65H145.743V251.65ZM149.029 250.65V254.936H151.029V250.65H149.029ZM150.029 253.936H145.743V255.936H150.029V253.936ZM146.743 254.936V250.65H144.743V254.936H146.743ZM150.029 251.65H154.314V249.65H150.029V251.65ZM153.314 250.65V254.936H155.314V250.65H153.314ZM154.314 253.936H150.029V255.936H154.314V253.936ZM151.029 254.936V250.65H149.029V254.936H151.029ZM150.029 255.936H154.314V253.936H150.029V255.936ZM153.314 254.936V259.222H155.314V254.936H153.314ZM154.314 258.222H150.029V260.222H154.314V258.222ZM151.029 259.222V254.936H149.029V259.222H151.029ZM145.743 255.936H150.029V253.936H145.743V255.936ZM149.029 254.936V259.222H151.029V254.936H149.029ZM150.029 258.222H145.743V260.222H150.029V258.222ZM146.743 259.222V254.936H144.743V259.222H146.743ZM145.743 260.222H150.029V258.222H145.743V260.222ZM149.029 259.222V263.507H151.029V259.222H149.029ZM150.029 262.507H145.743V264.507H150.029V262.507ZM146.743 263.507V259.222H144.743V263.507H146.743ZM150.029 260.222H154.314V258.222H150.029V260.222ZM153.314 259.222V263.507H155.314V259.222H153.314ZM154.314 262.507H150.029V264.507H154.314V262.507ZM151.029 263.507V259.222H149.029V263.507H151.029ZM154.314 255.936H158.6V253.936H154.314V255.936ZM157.6 254.936V259.222H159.6V254.936H157.6ZM158.6 258.222H154.314V260.222H158.6V258.222ZM155.314 259.222V254.936H153.314V259.222H155.314ZM154.314 260.222H158.6V258.222H154.314V260.222ZM157.6 259.222V263.507H159.6V259.222H157.6ZM158.6 262.507H154.314V264.507H158.6V262.507ZM155.314 263.507V259.222H153.314V263.507H155.314ZM154.314 264.507H158.6V262.507H154.314V264.507ZM157.6 263.507V267.793H159.6V263.507H157.6ZM158.6 266.793H154.314V268.793H158.6V266.793ZM155.314 267.793V263.507H153.314V267.793H155.314ZM154.314 268.793H158.6V266.793H154.314V268.793ZM157.6 267.793V272.079H159.6V267.793H157.6ZM158.6 271.079H154.314V273.079H158.6V271.079ZM155.314 272.079V267.793H153.314V272.079H155.314ZM154.314 273.079H158.6V271.079H154.314V273.079ZM157.6 272.079V276.364H159.6V272.079H157.6ZM158.6 275.364H154.314V277.364H158.6V275.364ZM155.314 276.364V272.079H153.314V276.364H155.314ZM154.314 277.364H158.6V275.364H154.314V277.364ZM157.6 276.364V280.65H159.6V276.364H157.6ZM158.6 279.65H154.314V281.65H158.6V279.65ZM155.314 280.65V276.364H153.314V280.65H155.314ZM154.314 281.65H158.6V279.65H154.314V281.65ZM157.6 280.65V284.936H159.6V280.65H157.6ZM158.6 283.936H154.314V285.936H158.6V283.936ZM155.314 284.936V280.65H153.314V284.936H155.314ZM154.314 285.936H158.6V283.936H154.314V285.936ZM157.6 284.936V289.222H159.6V284.936H157.6ZM158.6 288.222H154.314V290.222H158.6V288.222ZM155.314 289.222V284.936H153.314V289.222H155.314ZM150.029 285.936H154.314V283.936H150.029V285.936ZM153.314 284.936V289.222H155.314V284.936H153.314ZM154.314 288.222H150.029V290.222H154.314V288.222ZM151.029 289.222V284.936H149.029V289.222H151.029ZM150.029 281.65H154.314V279.65H150.029V281.65ZM153.314 280.65V284.936H155.314V280.65H153.314ZM154.314 283.936H150.029V285.936H154.314V283.936ZM151.029 284.936V280.65H149.029V284.936H151.029ZM150.029 277.364H154.314V275.364H150.029V277.364ZM153.314 276.364V280.65H155.314V276.364H153.314ZM154.314 279.65H150.029V281.65H154.314V279.65ZM151.029 280.65V276.364H149.029V280.65H151.029ZM150.029 273.079H154.314V271.079H150.029V273.079ZM153.314 272.079V276.364H155.314V272.079H153.314ZM154.314 275.364H150.029V277.364H154.314V275.364ZM151.029 276.364V272.079H149.029V276.364H151.029ZM150.029 268.793H154.314V266.793H150.029V268.793ZM153.314 267.793V272.079H155.314V267.793H153.314ZM154.314 271.079H150.029V273.079H154.314V271.079ZM151.029 272.079V267.793H149.029V272.079H151.029ZM150.029 264.507H154.314V262.507H150.029V264.507ZM153.314 263.507V267.793H155.314V263.507H153.314ZM154.314 266.793H150.029V268.793H154.314V266.793ZM151.029 267.793V263.507H149.029V267.793H151.029ZM145.743 281.65H150.029V279.65H145.743V281.65ZM149.029 280.65V284.936H151.029V280.65H149.029ZM150.029 283.936H145.743V285.936H150.029V283.936ZM146.743 284.936V280.65H144.743V284.936H146.743ZM145.743 285.936H150.029V283.936H145.743V285.936ZM149.029 284.936V289.222H151.029V284.936H149.029ZM150.029 288.222H145.743V290.222H150.029V288.222ZM146.743 289.222V284.936H144.743V289.222H146.743ZM145.743 290.222H150.029V288.222H145.743V290.222ZM149.029 289.222V293.507H151.029V289.222H149.029ZM150.029 292.507H145.743V294.507H150.029V292.507ZM146.743 293.507V289.222H144.743V293.507H146.743ZM141.457 290.222H145.743V288.222H141.457V290.222ZM144.743 289.222V293.507H146.743V289.222H144.743ZM145.743 292.507H141.457V294.507H145.743V292.507ZM142.457 293.507V289.222H140.457V293.507H142.457ZM141.457 285.936H145.743V283.936H141.457V285.936ZM144.743 284.936V289.222H146.743V284.936H144.743ZM145.743 288.222H141.457V290.222H145.743V288.222ZM142.457 289.222V284.936H140.457V289.222H142.457ZM137.171 290.222H141.457V288.222H137.171V290.222ZM140.457 289.222V293.507H142.457V289.222H140.457ZM141.457 292.507H137.171V294.507H141.457V292.507ZM138.171 293.507V289.222H136.171V293.507H138.171ZM132.886 290.222H137.171V288.222H132.886V290.222ZM136.171 289.222V293.507H138.171V289.222H136.171ZM137.171 292.507H132.886V294.507H137.171V292.507ZM133.886 293.507V289.222H131.886V293.507H133.886ZM132.886 285.936H137.171V283.936H132.886V285.936ZM136.171 284.936V289.222H138.171V284.936H136.171ZM137.171 288.222H132.886V290.222H137.171V288.222ZM133.886 289.222V284.936H131.886V289.222H133.886ZM137.171 285.936H141.457V283.936H137.171V285.936ZM140.457 284.936V289.222H142.457V284.936H140.457ZM141.457 288.222H137.171V290.222H141.457V288.222ZM138.171 289.222V284.936H136.171V289.222H138.171ZM137.171 281.65H141.457V279.65H137.171V281.65ZM140.457 280.65V284.936H142.457V280.65H140.457ZM141.457 283.936H137.171V285.936H141.457V283.936ZM138.171 284.936V280.65H136.171V284.936H138.171ZM132.886 281.65H137.171V279.65H132.886V281.65ZM136.171 280.65V284.936H138.171V280.65H136.171ZM137.171 283.936H132.886V285.936H137.171V283.936ZM133.886 284.936V280.65H131.886V284.936H133.886ZM128.6 285.936H132.886V283.936H128.6V285.936ZM131.886 284.936V289.222H133.886V284.936H131.886ZM132.886 288.222H128.6V290.222H132.886V288.222ZM129.6 289.222V284.936H127.6V289.222H129.6ZM128.6 281.65H132.886V279.65H128.6V281.65ZM131.886 280.65V284.936H133.886V280.65H131.886ZM132.886 283.936H128.6V285.936H132.886V283.936ZM129.6 284.936V280.65H127.6V284.936H129.6ZM128.6 277.364H132.886V275.364H128.6V277.364ZM131.886 276.364V280.65H133.886V276.364H131.886ZM132.886 279.65H128.6V281.65H132.886V279.65ZM129.6 280.65V276.364H127.6V280.65H129.6ZM128.6 273.079H132.886V271.079H128.6V273.079ZM131.886 272.079V276.364H133.886V272.079H131.886ZM132.886 275.364H128.6V277.364H132.886V275.364ZM129.6 276.364V272.079H127.6V276.364H129.6ZM128.6 268.793H132.886V266.793H128.6V268.793ZM131.886 267.793V272.079H133.886V267.793H131.886ZM132.886 271.079H128.6V273.079H132.886V271.079ZM129.6 272.079V267.793H127.6V272.079H129.6ZM128.6 264.507H132.886V262.507H128.6V264.507ZM131.886 263.507V267.793H133.886V263.507H131.886ZM132.886 266.793H128.6V268.793H132.886V266.793ZM129.6 267.793V263.507H127.6V267.793H129.6ZM128.6 260.222H132.886V258.222H128.6V260.222ZM131.886 259.222V263.507H133.886V259.222H131.886ZM132.886 262.507H128.6V264.507H132.886V262.507ZM129.6 263.507V259.222H127.6V263.507H129.6ZM132.886 260.222H137.171V258.222H132.886V260.222ZM136.171 259.222V263.507H138.171V259.222H136.171ZM137.171 262.507H132.886V264.507H137.171V262.507ZM133.886 263.507V259.222H131.886V263.507H133.886ZM128.6 255.936H132.886V253.936H128.6V255.936ZM131.886 254.936V259.222H133.886V254.936H131.886ZM132.886 258.222H128.6V260.222H132.886V258.222ZM129.6 259.222V254.936H127.6V259.222H129.6ZM137.171 260.222H141.457V258.222H137.171V260.222ZM140.457 259.222V263.507H142.457V259.222H140.457ZM141.457 262.507H137.171V264.507H141.457V262.507ZM138.171 263.507V259.222H136.171V263.507H138.171ZM132.886 264.507H137.171V262.507H132.886V264.507ZM136.171 263.507V267.793H138.171V263.507H136.171ZM137.171 266.793H132.886V268.793H137.171V266.793ZM133.886 267.793V263.507H131.886V267.793H133.886ZM132.886 268.793H137.171V266.793H132.886V268.793ZM136.171 267.793V272.079H138.171V267.793H136.171ZM137.171 271.079H132.886V273.079H137.171V271.079ZM133.886 272.079V267.793H131.886V272.079H133.886ZM132.886 273.079H137.171V271.079H132.886V273.079ZM136.171 272.079V276.364H138.171V272.079H136.171ZM137.171 275.364H132.886V277.364H137.171V275.364ZM133.886 276.364V272.079H131.886V276.364H133.886ZM132.886 277.364H137.171V275.364H132.886V277.364ZM136.171 276.364V280.65H138.171V276.364H136.171ZM137.171 279.65H132.886V281.65H137.171V279.65ZM133.886 280.65V276.364H131.886V280.65H133.886ZM141.457 294.507H145.743V292.507H141.457V294.507ZM144.743 293.507V297.793H146.743V293.507H144.743ZM145.743 296.793H141.457V298.793H145.743V296.793ZM142.457 297.793V293.507H140.457V297.793H142.457ZM145.743 294.507H150.029V292.507H145.743V294.507ZM149.029 293.507V297.793H151.029V293.507H149.029ZM150.029 296.793H145.743V298.793H150.029V296.793ZM146.743 297.793V293.507H144.743V297.793H146.743ZM150.029 294.507H154.314V292.507H150.029V294.507ZM153.314 293.507V297.793H155.314V293.507H153.314ZM154.314 296.793H150.029V298.793H154.314V296.793ZM151.029 297.793V293.507H149.029V297.793H151.029ZM145.743 298.793H150.029V296.793H145.743V298.793ZM149.029 297.793V302.079H151.029V297.793H149.029ZM150.029 301.079H145.743V303.079H150.029V301.079ZM146.743 302.079V297.793H144.743V302.079H146.743ZM150.029 298.793H154.314V296.793H150.029V298.793ZM153.314 297.793V302.079H155.314V297.793H153.314ZM154.314 301.079H150.029V303.079H154.314V301.079ZM151.029 302.079V297.793H149.029V302.079H151.029ZM154.314 298.793H158.6V296.793H154.314V298.793ZM157.6 297.793V302.079H159.6V297.793H157.6ZM158.6 301.079H154.314V303.079H158.6V301.079ZM155.314 302.079V297.793H153.314V302.079H155.314ZM154.314 294.507H158.6V292.507H154.314V294.507ZM157.6 293.507V297.793H159.6V293.507H157.6ZM158.6 296.793H154.314V298.793H158.6V296.793ZM155.314 297.793V293.507H153.314V297.793H155.314Z" fill="#C8C3C3" mask="url(#path-32-outside-15_22_337)"/>
</g>
</svg>
