<svg width="192" height="192" viewBox="0 0 192 192" fill="none" xmlns="http://www.w3.org/2000/svg">
<circle cx="96.0938" cy="96.0938" r="76.7812" fill="white"/>
<mask id="path-2-inside-1_22_388" fill="white">
<path fill-rule="evenodd" clip-rule="evenodd" d="M96.8386 41.9011L74.2768 28.875L51.7149 41.9011V67.9533L74.2768 80.9793L96.8386 67.9533V41.9011ZM92.6734 44.3058L74.2768 33.6846L55.8802 44.3058V65.5484L74.2768 76.1696L92.6734 65.5484V44.3058Z"/>
</mask>
<path fill-rule="evenodd" clip-rule="evenodd" d="M96.8386 41.9011L74.2768 28.875L51.7149 41.9011V67.9533L74.2768 80.9793L96.8386 67.9533V41.9011ZM92.6734 44.3058L74.2768 33.6846L55.8802 44.3058V65.5484L74.2768 76.1696L92.6734 65.5484V44.3058Z" fill="#0F0F0F"/>
<path d="M74.2768 28.875L74.7768 28.009L74.2768 27.7203L73.7768 28.009L74.2768 28.875ZM96.8386 41.9011H97.8386V41.3237L97.3386 41.0351L96.8386 41.9011ZM51.7149 41.9011L51.2149 41.0351L50.7149 41.3237V41.9011H51.7149ZM51.7149 67.9533H50.7149V68.5306L51.2149 68.8193L51.7149 67.9533ZM74.2768 80.9793L73.7768 81.8454L74.2768 82.134L74.7768 81.8454L74.2768 80.9793ZM96.8386 67.9533L97.3386 68.8193L97.8386 68.5306V67.9533H96.8386ZM74.2768 33.6846L74.7768 32.8185L74.2768 32.5299L73.7768 32.8185L74.2768 33.6846ZM92.6734 44.3058H93.6734V43.7285L93.1734 43.4398L92.6734 44.3058ZM55.8802 44.3058L55.3802 43.4398L54.8802 43.7285V44.3058H55.8802ZM55.8802 65.5484H54.8802V66.1257L55.3802 66.4144L55.8802 65.5484ZM74.2768 76.1696L73.7768 77.0357L74.2768 77.3243L74.7768 77.0357L74.2768 76.1696ZM92.6734 65.5484L93.1734 66.4144L93.6734 66.1257V65.5484H92.6734ZM73.7768 29.741L96.3386 42.7671L97.3386 41.0351L74.7768 28.009L73.7768 29.741ZM52.2149 42.7671L74.7768 29.741L73.7768 28.009L51.2149 41.0351L52.2149 42.7671ZM52.7149 67.9533V41.9011H50.7149V67.9533H52.7149ZM74.7768 80.1133L52.2149 67.0872L51.2149 68.8193L73.7768 81.8454L74.7768 80.1133ZM96.3386 67.0872L73.7768 80.1133L74.7768 81.8454L97.3386 68.8193L96.3386 67.0872ZM95.8386 41.9011V67.9533H97.8386V41.9011H95.8386ZM73.7768 34.5506L92.1734 45.1719L93.1734 43.4398L74.7768 32.8185L73.7768 34.5506ZM56.3802 45.1719L74.7768 34.5506L73.7768 32.8185L55.3802 43.4398L56.3802 45.1719ZM56.8802 65.5484V44.3058H54.8802V65.5484H56.8802ZM74.7768 75.3036L56.3802 64.6824L55.3802 66.4144L73.7768 77.0357L74.7768 75.3036ZM92.1734 64.6824L73.7768 75.3036L74.7768 77.0357L93.1734 66.4144L92.1734 64.6824ZM91.6734 44.3058V65.5484H93.6734V44.3058H91.6734Z" fill="black" mask="url(#path-2-inside-1_22_388)"/>
<mask id="path-4-inside-2_22_388" fill="white">
<path fill-rule="evenodd" clip-rule="evenodd" d="M142.236 41.9011L119.674 28.875L97.1124 41.9011V67.9533L119.674 80.9793L142.236 67.9533V41.9011ZM138.071 44.3058L119.674 33.6846L101.278 44.3058V65.5484L119.674 76.1696L138.071 65.5484V44.3058Z"/>
</mask>
<path fill-rule="evenodd" clip-rule="evenodd" d="M142.236 41.9011L119.674 28.875L97.1124 41.9011V67.9533L119.674 80.9793L142.236 67.9533V41.9011ZM138.071 44.3058L119.674 33.6846L101.278 44.3058V65.5484L119.674 76.1696L138.071 65.5484V44.3058Z" fill="#0C0C0C"/>
<path d="M119.674 28.875L120.174 28.009L119.674 27.7203L119.174 28.009L119.674 28.875ZM142.236 41.9011H143.236V41.3237L142.736 41.0351L142.236 41.9011ZM97.1124 41.9011L96.6124 41.0351L96.1124 41.3237V41.9011H97.1124ZM97.1124 67.9533H96.1124V68.5306L96.6124 68.8193L97.1124 67.9533ZM119.674 80.9793L119.174 81.8454L119.674 82.134L120.174 81.8454L119.674 80.9793ZM142.236 67.9533L142.736 68.8193L143.236 68.5306V67.9533H142.236ZM119.674 33.6846L120.174 32.8185L119.674 32.5299L119.174 32.8185L119.674 33.6846ZM138.071 44.3058H139.071V43.7285L138.571 43.4398L138.071 44.3058ZM101.278 44.3058L100.778 43.4398L100.278 43.7285V44.3058H101.278ZM101.278 65.5484H100.278V66.1257L100.778 66.4144L101.278 65.5484ZM119.674 76.1696L119.174 77.0357L119.674 77.3243L120.174 77.0357L119.674 76.1696ZM138.071 65.5484L138.571 66.4144L139.071 66.1257V65.5484H138.071ZM119.174 29.741L141.736 42.7671L142.736 41.0351L120.174 28.009L119.174 29.741ZM97.6124 42.7671L120.174 29.741L119.174 28.009L96.6124 41.0351L97.6124 42.7671ZM98.1124 67.9533V41.9011H96.1124V67.9533H98.1124ZM120.174 80.1133L97.6124 67.0872L96.6124 68.8193L119.174 81.8454L120.174 80.1133ZM141.736 67.0872L119.174 80.1133L120.174 81.8454L142.736 68.8193L141.736 67.0872ZM141.236 41.9011V67.9533H143.236V41.9011H141.236ZM119.174 34.5506L137.571 45.1719L138.571 43.4398L120.174 32.8185L119.174 34.5506ZM101.778 45.1719L120.174 34.5506L119.174 32.8185L100.778 43.4398L101.778 45.1719ZM102.278 65.5484V44.3058H100.278V65.5484H102.278ZM120.174 75.3036L101.778 64.6824L100.778 66.4144L119.174 77.0357L120.174 75.3036ZM137.571 64.6824L119.174 75.3036L120.174 77.0357L138.571 66.4144L137.571 64.6824ZM137.071 44.3058V65.5484H139.071V44.3058H137.071Z" fill="black" mask="url(#path-4-inside-2_22_388)"/>
<mask id="path-6-inside-3_22_388" fill="white">
<path fill-rule="evenodd" clip-rule="evenodd" d="M97.3462 122.328L74.7843 109.302L52.2225 122.328V148.381L74.7843 161.407L97.3462 148.381V122.328ZM93.1809 124.733L74.7843 114.112L56.3877 124.733V145.975L74.7843 156.597L93.1809 145.975V124.733Z"/>
</mask>
<path fill-rule="evenodd" clip-rule="evenodd" d="M97.3462 122.328L74.7843 109.302L52.2225 122.328V148.381L74.7843 161.407L97.3462 148.381V122.328ZM93.1809 124.733L74.7843 114.112L56.3877 124.733V145.975L74.7843 156.597L93.1809 145.975V124.733Z" fill="#B49E2F"/>
<path d="M74.7843 109.302L75.2843 108.436L74.7843 108.148L74.2843 108.436L74.7843 109.302ZM97.3462 122.328H98.3462V121.751L97.8462 121.462L97.3462 122.328ZM52.2225 122.328L51.7225 121.462L51.2225 121.751V122.328H52.2225ZM52.2225 148.381H51.2225V148.958L51.7225 149.247L52.2225 148.381ZM74.7843 161.407L74.2843 162.273L74.7843 162.561L75.2843 162.273L74.7843 161.407ZM97.3462 148.381L97.8462 149.247L98.3462 148.958V148.381H97.3462ZM74.7843 114.112L75.2843 113.246L74.7843 112.957L74.2843 113.246L74.7843 114.112ZM93.1809 124.733H94.1809V124.155L93.6809 123.867L93.1809 124.733ZM56.3877 124.733L55.8877 123.867L55.3877 124.155V124.733H56.3877ZM56.3877 145.975H55.3877V146.553L55.8877 146.841L56.3877 145.975ZM74.7843 156.597L74.2843 157.463L74.7843 157.751L75.2843 157.463L74.7843 156.597ZM93.1809 145.975L93.6809 146.841L94.1809 146.553V145.975H93.1809ZM74.2843 110.168L96.8462 123.194L97.8462 121.462L75.2843 108.436L74.2843 110.168ZM52.7225 123.194L75.2843 110.168L74.2843 108.436L51.7225 121.462L52.7225 123.194ZM53.2225 148.381V122.328H51.2225V148.381H53.2225ZM75.2843 160.541L52.7225 147.514L51.7225 149.247L74.2843 162.273L75.2843 160.541ZM96.8462 147.514L74.2843 160.541L75.2843 162.273L97.8462 149.247L96.8462 147.514ZM96.3462 122.328V148.381H98.3462V122.328H96.3462ZM74.2843 114.978L92.6809 125.599L93.6809 123.867L75.2843 113.246L74.2843 114.978ZM56.8877 125.599L75.2843 114.978L74.2843 113.246L55.8877 123.867L56.8877 125.599ZM57.3877 145.975V124.733H55.3877V145.975H57.3877ZM75.2843 155.731L56.8877 145.109L55.8877 146.841L74.2843 157.463L75.2843 155.731ZM92.6809 145.109L74.2843 155.731L75.2843 157.463L93.6809 146.841L92.6809 145.109ZM92.1809 124.733V145.975H94.1809V124.733H92.1809Z" fill="black" mask="url(#path-6-inside-3_22_388)"/>
<mask id="path-8-inside-4_22_388" fill="white">
<path fill-rule="evenodd" clip-rule="evenodd" d="M119.684 81.9817L97.1225 68.9556L74.5606 81.9817V108.034L97.1225 121.06L119.684 108.034V81.9817ZM115.519 84.3862L97.1224 73.7649L78.7258 84.3862V105.629L97.1224 116.25L115.519 105.629V84.3862Z"/>
</mask>
<path fill-rule="evenodd" clip-rule="evenodd" d="M119.684 81.9817L97.1225 68.9556L74.5606 81.9817V108.034L97.1225 121.06L119.684 108.034V81.9817ZM115.519 84.3862L97.1224 73.7649L78.7258 84.3862V105.629L97.1224 116.25L115.519 105.629V84.3862Z" fill="#130B0B"/>
<path d="M97.1225 68.9556L97.6225 68.0895L97.1225 67.8009L96.6225 68.0895L97.1225 68.9556ZM119.684 81.9817H120.684V81.4043L120.184 81.1156L119.684 81.9817ZM74.5606 81.9817L74.0606 81.1156L73.5606 81.4043V81.9817H74.5606ZM74.5606 108.034H73.5606V108.611L74.0606 108.9L74.5606 108.034ZM97.1225 121.06L96.6225 121.926L97.1225 122.215L97.6225 121.926L97.1225 121.06ZM119.684 108.034L120.184 108.9L120.684 108.611V108.034H119.684ZM97.1224 73.7649L97.6224 72.8989L97.1224 72.6102L96.6224 72.8989L97.1224 73.7649ZM115.519 84.3862H116.519V83.8088L116.019 83.5201L115.519 84.3862ZM78.7258 84.3862L78.2258 83.5201L77.7258 83.8088V84.3862H78.7258ZM78.7258 105.629H77.7258V106.206L78.2258 106.495L78.7258 105.629ZM97.1224 116.25L96.6224 117.116L97.1224 117.405L97.6224 117.116L97.1224 116.25ZM115.519 105.629L116.019 106.495L116.519 106.206V105.629H115.519ZM96.6225 69.8216L119.184 82.8477L120.184 81.1156L97.6225 68.0895L96.6225 69.8216ZM75.0606 82.8477L97.6225 69.8216L96.6225 68.0895L74.0606 81.1156L75.0606 82.8477ZM75.5606 108.034V81.9817H73.5606V108.034H75.5606ZM97.6225 120.194L75.0606 107.168L74.0606 108.9L96.6225 121.926L97.6225 120.194ZM119.184 107.168L96.6225 120.194L97.6225 121.926L120.184 108.9L119.184 107.168ZM118.684 81.9817V108.034H120.684V81.9817H118.684ZM96.6224 74.6309L115.019 85.2522L116.019 83.5201L97.6224 72.8989L96.6224 74.6309ZM79.2258 85.2522L97.6224 74.6309L96.6224 72.8989L78.2258 83.5201L79.2258 85.2522ZM79.7258 105.629V84.3862H77.7258V105.629H79.7258ZM97.6224 115.384L79.2258 104.763L78.2258 106.495L96.6224 117.116L97.6224 115.384ZM115.019 104.763L96.6224 115.384L97.6224 117.116L116.019 106.495L115.019 104.763ZM114.519 84.3862V105.629H116.519V84.3862H114.519Z" fill="black" mask="url(#path-8-inside-4_22_388)"/>
<mask id="path-10-inside-5_22_388" fill="white">
<path fill-rule="evenodd" clip-rule="evenodd" d="M165.75 81.7141L143.188 68.688L120.626 81.7141V107.766L143.188 120.792L165.75 107.766V81.7141ZM161.585 84.1188L143.188 73.4976L124.792 84.1188V105.361L143.188 115.983L161.585 105.361V84.1188Z"/>
</mask>
<path fill-rule="evenodd" clip-rule="evenodd" d="M165.75 81.7141L143.188 68.688L120.626 81.7141V107.766L143.188 120.792L165.75 107.766V81.7141ZM161.585 84.1188L143.188 73.4976L124.792 84.1188V105.361L143.188 115.983L161.585 105.361V84.1188Z" fill="#0C0C0C"/>
<path d="M143.188 68.688L143.688 67.822L143.188 67.5333L142.688 67.822L143.188 68.688ZM165.75 81.7141H166.75V81.1367L166.25 80.848L165.75 81.7141ZM120.626 81.7141L120.126 80.848L119.626 81.1367V81.7141H120.626ZM120.626 107.766H119.626V108.344L120.126 108.632L120.626 107.766ZM143.188 120.792L142.688 121.658L143.188 121.947L143.688 121.658L143.188 120.792ZM165.75 107.766L166.25 108.632L166.75 108.344V107.766H165.75ZM143.188 73.4976L143.688 72.6315L143.188 72.3429L142.688 72.6315L143.188 73.4976ZM161.585 84.1188H162.585V83.5415L162.085 83.2528L161.585 84.1188ZM124.792 84.1188L124.292 83.2528L123.792 83.5415V84.1188H124.792ZM124.792 105.361H123.792V105.939L124.292 106.227L124.792 105.361ZM143.188 115.983L142.688 116.849L143.188 117.137L143.688 116.849L143.188 115.983ZM161.585 105.361L162.085 106.227L162.585 105.939V105.361H161.585ZM142.688 69.554L165.25 82.5801L166.25 80.848L143.688 67.822L142.688 69.554ZM121.126 82.5801L143.688 69.554L142.688 67.822L120.126 80.848L121.126 82.5801ZM121.626 107.766V81.7141H119.626V107.766H121.626ZM143.688 119.926L121.126 106.9L120.126 108.632L142.688 121.658L143.688 119.926ZM165.25 106.9L142.688 119.926L143.688 121.658L166.25 108.632L165.25 106.9ZM164.75 81.7141V107.766H166.75V81.7141H164.75ZM142.688 74.3636L161.085 84.9849L162.085 83.2528L143.688 72.6315L142.688 74.3636ZM125.292 84.9849L143.688 74.3636L142.688 72.6315L124.292 83.2528L125.292 84.9849ZM125.792 105.361V84.1188H123.792V105.361H125.792ZM143.688 115.117L125.292 104.495L124.292 106.227L142.688 116.849L143.688 115.117ZM161.085 104.495L142.688 115.117L143.688 116.849L162.085 106.227L161.085 104.495ZM160.585 84.1188V105.361H162.585V84.1188H160.585Z" fill="black" mask="url(#path-10-inside-5_22_388)"/>
<mask id="path-12-inside-6_22_388" fill="white">
<path fill-rule="evenodd" clip-rule="evenodd" d="M73.6188 82.2483L51.0569 69.2222L28.4951 82.2483V108.3L51.0569 121.327L73.6188 108.3V82.2483ZM69.4535 84.6533L51.0569 74.032L32.6603 84.6533V105.896L51.0569 116.517L69.4535 105.896V84.6533Z"/>
</mask>
<path fill-rule="evenodd" clip-rule="evenodd" d="M73.6188 82.2483L51.0569 69.2222L28.4951 82.2483V108.3L51.0569 121.327L73.6188 108.3V82.2483ZM69.4535 84.6533L51.0569 74.032L32.6603 84.6533V105.896L51.0569 116.517L69.4535 105.896V84.6533Z" fill="#0C0C0C"/>
<path d="M51.0569 69.2222L51.5569 68.3561L51.0569 68.0675L50.5569 68.3561L51.0569 69.2222ZM73.6188 82.2483H74.6188V81.6709L74.1188 81.3822L73.6188 82.2483ZM28.4951 82.2483L27.9951 81.3822L27.4951 81.6709V82.2483H28.4951ZM28.4951 108.3H27.4951V108.878L27.9951 109.166L28.4951 108.3ZM51.0569 121.327L50.5569 122.193L51.0569 122.481L51.5569 122.193L51.0569 121.327ZM73.6188 108.3L74.1188 109.166L74.6188 108.878V108.3H73.6188ZM51.0569 74.032L51.5569 73.166L51.0569 72.8773L50.5569 73.166L51.0569 74.032ZM69.4535 84.6533H70.4535V84.0759L69.9535 83.7872L69.4535 84.6533ZM32.6603 84.6533L32.1603 83.7872L31.6603 84.0759V84.6533H32.6603ZM32.6603 105.896H31.6603V106.473L32.1603 106.762L32.6603 105.896ZM51.0569 116.517L50.5569 117.383L51.0569 117.672L51.5569 117.383L51.0569 116.517ZM69.4535 105.896L69.9535 106.762L70.4535 106.473V105.896H69.4535ZM50.5569 70.0882L73.1188 83.1143L74.1188 81.3822L51.5569 68.3561L50.5569 70.0882ZM28.9951 83.1143L51.5569 70.0882L50.5569 68.3561L27.9951 81.3822L28.9951 83.1143ZM29.4951 108.3V82.2483H27.4951V108.3H29.4951ZM51.5569 120.46L28.9951 107.434L27.9951 109.166L50.5569 122.193L51.5569 120.46ZM73.1188 107.434L50.5569 120.46L51.5569 122.193L74.1188 109.166L73.1188 107.434ZM72.6188 82.2483V108.3H74.6188V82.2483H72.6188ZM50.5569 74.898L68.9535 85.5193L69.9535 83.7872L51.5569 73.166L50.5569 74.898ZM33.1603 85.5193L51.5569 74.898L50.5569 73.166L32.1603 83.7872L33.1603 85.5193ZM33.6603 105.896V84.6533H31.6603V105.896H33.6603ZM51.5569 115.651L33.1603 105.03L32.1603 106.762L50.5569 117.383L51.5569 115.651ZM68.9535 105.03L50.5569 115.651L51.5569 117.383L69.9535 106.762L68.9535 105.03ZM68.4535 84.6533V105.896H70.4535V84.6533H68.4535Z" fill="black" mask="url(#path-12-inside-6_22_388)"/>
<mask id="path-14-inside-7_22_388" fill="white">
<path fill-rule="evenodd" clip-rule="evenodd" d="M142.744 122.328L120.182 109.302L97.6201 122.328V148.381L120.182 161.407L142.744 148.381V122.328ZM138.579 124.733L120.182 114.112L101.785 124.733V145.975L120.182 156.597L138.579 145.975V124.733Z"/>
</mask>
<path fill-rule="evenodd" clip-rule="evenodd" d="M142.744 122.328L120.182 109.302L97.6201 122.328V148.381L120.182 161.407L142.744 148.381V122.328ZM138.579 124.733L120.182 114.112L101.785 124.733V145.975L120.182 156.597L138.579 145.975V124.733Z" fill="#1A1918"/>
<path d="M120.182 109.302L120.682 108.436L120.182 108.148L119.682 108.436L120.182 109.302ZM142.744 122.328H143.744V121.751L143.244 121.462L142.744 122.328ZM97.6201 122.328L97.1201 121.462L96.6201 121.751V122.328H97.6201ZM97.6201 148.381H96.6201V148.958L97.1201 149.247L97.6201 148.381ZM120.182 161.407L119.682 162.273L120.182 162.561L120.682 162.273L120.182 161.407ZM142.744 148.381L143.244 149.247L143.744 148.958V148.381H142.744ZM120.182 114.112L120.682 113.246L120.182 112.957L119.682 113.246L120.182 114.112ZM138.579 124.733H139.579V124.155L139.079 123.867L138.579 124.733ZM101.785 124.733L101.285 123.867L100.785 124.155V124.733H101.785ZM101.785 145.975H100.785V146.553L101.285 146.841L101.785 145.975ZM120.182 156.597L119.682 157.463L120.182 157.751L120.682 157.463L120.182 156.597ZM138.579 145.975L139.079 146.841L139.579 146.553V145.975H138.579ZM119.682 110.168L142.244 123.194L143.244 121.462L120.682 108.436L119.682 110.168ZM98.1201 123.194L120.682 110.168L119.682 108.436L97.1201 121.462L98.1201 123.194ZM98.6201 148.381V122.328H96.6201V148.381H98.6201ZM120.682 160.541L98.1201 147.514L97.1201 149.247L119.682 162.273L120.682 160.541ZM142.244 147.514L119.682 160.541L120.682 162.273L143.244 149.247L142.244 147.514ZM141.744 122.328V148.381H143.744V122.328H141.744ZM119.682 114.978L138.079 125.599L139.079 123.867L120.682 113.246L119.682 114.978ZM102.285 125.599L120.682 114.978L119.682 113.246L101.285 123.867L102.285 125.599ZM102.785 145.975V124.733H100.785V145.975H102.785ZM120.682 155.731L102.285 145.109L101.285 146.841L119.682 157.463L120.682 155.731ZM138.079 145.109L119.682 155.731L120.682 157.463L139.079 146.841L138.079 145.109ZM137.579 124.733V145.975H139.579V124.733H137.579Z" fill="black" mask="url(#path-14-inside-7_22_388)"/>
<path d="M70.6432 123.722H72.7861V125.865H70.6432V123.722ZM68.5003 123.722H70.6432V125.865H68.5003V123.722ZM68.5003 125.865H70.6432V128.008H68.5003V125.865ZM70.6432 125.865H72.7861V128.008H70.6432V125.865ZM72.7861 125.865H74.9289V128.008H72.7861V125.865ZM72.7861 123.722H74.9289V125.865H72.7861V123.722ZM74.9289 123.722H77.0718V125.865H74.9289V123.722ZM77.0718 123.722H79.2146V125.865H77.0718V123.722ZM77.0718 125.865H79.2146V128.008H77.0718V125.865ZM74.9289 125.865H77.0718V128.008H74.9289V125.865ZM74.9289 128.008H77.0718V130.15H74.9289V128.008ZM77.0718 128.008H79.2146V130.15H77.0718V128.008ZM79.2146 125.865H81.3575V128.008H79.2146V125.865ZM79.2146 128.008H81.3575V130.15H79.2146V128.008ZM79.2146 130.15H81.3575V132.293H79.2146V130.15ZM79.2146 132.293H81.3575V134.436H79.2146V132.293ZM79.2146 134.436H81.3575V136.579H79.2146V134.436ZM79.2146 136.579H81.3575V138.722H79.2146V136.579ZM79.2146 138.722H81.3575V140.865H79.2146V138.722ZM79.2146 140.865H81.3575V143.008H79.2146V140.865ZM77.0718 140.865H79.2146V143.008H77.0718V140.865ZM77.0718 138.722H79.2146V140.865H77.0718V138.722ZM77.0718 136.579H79.2146V138.722H77.0718V136.579ZM77.0718 134.436H79.2146V136.579H77.0718V134.436ZM77.0718 132.293H79.2146V134.436H77.0718V132.293ZM77.0718 130.15H79.2146V132.293H77.0718V130.15ZM74.9289 138.722H77.0718V140.865H74.9289V138.722ZM74.9289 140.865H77.0718V143.008H74.9289V140.865ZM74.9289 143.008H77.0718V145.15H74.9289V143.008ZM72.7861 143.008H74.9289V145.15H72.7861V143.008ZM72.7861 140.865H74.9289V143.008H72.7861V140.865ZM70.6432 143.008H72.7861V145.15H70.6432V143.008ZM68.5003 143.008H70.6432V145.15H68.5003V143.008ZM68.5003 140.865H70.6432V143.008H68.5003V140.865ZM70.6432 140.865H72.7861V143.008H70.6432V140.865ZM70.6432 138.722H72.7861V140.865H70.6432V138.722ZM68.5003 138.722H70.6432V140.865H68.5003V138.722ZM66.3575 140.865H68.5003V143.008H66.3575V140.865ZM66.3575 138.722H68.5003V140.865H66.3575V138.722ZM66.3575 136.579H68.5003V138.722H66.3575V136.579ZM66.3575 134.436H68.5003V136.579H66.3575V134.436ZM66.3575 132.293H68.5003V134.436H66.3575V132.293ZM66.3575 130.15H68.5003V132.293H66.3575V130.15ZM66.3575 128.008H68.5003V130.15H66.3575V128.008ZM68.5003 128.008H70.6432V130.15H68.5003V128.008ZM66.3575 125.865H68.5003V128.008H66.3575V125.865ZM70.6432 128.008H72.7861V130.15H70.6432V128.008ZM68.5003 130.15H70.6432V132.293H68.5003V130.15ZM68.5003 132.293H70.6432V134.436H68.5003V132.293ZM68.5003 134.436H70.6432V136.579H68.5003V134.436ZM68.5003 136.579H70.6432V138.722H68.5003V136.579ZM72.7861 145.15H74.9289V147.293H72.7861V145.15ZM74.9289 145.15H77.0718V147.293H74.9289V145.15ZM77.0718 145.15H79.2146V147.293H77.0718V145.15ZM74.9289 147.293H77.0718V149.436H74.9289V147.293ZM77.0718 147.293H79.2146V149.436H77.0718V147.293ZM79.2146 147.293H81.3575V149.436H79.2146V147.293ZM79.2146 145.15H81.3575V147.293H79.2146V145.15Z" fill="#CCB928"/>
<g opacity="0.2">
<mask id="path-17-inside-8_22_388" fill="white">
<path fill-rule="evenodd" clip-rule="evenodd" d="M94.781 43.5041L72.2192 30.478L49.6573 43.5041V69.5563L72.2192 82.5824L94.781 69.5563V43.5041ZM90.6158 45.9089L72.2192 35.2876L53.8226 45.9089V67.1514L72.2192 77.7727L90.6158 67.1514V45.9089Z"/>
</mask>
<path fill-rule="evenodd" clip-rule="evenodd" d="M94.781 43.5041L72.2192 30.478L49.6573 43.5041V69.5563L72.2192 82.5824L94.781 69.5563V43.5041ZM90.6158 45.9089L72.2192 35.2876L53.8226 45.9089V67.1514L72.2192 77.7727L90.6158 67.1514V45.9089Z" fill="#0F0F0F"/>
<path d="M72.2192 30.478L72.7192 29.612L72.2192 29.3233L71.7192 29.612L72.2192 30.478ZM94.781 43.5041H95.781V42.9268L95.281 42.6381L94.781 43.5041ZM49.6573 43.5041L49.1573 42.6381L48.6573 42.9268V43.5041H49.6573ZM49.6573 69.5563H48.6573V70.1336L49.1573 70.4223L49.6573 69.5563ZM72.2192 82.5824L71.7192 83.4484L72.2192 83.7371L72.7192 83.4484L72.2192 82.5824ZM94.781 69.5563L95.281 70.4223L95.781 70.1336V69.5563H94.781ZM72.2192 35.2876L72.7192 34.4216L72.2192 34.1329L71.7192 34.4216L72.2192 35.2876ZM90.6158 45.9089H91.6158V45.3315L91.1158 45.0428L90.6158 45.9089ZM53.8226 45.9089L53.3226 45.0428L52.8226 45.3315V45.9089H53.8226ZM53.8226 67.1514H52.8226V67.7288L53.3226 68.0174L53.8226 67.1514ZM72.2192 77.7727L71.7192 78.6387L72.2192 78.9274L72.7192 78.6387L72.2192 77.7727ZM90.6158 67.1514L91.1158 68.0174L91.6158 67.7288V67.1514H90.6158ZM71.7192 31.3441L94.281 44.3701L95.281 42.6381L72.7192 29.612L71.7192 31.3441ZM50.1573 44.3701L72.7192 31.3441L71.7192 29.612L49.1573 42.6381L50.1573 44.3701ZM50.6573 69.5563V43.5041H48.6573V69.5563H50.6573ZM72.7192 81.7163L50.1573 68.6903L49.1573 70.4223L71.7192 83.4484L72.7192 81.7163ZM94.281 68.6903L71.7192 81.7163L72.7192 83.4484L95.281 70.4223L94.281 68.6903ZM93.781 43.5041V69.5563H95.781V43.5041H93.781ZM71.7192 36.1536L90.1158 46.7749L91.1158 45.0428L72.7192 34.4216L71.7192 36.1536ZM54.3226 46.7749L72.7192 36.1536L71.7192 34.4216L53.3226 45.0428L54.3226 46.7749ZM54.8226 67.1514V45.9089H52.8226V67.1514H54.8226ZM72.7192 76.9066L54.3226 66.2854L53.3226 68.0174L71.7192 78.6387L72.7192 76.9066ZM90.1158 66.2854L71.7192 76.9066L72.7192 78.6387L91.1158 68.0174L90.1158 66.2854ZM89.6158 45.9089V67.1514H91.6158V45.9089H89.6158Z" fill="#C8C3C3" mask="url(#path-17-inside-8_22_388)"/>
<mask id="path-19-inside-9_22_388" fill="white">
<path fill-rule="evenodd" clip-rule="evenodd" d="M140.179 43.5041L117.617 30.478L95.055 43.5041V69.5563L117.617 82.5824L140.179 69.5563V43.5041ZM136.014 45.9091L117.617 35.2878L99.2203 45.9091V67.1516L117.617 77.7729L136.014 67.1516V45.9091Z"/>
</mask>
<path fill-rule="evenodd" clip-rule="evenodd" d="M140.179 43.5041L117.617 30.478L95.055 43.5041V69.5563L117.617 82.5824L140.179 69.5563V43.5041ZM136.014 45.9091L117.617 35.2878L99.2203 45.9091V67.1516L117.617 77.7729L136.014 67.1516V45.9091Z" fill="#0C0C0C"/>
<path d="M117.617 30.478L118.117 29.612L117.617 29.3233L117.117 29.612L117.617 30.478ZM140.179 43.5041H141.179V42.9268L140.679 42.6381L140.179 43.5041ZM95.055 43.5041L94.555 42.6381L94.055 42.9268V43.5041H95.055ZM95.055 69.5563H94.055V70.1336L94.555 70.4223L95.055 69.5563ZM117.617 82.5824L117.117 83.4484L117.617 83.7371L118.117 83.4484L117.617 82.5824ZM140.179 69.5563L140.679 70.4223L141.179 70.1336V69.5563H140.179ZM117.617 35.2878L118.117 34.4218L117.617 34.1331L117.117 34.4218L117.617 35.2878ZM136.014 45.9091H137.014V45.3318L136.514 45.0431L136.014 45.9091ZM99.2203 45.9091L98.7203 45.0431L98.2203 45.3318V45.9091H99.2203ZM99.2203 67.1516H98.2203V67.729L98.7203 68.0177L99.2203 67.1516ZM117.617 77.7729L117.117 78.6389L117.617 78.9276L118.117 78.6389L117.617 77.7729ZM136.014 67.1516L136.514 68.0177L137.014 67.729V67.1516H136.014ZM117.117 31.3441L139.679 44.3701L140.679 42.6381L118.117 29.612L117.117 31.3441ZM95.555 44.3701L118.117 31.3441L117.117 29.612L94.555 42.6381L95.555 44.3701ZM96.055 69.5563V43.5041H94.055V69.5563H96.055ZM118.117 81.7163L95.555 68.6903L94.555 70.4223L117.117 83.4484L118.117 81.7163ZM139.679 68.6903L117.117 81.7163L118.117 83.4484L140.679 70.4223L139.679 68.6903ZM139.179 43.5041V69.5563H141.179V43.5041H139.179ZM117.117 36.1539L135.514 46.7751L136.514 45.0431L118.117 34.4218L117.117 36.1539ZM99.7203 46.7751L118.117 36.1539L117.117 34.4218L98.7203 45.0431L99.7203 46.7751ZM100.22 67.1516V45.9091H98.2203V67.1516H100.22ZM118.117 76.9069L99.7203 66.2856L98.7203 68.0177L117.117 78.6389L118.117 76.9069ZM135.514 66.2856L117.117 76.9069L118.117 78.6389L136.514 68.0177L135.514 66.2856ZM135.014 45.9091V67.1516H137.014V45.9091H135.014Z" fill="#C8C3C3" mask="url(#path-19-inside-9_22_388)"/>
<mask id="path-21-inside-10_22_388" fill="white">
<path fill-rule="evenodd" clip-rule="evenodd" d="M95.2887 123.932L72.7268 110.906L50.165 123.932V149.984L72.7268 163.01L95.2887 149.984V123.932ZM91.1235 126.337L72.7269 115.716L54.3303 126.337V147.579L72.7269 158.201L91.1235 147.579V126.337Z"/>
</mask>
<path fill-rule="evenodd" clip-rule="evenodd" d="M95.2887 123.932L72.7268 110.906L50.165 123.932V149.984L72.7268 163.01L95.2887 149.984V123.932ZM91.1235 126.337L72.7269 115.716L54.3303 126.337V147.579L72.7269 158.201L91.1235 147.579V126.337Z" fill="#B49E2F"/>
<path d="M72.7268 110.906L73.2268 110.04L72.7268 109.751L72.2268 110.04L72.7268 110.906ZM95.2887 123.932H96.2887V123.354L95.7887 123.066L95.2887 123.932ZM50.165 123.932L49.665 123.066L49.165 123.354V123.932H50.165ZM50.165 149.984H49.165V150.561L49.665 150.85L50.165 149.984ZM72.7268 163.01L72.2268 163.876L72.7268 164.165L73.2268 163.876L72.7268 163.01ZM95.2887 149.984L95.7887 150.85L96.2887 150.561V149.984H95.2887ZM72.7269 115.716L73.2269 114.85L72.7269 114.561L72.2269 114.85L72.7269 115.716ZM91.1235 126.337H92.1235V125.759L91.6235 125.471L91.1235 126.337ZM54.3303 126.337L53.8303 125.471L53.3303 125.759V126.337H54.3303ZM54.3303 147.579H53.3303V148.157L53.8303 148.445L54.3303 147.579ZM72.7269 158.201L72.2269 159.067L72.7269 159.355L73.2269 159.067L72.7269 158.201ZM91.1235 147.579L91.6235 148.445L92.1235 148.157V147.579H91.1235ZM72.2268 111.772L94.7887 124.798L95.7887 123.066L73.2268 110.04L72.2268 111.772ZM50.665 124.798L73.2268 111.772L72.2268 110.04L49.665 123.066L50.665 124.798ZM51.165 149.984V123.932H49.165V149.984H51.165ZM73.2268 162.144L50.665 149.118L49.665 150.85L72.2268 163.876L73.2268 162.144ZM94.7887 149.118L72.2268 162.144L73.2268 163.876L95.7887 150.85L94.7887 149.118ZM94.2887 123.932V149.984H96.2887V123.932H94.2887ZM72.2269 116.582L90.6235 127.203L91.6235 125.471L73.2269 114.85L72.2269 116.582ZM54.8303 127.203L73.2269 116.582L72.2269 114.85L53.8303 125.471L54.8303 127.203ZM55.3303 147.579V126.337H53.3303V147.579H55.3303ZM73.2269 157.335L54.8303 146.713L53.8303 148.445L72.2269 159.067L73.2269 157.335ZM90.6235 146.713L72.2269 157.335L73.2269 159.067L91.6235 148.445L90.6235 146.713ZM90.1235 126.337V147.579H92.1235V126.337H90.1235Z" fill="#C8C3C3" mask="url(#path-21-inside-10_22_388)"/>
<mask id="path-23-inside-11_22_388" fill="white">
<path fill-rule="evenodd" clip-rule="evenodd" d="M117.627 83.5847L95.065 70.5586L72.5032 83.5847V109.637L95.065 122.663L117.627 109.637V83.5847ZM113.462 85.9894L95.065 75.3682L76.6684 85.9894V107.232L95.065 117.853L113.462 107.232V85.9894Z"/>
</mask>
<path fill-rule="evenodd" clip-rule="evenodd" d="M117.627 83.5847L95.065 70.5586L72.5032 83.5847V109.637L95.065 122.663L117.627 109.637V83.5847ZM113.462 85.9894L95.065 75.3682L76.6684 85.9894V107.232L95.065 117.853L113.462 107.232V85.9894Z" fill="#130B0B"/>
<path d="M95.065 70.5586L95.565 69.6926L95.065 69.4039L94.565 69.6926L95.065 70.5586ZM117.627 83.5847H118.627V83.0073L118.127 82.7187L117.627 83.5847ZM72.5032 83.5847L72.0032 82.7187L71.5032 83.0073V83.5847H72.5032ZM72.5032 109.637H71.5032V110.214L72.0032 110.503L72.5032 109.637ZM95.065 122.663L94.565 123.529L95.065 123.818L95.565 123.529L95.065 122.663ZM117.627 109.637L118.127 110.503L118.627 110.214V109.637H117.627ZM95.065 75.3682L95.565 74.5021L95.065 74.2135L94.565 74.5021L95.065 75.3682ZM113.462 85.9894H114.462V85.4121L113.962 85.1234L113.462 85.9894ZM76.6684 85.9894L76.1684 85.1234L75.6684 85.4121V85.9894H76.6684ZM76.6684 107.232H75.6684V107.809L76.1684 108.098L76.6684 107.232ZM95.065 117.853L94.565 118.719L95.065 119.008L95.565 118.719L95.065 117.853ZM113.462 107.232L113.962 108.098L114.462 107.809V107.232H113.462ZM94.565 71.4246L117.127 84.4507L118.127 82.7187L95.565 69.6926L94.565 71.4246ZM73.0032 84.4507L95.565 71.4246L94.565 69.6926L72.0032 82.7187L73.0032 84.4507ZM73.5032 109.637V83.5847H71.5032V109.637H73.5032ZM95.565 121.797L73.0032 108.771L72.0032 110.503L94.565 123.529L95.565 121.797ZM117.127 108.771L94.565 121.797L95.565 123.529L118.127 110.503L117.127 108.771ZM116.627 83.5847V109.637H118.627V83.5847H116.627ZM94.565 76.2342L112.962 86.8555L113.962 85.1234L95.565 74.5021L94.565 76.2342ZM77.1684 86.8555L95.565 76.2342L94.565 74.5021L76.1684 85.1234L77.1684 86.8555ZM77.6684 107.232V85.9894H75.6684V107.232H77.6684ZM95.565 116.987L77.1684 106.366L76.1684 108.098L94.565 118.719L95.565 116.987ZM112.962 106.366L94.565 116.987L95.565 118.719L113.962 108.098L112.962 106.366ZM112.462 85.9894V107.232H114.462V85.9894H112.462Z" fill="#C8C3C3" mask="url(#path-23-inside-11_22_388)"/>
<mask id="path-25-inside-12_22_388" fill="white">
<path fill-rule="evenodd" clip-rule="evenodd" d="M163.693 83.3176L141.131 70.2915L118.569 83.3176V109.37L141.131 122.396L163.693 109.37V83.3176ZM159.527 85.7223L141.131 75.1011L122.734 85.7223V106.965L141.131 117.586L159.527 106.965V85.7223Z"/>
</mask>
<path fill-rule="evenodd" clip-rule="evenodd" d="M163.693 83.3176L141.131 70.2915L118.569 83.3176V109.37L141.131 122.396L163.693 109.37V83.3176ZM159.527 85.7223L141.131 75.1011L122.734 85.7223V106.965L141.131 117.586L159.527 106.965V85.7223Z" fill="#0C0C0C"/>
<path d="M141.131 70.2915L141.631 69.4255L141.131 69.1368L140.631 69.4255L141.131 70.2915ZM163.693 83.3176H164.693V82.7402L164.193 82.4516L163.693 83.3176ZM118.569 83.3176L118.069 82.4516L117.569 82.7402V83.3176H118.569ZM118.569 109.37H117.569V109.947L118.069 110.236L118.569 109.37ZM141.131 122.396L140.631 123.262L141.131 123.551L141.631 123.262L141.131 122.396ZM163.693 109.37L164.193 110.236L164.693 109.947V109.37H163.693ZM141.131 75.1011L141.631 74.235L141.131 73.9464L140.631 74.235L141.131 75.1011ZM159.527 85.7223H160.527V85.145L160.027 84.8563L159.527 85.7223ZM122.734 85.7223L122.234 84.8563L121.734 85.145V85.7223H122.734ZM122.734 106.965H121.734V107.542L122.234 107.831L122.734 106.965ZM141.131 117.586L140.631 118.452L141.131 118.741L141.631 118.452L141.131 117.586ZM159.527 106.965L160.027 107.831L160.527 107.542V106.965H159.527ZM140.631 71.1575L163.193 84.1836L164.193 82.4516L141.631 69.4255L140.631 71.1575ZM119.069 84.1836L141.631 71.1575L140.631 69.4255L118.069 82.4516L119.069 84.1836ZM119.569 109.37V83.3176H117.569V109.37H119.569ZM141.631 121.53L119.069 108.504L118.069 110.236L140.631 123.262L141.631 121.53ZM163.193 108.504L140.631 121.53L141.631 123.262L164.193 110.236L163.193 108.504ZM162.693 83.3176V109.37H164.693V83.3176H162.693ZM140.631 75.9671L159.027 86.5884L160.027 84.8563L141.631 74.235L140.631 75.9671ZM123.234 86.5884L141.631 75.9671L140.631 74.235L122.234 84.8563L123.234 86.5884ZM123.734 106.965V85.7223H121.734V106.965H123.734ZM141.631 116.72L123.234 106.099L122.234 107.831L140.631 118.452L141.631 116.72ZM159.027 106.099L140.631 116.72L141.631 118.452L160.027 107.831L159.027 106.099ZM158.527 85.7223V106.965H160.527V85.7223H158.527Z" fill="#C8C3C3" mask="url(#path-25-inside-12_22_388)"/>
<mask id="path-27-inside-13_22_388" fill="white">
<path fill-rule="evenodd" clip-rule="evenodd" d="M71.5612 83.8518L48.9994 70.8257L26.4375 83.8518V109.904L48.9994 122.93L71.5612 109.904V83.8518ZM67.3959 86.2565L48.9993 75.6353L30.6027 86.2565V107.499L48.9993 118.12L67.3959 107.499V86.2565Z"/>
</mask>
<path fill-rule="evenodd" clip-rule="evenodd" d="M71.5612 83.8518L48.9994 70.8257L26.4375 83.8518V109.904L48.9994 122.93L71.5612 109.904V83.8518ZM67.3959 86.2565L48.9993 75.6353L30.6027 86.2565V107.499L48.9993 118.12L67.3959 107.499V86.2565Z" fill="#0C0C0C"/>
<path d="M48.9994 70.8257L49.4994 69.9597L48.9994 69.671L48.4994 69.9597L48.9994 70.8257ZM71.5612 83.8518H72.5612V83.2744L72.0612 82.9857L71.5612 83.8518ZM26.4375 83.8518L25.9375 82.9857L25.4375 83.2744V83.8518H26.4375ZM26.4375 109.904H25.4375V110.481L25.9375 110.77L26.4375 109.904ZM48.9994 122.93L48.4994 123.796L48.9994 124.085L49.4994 123.796L48.9994 122.93ZM71.5612 109.904L72.0612 110.77L72.5612 110.481V109.904H71.5612ZM48.9993 75.6353L49.4993 74.7692L48.9993 74.4806L48.4993 74.7692L48.9993 75.6353ZM67.3959 86.2565H68.3959V85.6792L67.8959 85.3905L67.3959 86.2565ZM30.6027 86.2565L30.1027 85.3905L29.6027 85.6792V86.2565H30.6027ZM30.6027 107.499H29.6027V108.076L30.1027 108.365L30.6027 107.499ZM48.9993 118.12L48.4993 118.986L48.9993 119.275L49.4993 118.986L48.9993 118.12ZM67.3959 107.499L67.8959 108.365L68.3959 108.076V107.499H67.3959ZM48.4994 71.6917L71.0612 84.7178L72.0612 82.9857L49.4994 69.9597L48.4994 71.6917ZM26.9375 84.7178L49.4994 71.6917L48.4994 69.9597L25.9375 82.9857L26.9375 84.7178ZM27.4375 109.904V83.8518H25.4375V109.904H27.4375ZM49.4994 122.064L26.9375 109.038L25.9375 110.77L48.4994 123.796L49.4994 122.064ZM71.0612 109.038L48.4994 122.064L49.4994 123.796L72.0612 110.77L71.0612 109.038ZM70.5612 83.8518V109.904H72.5612V83.8518H70.5612ZM48.4993 76.5013L66.8959 87.1225L67.8959 85.3905L49.4993 74.7692L48.4993 76.5013ZM31.1027 87.1225L49.4993 76.5013L48.4993 74.7692L30.1027 85.3905L31.1027 87.1225ZM31.6027 107.499V86.2565H29.6027V107.499H31.6027ZM49.4993 117.254L31.1027 106.633L30.1027 108.365L48.4993 118.986L49.4993 117.254ZM66.8959 106.633L48.4993 117.254L49.4993 118.986L67.8959 108.365L66.8959 106.633ZM66.3959 86.2565V107.499H68.3959V86.2565H66.3959Z" fill="#C8C3C3" mask="url(#path-27-inside-13_22_388)"/>
<mask id="path-29-inside-14_22_388" fill="white">
<path fill-rule="evenodd" clip-rule="evenodd" d="M140.686 123.932L118.125 110.906L95.5627 123.932V149.984L118.125 163.01L140.686 149.984V123.932ZM136.521 126.337L118.125 115.716L99.728 126.337V147.579L118.125 158.201L136.521 147.579V126.337Z"/>
</mask>
<path fill-rule="evenodd" clip-rule="evenodd" d="M140.686 123.932L118.125 110.906L95.5627 123.932V149.984L118.125 163.01L140.686 149.984V123.932ZM136.521 126.337L118.125 115.716L99.728 126.337V147.579L118.125 158.201L136.521 147.579V126.337Z" fill="#1A1918"/>
<path d="M118.125 110.906L118.625 110.04L118.125 109.751L117.625 110.04L118.125 110.906ZM140.686 123.932H141.686V123.354L141.186 123.066L140.686 123.932ZM95.5627 123.932L95.0627 123.066L94.5627 123.354V123.932H95.5627ZM95.5627 149.984H94.5627V150.561L95.0627 150.85L95.5627 149.984ZM118.125 163.01L117.625 163.876L118.125 164.165L118.625 163.876L118.125 163.01ZM140.686 149.984L141.186 150.85L141.686 150.561V149.984H140.686ZM118.125 115.716L118.625 114.85L118.125 114.561L117.625 114.85L118.125 115.716ZM136.521 126.337H137.521V125.759L137.021 125.471L136.521 126.337ZM99.728 126.337L99.228 125.471L98.728 125.759V126.337H99.728ZM99.728 147.579H98.728V148.157L99.228 148.445L99.728 147.579ZM118.125 158.201L117.625 159.067L118.125 159.355L118.625 159.067L118.125 158.201ZM136.521 147.579L137.021 148.445L137.521 148.157V147.579H136.521ZM117.625 111.772L140.186 124.798L141.186 123.066L118.625 110.04L117.625 111.772ZM96.0627 124.798L118.625 111.772L117.625 110.04L95.0627 123.066L96.0627 124.798ZM96.5627 149.984V123.932H94.5627V149.984H96.5627ZM118.625 162.144L96.0627 149.118L95.0627 150.85L117.625 163.876L118.625 162.144ZM140.186 149.118L117.625 162.144L118.625 163.876L141.186 150.85L140.186 149.118ZM139.686 123.932V149.984H141.686V123.932H139.686ZM117.625 116.582L136.021 127.203L137.021 125.471L118.625 114.85L117.625 116.582ZM100.228 127.203L118.625 116.582L117.625 114.85L99.228 125.471L100.228 127.203ZM100.728 147.579V126.337H98.728V147.579H100.728ZM118.625 157.335L100.228 146.713L99.228 148.445L117.625 159.067L118.625 157.335ZM136.021 146.713L117.625 157.335L118.625 159.067L137.021 148.445L136.021 146.713ZM135.521 126.337V147.579H137.521V126.337H135.521Z" fill="#C8C3C3" mask="url(#path-29-inside-14_22_388)"/>
<mask id="path-31-outside-15_22_388" maskUnits="userSpaceOnUse" x="63.3" y="123.754" width="17" height="29" fill="black">
<rect fill="white" x="63.3" y="123.754" width="17" height="29"/>
<path d="M68.5858 125.325H70.7286V127.468H68.5858V125.325ZM66.4429 125.325H68.5858V127.468H66.4429V125.325ZM66.4429 127.468H68.5858V129.611H66.4429V127.468ZM68.5858 127.468H70.7286V129.611H68.5858V127.468ZM70.7286 127.468H72.8715V129.611H70.7286V127.468ZM70.7286 125.325H72.8715V127.468H70.7286V125.325ZM72.8715 125.325H75.0143V127.468H72.8715V125.325ZM75.0143 125.325H77.1572V127.468H75.0143V125.325ZM75.0143 127.468H77.1572V129.611H75.0143V127.468ZM72.8715 127.468H75.0143V129.611H72.8715V127.468ZM72.8715 129.611H75.0143V131.754H72.8715V129.611ZM75.0143 129.611H77.1572V131.754H75.0143V129.611ZM77.1572 127.468H79.3V129.611H77.1572V127.468ZM77.1572 129.611H79.3V131.754H77.1572V129.611ZM77.1572 131.754H79.3V133.897H77.1572V131.754ZM77.1572 133.897H79.3V136.04H77.1572V133.897ZM77.1572 136.04H79.3V138.182H77.1572V136.04ZM77.1572 138.182H79.3V140.325H77.1572V138.182ZM77.1572 140.325H79.3V142.468H77.1572V140.325ZM77.1572 142.468H79.3V144.611H77.1572V142.468ZM75.0143 142.468H77.1572V144.611H75.0143V142.468ZM75.0143 140.325H77.1572V142.468H75.0143V140.325ZM75.0143 138.182H77.1572V140.325H75.0143V138.182ZM75.0143 136.04H77.1572V138.182H75.0143V136.04ZM75.0143 133.897H77.1572V136.04H75.0143V133.897ZM75.0143 131.754H77.1572V133.897H75.0143V131.754ZM72.8715 140.325H75.0143V142.468H72.8715V140.325ZM72.8715 142.468H75.0143V144.611H72.8715V142.468ZM72.8715 144.611H75.0143V146.754H72.8715V144.611ZM70.7286 144.611H72.8715V146.754H70.7286V144.611ZM70.7286 142.468H72.8715V144.611H70.7286V142.468ZM68.5858 144.611H70.7286V146.754H68.5858V144.611ZM66.4429 144.611H68.5858V146.754H66.4429V144.611ZM66.4429 142.468H68.5858V144.611H66.4429V142.468ZM68.5858 142.468H70.7286V144.611H68.5858V142.468ZM68.5858 140.325H70.7286V142.468H68.5858V140.325ZM66.4429 140.325H68.5858V142.468H66.4429V140.325ZM64.3 142.468H66.4429V144.611H64.3V142.468ZM64.3 140.325H66.4429V142.468H64.3V140.325ZM64.3 138.182H66.4429V140.325H64.3V138.182ZM64.3 136.04H66.4429V138.182H64.3V136.04ZM64.3 133.897H66.4429V136.04H64.3V133.897ZM64.3 131.754H66.4429V133.897H64.3V131.754ZM64.3 129.611H66.4429V131.754H64.3V129.611ZM66.4429 129.611H68.5858V131.754H66.4429V129.611ZM64.3 127.468H66.4429V129.611H64.3V127.468ZM68.5858 129.611H70.7286V131.754H68.5858V129.611ZM66.4429 131.754H68.5858V133.897H66.4429V131.754ZM66.4429 133.897H68.5858V136.04H66.4429V133.897ZM66.4429 136.04H68.5858V138.182H66.4429V136.04ZM66.4429 138.182H68.5858V140.325H66.4429V138.182ZM70.7286 146.754H72.8715V148.897H70.7286V146.754ZM72.8715 146.754H75.0143V148.897H72.8715V146.754ZM75.0143 146.754H77.1572V148.897H75.0143V146.754ZM72.8715 148.897H75.0143V151.04H72.8715V148.897ZM75.0143 148.897H77.1572V151.04H75.0143V148.897ZM77.1572 148.897H79.3V151.04H77.1572V148.897ZM77.1572 146.754H79.3V148.897H77.1572V146.754Z"/>
</mask>
<path d="M68.5858 125.325H70.7286V127.468H68.5858V125.325ZM66.4429 125.325H68.5858V127.468H66.4429V125.325ZM66.4429 127.468H68.5858V129.611H66.4429V127.468ZM68.5858 127.468H70.7286V129.611H68.5858V127.468ZM70.7286 127.468H72.8715V129.611H70.7286V127.468ZM70.7286 125.325H72.8715V127.468H70.7286V125.325ZM72.8715 125.325H75.0143V127.468H72.8715V125.325ZM75.0143 125.325H77.1572V127.468H75.0143V125.325ZM75.0143 127.468H77.1572V129.611H75.0143V127.468ZM72.8715 127.468H75.0143V129.611H72.8715V127.468ZM72.8715 129.611H75.0143V131.754H72.8715V129.611ZM75.0143 129.611H77.1572V131.754H75.0143V129.611ZM77.1572 127.468H79.3V129.611H77.1572V127.468ZM77.1572 129.611H79.3V131.754H77.1572V129.611ZM77.1572 131.754H79.3V133.897H77.1572V131.754ZM77.1572 133.897H79.3V136.04H77.1572V133.897ZM77.1572 136.04H79.3V138.182H77.1572V136.04ZM77.1572 138.182H79.3V140.325H77.1572V138.182ZM77.1572 140.325H79.3V142.468H77.1572V140.325ZM77.1572 142.468H79.3V144.611H77.1572V142.468ZM75.0143 142.468H77.1572V144.611H75.0143V142.468ZM75.0143 140.325H77.1572V142.468H75.0143V140.325ZM75.0143 138.182H77.1572V140.325H75.0143V138.182ZM75.0143 136.04H77.1572V138.182H75.0143V136.04ZM75.0143 133.897H77.1572V136.04H75.0143V133.897ZM75.0143 131.754H77.1572V133.897H75.0143V131.754ZM72.8715 140.325H75.0143V142.468H72.8715V140.325ZM72.8715 142.468H75.0143V144.611H72.8715V142.468ZM72.8715 144.611H75.0143V146.754H72.8715V144.611ZM70.7286 144.611H72.8715V146.754H70.7286V144.611ZM70.7286 142.468H72.8715V144.611H70.7286V142.468ZM68.5858 144.611H70.7286V146.754H68.5858V144.611ZM66.4429 144.611H68.5858V146.754H66.4429V144.611ZM66.4429 142.468H68.5858V144.611H66.4429V142.468ZM68.5858 142.468H70.7286V144.611H68.5858V142.468ZM68.5858 140.325H70.7286V142.468H68.5858V140.325ZM66.4429 140.325H68.5858V142.468H66.4429V140.325ZM64.3 142.468H66.4429V144.611H64.3V142.468ZM64.3 140.325H66.4429V142.468H64.3V140.325ZM64.3 138.182H66.4429V140.325H64.3V138.182ZM64.3 136.04H66.4429V138.182H64.3V136.04ZM64.3 133.897H66.4429V136.04H64.3V133.897ZM64.3 131.754H66.4429V133.897H64.3V131.754ZM64.3 129.611H66.4429V131.754H64.3V129.611ZM66.4429 129.611H68.5858V131.754H66.4429V129.611ZM64.3 127.468H66.4429V129.611H64.3V127.468ZM68.5858 129.611H70.7286V131.754H68.5858V129.611ZM66.4429 131.754H68.5858V133.897H66.4429V131.754ZM66.4429 133.897H68.5858V136.04H66.4429V133.897ZM66.4429 136.04H68.5858V138.182H66.4429V136.04ZM66.4429 138.182H68.5858V140.325H66.4429V138.182ZM70.7286 146.754H72.8715V148.897H70.7286V146.754ZM72.8715 146.754H75.0143V148.897H72.8715V146.754ZM75.0143 146.754H77.1572V148.897H75.0143V146.754ZM72.8715 148.897H75.0143V151.04H72.8715V148.897ZM75.0143 148.897H77.1572V151.04H75.0143V148.897ZM77.1572 148.897H79.3V151.04H77.1572V148.897ZM77.1572 146.754H79.3V148.897H77.1572V146.754Z" fill="#CCB928"/>
<path d="M68.5858 125.325V124.325H67.5858V125.325H68.5858ZM70.7286 125.325H71.7286V124.325H70.7286V125.325ZM70.7286 127.468V128.468H71.7286V127.468H70.7286ZM68.5858 127.468H67.5858V128.468H68.5858V127.468ZM66.4429 125.325V124.325H65.4429V125.325H66.4429ZM68.5858 125.325H69.5858V124.325H68.5858V125.325ZM68.5858 127.468V128.468H69.5858V127.468H68.5858ZM66.4429 127.468H65.4429V128.468H66.4429V127.468ZM66.4429 127.468V126.468H65.4429V127.468H66.4429ZM68.5858 127.468H69.5858V126.468H68.5858V127.468ZM68.5858 129.611V130.611H69.5858V129.611H68.5858ZM66.4429 129.611H65.4429V130.611H66.4429V129.611ZM68.5858 127.468V126.468H67.5858V127.468H68.5858ZM70.7286 127.468H71.7286V126.468H70.7286V127.468ZM70.7286 129.611V130.611H71.7286V129.611H70.7286ZM68.5858 129.611H67.5858V130.611H68.5858V129.611ZM70.7286 127.468V126.468H69.7286V127.468H70.7286ZM72.8715 127.468H73.8715V126.468H72.8715V127.468ZM72.8715 129.611V130.611H73.8715V129.611H72.8715ZM70.7286 129.611H69.7286V130.611H70.7286V129.611ZM70.7286 125.325V124.325H69.7286V125.325H70.7286ZM72.8715 125.325H73.8715V124.325H72.8715V125.325ZM72.8715 127.468V128.468H73.8715V127.468H72.8715ZM70.7286 127.468H69.7286V128.468H70.7286V127.468ZM72.8715 125.325V124.325H71.8715V125.325H72.8715ZM75.0143 125.325H76.0143V124.325H75.0143V125.325ZM75.0143 127.468V128.468H76.0143V127.468H75.0143ZM72.8715 127.468H71.8715V128.468H72.8715V127.468ZM75.0143 125.325V124.325H74.0143V125.325H75.0143ZM77.1572 125.325H78.1572V124.325H77.1572V125.325ZM77.1572 127.468V128.468H78.1572V127.468H77.1572ZM75.0143 127.468H74.0143V128.468H75.0143V127.468ZM75.0143 127.468V126.468H74.0143V127.468H75.0143ZM77.1572 127.468H78.1572V126.468H77.1572V127.468ZM77.1572 129.611V130.611H78.1572V129.611H77.1572ZM75.0143 129.611H74.0143V130.611H75.0143V129.611ZM72.8715 127.468V126.468H71.8715V127.468H72.8715ZM75.0143 127.468H76.0143V126.468H75.0143V127.468ZM75.0143 129.611V130.611H76.0143V129.611H75.0143ZM72.8715 129.611H71.8715V130.611H72.8715V129.611ZM72.8715 129.611V128.611H71.8715V129.611H72.8715ZM75.0143 129.611H76.0143V128.611H75.0143V129.611ZM75.0143 131.754V132.754H76.0143V131.754H75.0143ZM72.8715 131.754H71.8715V132.754H72.8715V131.754ZM75.0143 129.611V128.611H74.0143V129.611H75.0143ZM77.1572 129.611H78.1572V128.611H77.1572V129.611ZM77.1572 131.754V132.754H78.1572V131.754H77.1572ZM75.0143 131.754H74.0143V132.754H75.0143V131.754ZM77.1572 127.468V126.468H76.1572V127.468H77.1572ZM79.3 127.468H80.3V126.468H79.3V127.468ZM79.3 129.611V130.611H80.3V129.611H79.3ZM77.1572 129.611H76.1572V130.611H77.1572V129.611ZM77.1572 129.611V128.611H76.1572V129.611H77.1572ZM79.3 129.611H80.3V128.611H79.3V129.611ZM79.3 131.754V132.754H80.3V131.754H79.3ZM77.1572 131.754H76.1572V132.754H77.1572V131.754ZM77.1572 131.754V130.754H76.1572V131.754H77.1572ZM79.3 131.754H80.3V130.754H79.3V131.754ZM79.3 133.897V134.897H80.3V133.897H79.3ZM77.1572 133.897H76.1572V134.897H77.1572V133.897ZM77.1572 133.897V132.897H76.1572V133.897H77.1572ZM79.3 133.897H80.3V132.897H79.3V133.897ZM79.3 136.04V137.04H80.3V136.04H79.3ZM77.1572 136.04H76.1572V137.04H77.1572V136.04ZM77.1572 136.04V135.04H76.1572V136.04H77.1572ZM79.3 136.04H80.3V135.04H79.3V136.04ZM79.3 138.182V139.182H80.3V138.182H79.3ZM77.1572 138.182H76.1572V139.182H77.1572V138.182ZM77.1572 138.182V137.182H76.1572V138.182H77.1572ZM79.3 138.182H80.3V137.182H79.3V138.182ZM79.3 140.325V141.325H80.3V140.325H79.3ZM77.1572 140.325H76.1572V141.325H77.1572V140.325ZM77.1572 140.325V139.325H76.1572V140.325H77.1572ZM79.3 140.325H80.3V139.325H79.3V140.325ZM79.3 142.468V143.468H80.3V142.468H79.3ZM77.1572 142.468H76.1572V143.468H77.1572V142.468ZM77.1572 142.468V141.468H76.1572V142.468H77.1572ZM79.3 142.468H80.3V141.468H79.3V142.468ZM79.3 144.611V145.611H80.3V144.611H79.3ZM77.1572 144.611H76.1572V145.611H77.1572V144.611ZM75.0143 142.468V141.468H74.0143V142.468H75.0143ZM77.1572 142.468H78.1572V141.468H77.1572V142.468ZM77.1572 144.611V145.611H78.1572V144.611H77.1572ZM75.0143 144.611H74.0143V145.611H75.0143V144.611ZM75.0143 140.325V139.325H74.0143V140.325H75.0143ZM77.1572 140.325H78.1572V139.325H77.1572V140.325ZM77.1572 142.468V143.468H78.1572V142.468H77.1572ZM75.0143 142.468H74.0143V143.468H75.0143V142.468ZM75.0143 138.182V137.182H74.0143V138.182H75.0143ZM77.1572 138.182H78.1572V137.182H77.1572V138.182ZM77.1572 140.325V141.325H78.1572V140.325H77.1572ZM75.0143 140.325H74.0143V141.325H75.0143V140.325ZM75.0143 136.04V135.04H74.0143V136.04H75.0143ZM77.1572 136.04H78.1572V135.04H77.1572V136.04ZM77.1572 138.182V139.182H78.1572V138.182H77.1572ZM75.0143 138.182H74.0143V139.182H75.0143V138.182ZM75.0143 133.897V132.897H74.0143V133.897H75.0143ZM77.1572 133.897H78.1572V132.897H77.1572V133.897ZM77.1572 136.04V137.04H78.1572V136.04H77.1572ZM75.0143 136.04H74.0143V137.04H75.0143V136.04ZM75.0143 131.754V130.754H74.0143V131.754H75.0143ZM77.1572 131.754H78.1572V130.754H77.1572V131.754ZM77.1572 133.897V134.897H78.1572V133.897H77.1572ZM75.0143 133.897H74.0143V134.897H75.0143V133.897ZM72.8715 140.325V139.325H71.8715V140.325H72.8715ZM75.0143 140.325H76.0143V139.325H75.0143V140.325ZM75.0143 142.468V143.468H76.0143V142.468H75.0143ZM72.8715 142.468H71.8715V143.468H72.8715V142.468ZM72.8715 142.468V141.468H71.8715V142.468H72.8715ZM75.0143 142.468H76.0143V141.468H75.0143V142.468ZM75.0143 144.611V145.611H76.0143V144.611H75.0143ZM72.8715 144.611H71.8715V145.611H72.8715V144.611ZM72.8715 144.611V143.611H71.8715V144.611H72.8715ZM75.0143 144.611H76.0143V143.611H75.0143V144.611ZM75.0143 146.754V147.754H76.0143V146.754H75.0143ZM72.8715 146.754H71.8715V147.754H72.8715V146.754ZM70.7286 144.611V143.611H69.7286V144.611H70.7286ZM72.8715 144.611H73.8715V143.611H72.8715V144.611ZM72.8715 146.754V147.754H73.8715V146.754H72.8715ZM70.7286 146.754H69.7286V147.754H70.7286V146.754ZM70.7286 142.468V141.468H69.7286V142.468H70.7286ZM72.8715 142.468H73.8715V141.468H72.8715V142.468ZM72.8715 144.611V145.611H73.8715V144.611H72.8715ZM70.7286 144.611H69.7286V145.611H70.7286V144.611ZM68.5858 144.611V143.611H67.5858V144.611H68.5858ZM70.7286 144.611H71.7286V143.611H70.7286V144.611ZM70.7286 146.754V147.754H71.7286V146.754H70.7286ZM68.5858 146.754H67.5858V147.754H68.5858V146.754ZM66.4429 144.611V143.611H65.4429V144.611H66.4429ZM68.5858 144.611H69.5858V143.611H68.5858V144.611ZM68.5858 146.754V147.754H69.5858V146.754H68.5858ZM66.4429 146.754H65.4429V147.754H66.4429V146.754ZM66.4429 142.468V141.468H65.4429V142.468H66.4429ZM68.5858 142.468H69.5858V141.468H68.5858V142.468ZM68.5858 144.611V145.611H69.5858V144.611H68.5858ZM66.4429 144.611H65.4429V145.611H66.4429V144.611ZM68.5858 142.468V141.468H67.5858V142.468H68.5858ZM70.7286 142.468H71.7286V141.468H70.7286V142.468ZM70.7286 144.611V145.611H71.7286V144.611H70.7286ZM68.5858 144.611H67.5858V145.611H68.5858V144.611ZM68.5858 140.325V139.325H67.5858V140.325H68.5858ZM70.7286 140.325H71.7286V139.325H70.7286V140.325ZM70.7286 142.468V143.468H71.7286V142.468H70.7286ZM68.5858 142.468H67.5858V143.468H68.5858V142.468ZM66.4429 140.325V139.325H65.4429V140.325H66.4429ZM68.5858 140.325H69.5858V139.325H68.5858V140.325ZM68.5858 142.468V143.468H69.5858V142.468H68.5858ZM66.4429 142.468H65.4429V143.468H66.4429V142.468ZM64.3 142.468V141.468H63.3V142.468H64.3ZM66.4429 142.468H67.4429V141.468H66.4429V142.468ZM66.4429 144.611V145.611H67.4429V144.611H66.4429ZM64.3 144.611H63.3V145.611H64.3V144.611ZM64.3 140.325V139.325H63.3V140.325H64.3ZM66.4429 140.325H67.4429V139.325H66.4429V140.325ZM66.4429 142.468V143.468H67.4429V142.468H66.4429ZM64.3 142.468H63.3V143.468H64.3V142.468ZM64.3 138.182V137.182H63.3V138.182H64.3ZM66.4429 138.182H67.4429V137.182H66.4429V138.182ZM66.4429 140.325V141.325H67.4429V140.325H66.4429ZM64.3 140.325H63.3V141.325H64.3V140.325ZM64.3 136.04V135.04H63.3V136.04H64.3ZM66.4429 136.04H67.4429V135.04H66.4429V136.04ZM66.4429 138.182V139.182H67.4429V138.182H66.4429ZM64.3 138.182H63.3V139.182H64.3V138.182ZM64.3 133.897V132.897H63.3V133.897H64.3ZM66.4429 133.897H67.4429V132.897H66.4429V133.897ZM66.4429 136.04V137.04H67.4429V136.04H66.4429ZM64.3 136.04H63.3V137.04H64.3V136.04ZM64.3 131.754V130.754H63.3V131.754H64.3ZM66.4429 131.754H67.4429V130.754H66.4429V131.754ZM66.4429 133.897V134.897H67.4429V133.897H66.4429ZM64.3 133.897H63.3V134.897H64.3V133.897ZM64.3 129.611V128.611H63.3V129.611H64.3ZM66.4429 129.611H67.4429V128.611H66.4429V129.611ZM66.4429 131.754V132.754H67.4429V131.754H66.4429ZM64.3 131.754H63.3V132.754H64.3V131.754ZM66.4429 129.611V128.611H65.4429V129.611H66.4429ZM68.5858 129.611H69.5858V128.611H68.5858V129.611ZM68.5858 131.754V132.754H69.5858V131.754H68.5858ZM66.4429 131.754H65.4429V132.754H66.4429V131.754ZM64.3 127.468V126.468H63.3V127.468H64.3ZM66.4429 127.468H67.4429V126.468H66.4429V127.468ZM66.4429 129.611V130.611H67.4429V129.611H66.4429ZM64.3 129.611H63.3V130.611H64.3V129.611ZM68.5858 129.611V128.611H67.5858V129.611H68.5858ZM70.7286 129.611H71.7286V128.611H70.7286V129.611ZM70.7286 131.754V132.754H71.7286V131.754H70.7286ZM68.5858 131.754H67.5858V132.754H68.5858V131.754ZM66.4429 131.754V130.754H65.4429V131.754H66.4429ZM68.5858 131.754H69.5858V130.754H68.5858V131.754ZM68.5858 133.897V134.897H69.5858V133.897H68.5858ZM66.4429 133.897H65.4429V134.897H66.4429V133.897ZM66.4429 133.897V132.897H65.4429V133.897H66.4429ZM68.5858 133.897H69.5858V132.897H68.5858V133.897ZM68.5858 136.04V137.04H69.5858V136.04H68.5858ZM66.4429 136.04H65.4429V137.04H66.4429V136.04ZM66.4429 136.04V135.04H65.4429V136.04H66.4429ZM68.5858 136.04H69.5858V135.04H68.5858V136.04ZM68.5858 138.182V139.182H69.5858V138.182H68.5858ZM66.4429 138.182H65.4429V139.182H66.4429V138.182ZM66.4429 138.182V137.182H65.4429V138.182H66.4429ZM68.5858 138.182H69.5858V137.182H68.5858V138.182ZM68.5858 140.325V141.325H69.5858V140.325H68.5858ZM66.4429 140.325H65.4429V141.325H66.4429V140.325ZM70.7286 146.754V145.754H69.7286V146.754H70.7286ZM72.8715 146.754H73.8715V145.754H72.8715V146.754ZM72.8715 148.897V149.897H73.8715V148.897H72.8715ZM70.7286 148.897H69.7286V149.897H70.7286V148.897ZM72.8715 146.754V145.754H71.8715V146.754H72.8715ZM75.0143 146.754H76.0143V145.754H75.0143V146.754ZM75.0143 148.897V149.897H76.0143V148.897H75.0143ZM72.8715 148.897H71.8715V149.897H72.8715V148.897ZM75.0143 146.754V145.754H74.0143V146.754H75.0143ZM77.1572 146.754H78.1572V145.754H77.1572V146.754ZM77.1572 148.897V149.897H78.1572V148.897H77.1572ZM75.0143 148.897H74.0143V149.897H75.0143V148.897ZM72.8715 148.897V147.897H71.8715V148.897H72.8715ZM75.0143 148.897H76.0143V147.897H75.0143V148.897ZM75.0143 151.04V152.04H76.0143V151.04H75.0143ZM72.8715 151.04H71.8715V152.04H72.8715V151.04ZM75.0143 148.897V147.897H74.0143V148.897H75.0143ZM77.1572 148.897H78.1572V147.897H77.1572V148.897ZM77.1572 151.04V152.04H78.1572V151.04H77.1572ZM75.0143 151.04H74.0143V152.04H75.0143V151.04ZM77.1572 148.897V147.897H76.1572V148.897H77.1572ZM79.3 148.897H80.3V147.897H79.3V148.897ZM79.3 151.04V152.04H80.3V151.04H79.3ZM77.1572 151.04H76.1572V152.04H77.1572V151.04ZM77.1572 146.754V145.754H76.1572V146.754H77.1572ZM79.3 146.754H80.3V145.754H79.3V146.754ZM79.3 148.897V149.897H80.3V148.897H79.3ZM77.1572 148.897H76.1572V149.897H77.1572V148.897ZM68.5858 126.325H70.7286V124.325H68.5858V126.325ZM69.7286 125.325V127.468H71.7286V125.325H69.7286ZM70.7286 126.468H68.5858V128.468H70.7286V126.468ZM69.5858 127.468V125.325H67.5858V127.468H69.5858ZM66.4429 126.325H68.5858V124.325H66.4429V126.325ZM67.5858 125.325V127.468H69.5858V125.325H67.5858ZM68.5858 126.468H66.4429V128.468H68.5858V126.468ZM67.4429 127.468V125.325H65.4429V127.468H67.4429ZM66.4429 128.468H68.5858V126.468H66.4429V128.468ZM67.5858 127.468V129.611H69.5858V127.468H67.5858ZM68.5858 128.611H66.4429V130.611H68.5858V128.611ZM67.4429 129.611V127.468H65.4429V129.611H67.4429ZM68.5858 128.468H70.7286V126.468H68.5858V128.468ZM69.7286 127.468V129.611H71.7286V127.468H69.7286ZM70.7286 128.611H68.5858V130.611H70.7286V128.611ZM69.5858 129.611V127.468H67.5858V129.611H69.5858ZM70.7286 128.468H72.8715V126.468H70.7286V128.468ZM71.8715 127.468V129.611H73.8715V127.468H71.8715ZM72.8715 128.611H70.7286V130.611H72.8715V128.611ZM71.7286 129.611V127.468H69.7286V129.611H71.7286ZM70.7286 126.325H72.8715V124.325H70.7286V126.325ZM71.8715 125.325V127.468H73.8715V125.325H71.8715ZM72.8715 126.468H70.7286V128.468H72.8715V126.468ZM71.7286 127.468V125.325H69.7286V127.468H71.7286ZM72.8715 126.325H75.0143V124.325H72.8715V126.325ZM74.0143 125.325V127.468H76.0143V125.325H74.0143ZM75.0143 126.468H72.8715V128.468H75.0143V126.468ZM73.8715 127.468V125.325H71.8715V127.468H73.8715ZM75.0143 126.325H77.1572V124.325H75.0143V126.325ZM76.1572 125.325V127.468H78.1572V125.325H76.1572ZM77.1572 126.468H75.0143V128.468H77.1572V126.468ZM76.0143 127.468V125.325H74.0143V127.468H76.0143ZM75.0143 128.468H77.1572V126.468H75.0143V128.468ZM76.1572 127.468V129.611H78.1572V127.468H76.1572ZM77.1572 128.611H75.0143V130.611H77.1572V128.611ZM76.0143 129.611V127.468H74.0143V129.611H76.0143ZM72.8715 128.468H75.0143V126.468H72.8715V128.468ZM74.0143 127.468V129.611H76.0143V127.468H74.0143ZM75.0143 128.611H72.8715V130.611H75.0143V128.611ZM73.8715 129.611V127.468H71.8715V129.611H73.8715ZM72.8715 130.611H75.0143V128.611H72.8715V130.611ZM74.0143 129.611V131.754H76.0143V129.611H74.0143ZM75.0143 130.754H72.8715V132.754H75.0143V130.754ZM73.8715 131.754V129.611H71.8715V131.754H73.8715ZM75.0143 130.611H77.1572V128.611H75.0143V130.611ZM76.1572 129.611V131.754H78.1572V129.611H76.1572ZM77.1572 130.754H75.0143V132.754H77.1572V130.754ZM76.0143 131.754V129.611H74.0143V131.754H76.0143ZM77.1572 128.468H79.3V126.468H77.1572V128.468ZM78.3 127.468V129.611H80.3V127.468H78.3ZM79.3 128.611H77.1572V130.611H79.3V128.611ZM78.1572 129.611V127.468H76.1572V129.611H78.1572ZM77.1572 130.611H79.3V128.611H77.1572V130.611ZM78.3 129.611V131.754H80.3V129.611H78.3ZM79.3 130.754H77.1572V132.754H79.3V130.754ZM78.1572 131.754V129.611H76.1572V131.754H78.1572ZM77.1572 132.754H79.3V130.754H77.1572V132.754ZM78.3 131.754V133.897H80.3V131.754H78.3ZM79.3 132.897H77.1572V134.897H79.3V132.897ZM78.1572 133.897V131.754H76.1572V133.897H78.1572ZM77.1572 134.897H79.3V132.897H77.1572V134.897ZM78.3 133.897V136.04H80.3V133.897H78.3ZM79.3 135.04H77.1572V137.04H79.3V135.04ZM78.1572 136.04V133.897H76.1572V136.04H78.1572ZM77.1572 137.04H79.3V135.04H77.1572V137.04ZM78.3 136.04V138.182H80.3V136.04H78.3ZM79.3 137.182H77.1572V139.182H79.3V137.182ZM78.1572 138.182V136.04H76.1572V138.182H78.1572ZM77.1572 139.182H79.3V137.182H77.1572V139.182ZM78.3 138.182V140.325H80.3V138.182H78.3ZM79.3 139.325H77.1572V141.325H79.3V139.325ZM78.1572 140.325V138.182H76.1572V140.325H78.1572ZM77.1572 141.325H79.3V139.325H77.1572V141.325ZM78.3 140.325V142.468H80.3V140.325H78.3ZM79.3 141.468H77.1572V143.468H79.3V141.468ZM78.1572 142.468V140.325H76.1572V142.468H78.1572ZM77.1572 143.468H79.3V141.468H77.1572V143.468ZM78.3 142.468V144.611H80.3V142.468H78.3ZM79.3 143.611H77.1572V145.611H79.3V143.611ZM78.1572 144.611V142.468H76.1572V144.611H78.1572ZM75.0143 143.468H77.1572V141.468H75.0143V143.468ZM76.1572 142.468V144.611H78.1572V142.468H76.1572ZM77.1572 143.611H75.0143V145.611H77.1572V143.611ZM76.0143 144.611V142.468H74.0143V144.611H76.0143ZM75.0143 141.325H77.1572V139.325H75.0143V141.325ZM76.1572 140.325V142.468H78.1572V140.325H76.1572ZM77.1572 141.468H75.0143V143.468H77.1572V141.468ZM76.0143 142.468V140.325H74.0143V142.468H76.0143ZM75.0143 139.182H77.1572V137.182H75.0143V139.182ZM76.1572 138.182V140.325H78.1572V138.182H76.1572ZM77.1572 139.325H75.0143V141.325H77.1572V139.325ZM76.0143 140.325V138.182H74.0143V140.325H76.0143ZM75.0143 137.04H77.1572V135.04H75.0143V137.04ZM76.1572 136.04V138.182H78.1572V136.04H76.1572ZM77.1572 137.182H75.0143V139.182H77.1572V137.182ZM76.0143 138.182V136.04H74.0143V138.182H76.0143ZM75.0143 134.897H77.1572V132.897H75.0143V134.897ZM76.1572 133.897V136.04H78.1572V133.897H76.1572ZM77.1572 135.04H75.0143V137.04H77.1572V135.04ZM76.0143 136.04V133.897H74.0143V136.04H76.0143ZM75.0143 132.754H77.1572V130.754H75.0143V132.754ZM76.1572 131.754V133.897H78.1572V131.754H76.1572ZM77.1572 132.897H75.0143V134.897H77.1572V132.897ZM76.0143 133.897V131.754H74.0143V133.897H76.0143ZM72.8715 141.325H75.0143V139.325H72.8715V141.325ZM74.0143 140.325V142.468H76.0143V140.325H74.0143ZM75.0143 141.468H72.8715V143.468H75.0143V141.468ZM73.8715 142.468V140.325H71.8715V142.468H73.8715ZM72.8715 143.468H75.0143V141.468H72.8715V143.468ZM74.0143 142.468V144.611H76.0143V142.468H74.0143ZM75.0143 143.611H72.8715V145.611H75.0143V143.611ZM73.8715 144.611V142.468H71.8715V144.611H73.8715ZM72.8715 145.611H75.0143V143.611H72.8715V145.611ZM74.0143 144.611V146.754H76.0143V144.611H74.0143ZM75.0143 145.754H72.8715V147.754H75.0143V145.754ZM73.8715 146.754V144.611H71.8715V146.754H73.8715ZM70.7286 145.611H72.8715V143.611H70.7286V145.611ZM71.8715 144.611V146.754H73.8715V144.611H71.8715ZM72.8715 145.754H70.7286V147.754H72.8715V145.754ZM71.7286 146.754V144.611H69.7286V146.754H71.7286ZM70.7286 143.468H72.8715V141.468H70.7286V143.468ZM71.8715 142.468V144.611H73.8715V142.468H71.8715ZM72.8715 143.611H70.7286V145.611H72.8715V143.611ZM71.7286 144.611V142.468H69.7286V144.611H71.7286ZM68.5858 145.611H70.7286V143.611H68.5858V145.611ZM69.7286 144.611V146.754H71.7286V144.611H69.7286ZM70.7286 145.754H68.5858V147.754H70.7286V145.754ZM69.5858 146.754V144.611H67.5858V146.754H69.5858ZM66.4429 145.611H68.5858V143.611H66.4429V145.611ZM67.5858 144.611V146.754H69.5858V144.611H67.5858ZM68.5858 145.754H66.4429V147.754H68.5858V145.754ZM67.4429 146.754V144.611H65.4429V146.754H67.4429ZM66.4429 143.468H68.5858V141.468H66.4429V143.468ZM67.5858 142.468V144.611H69.5858V142.468H67.5858ZM68.5858 143.611H66.4429V145.611H68.5858V143.611ZM67.4429 144.611V142.468H65.4429V144.611H67.4429ZM68.5858 143.468H70.7286V141.468H68.5858V143.468ZM69.7286 142.468V144.611H71.7286V142.468H69.7286ZM70.7286 143.611H68.5858V145.611H70.7286V143.611ZM69.5858 144.611V142.468H67.5858V144.611H69.5858ZM68.5858 141.325H70.7286V139.325H68.5858V141.325ZM69.7286 140.325V142.468H71.7286V140.325H69.7286ZM70.7286 141.468H68.5858V143.468H70.7286V141.468ZM69.5858 142.468V140.325H67.5858V142.468H69.5858ZM66.4429 141.325H68.5858V139.325H66.4429V141.325ZM67.5858 140.325V142.468H69.5858V140.325H67.5858ZM68.5858 141.468H66.4429V143.468H68.5858V141.468ZM67.4429 142.468V140.325H65.4429V142.468H67.4429ZM64.3 143.468H66.4429V141.468H64.3V143.468ZM65.4429 142.468V144.611H67.4429V142.468H65.4429ZM66.4429 143.611H64.3V145.611H66.4429V143.611ZM65.3 144.611V142.468H63.3V144.611H65.3ZM64.3 141.325H66.4429V139.325H64.3V141.325ZM65.4429 140.325V142.468H67.4429V140.325H65.4429ZM66.4429 141.468H64.3V143.468H66.4429V141.468ZM65.3 142.468V140.325H63.3V142.468H65.3ZM64.3 139.182H66.4429V137.182H64.3V139.182ZM65.4429 138.182V140.325H67.4429V138.182H65.4429ZM66.4429 139.325H64.3V141.325H66.4429V139.325ZM65.3 140.325V138.182H63.3V140.325H65.3ZM64.3 137.04H66.4429V135.04H64.3V137.04ZM65.4429 136.04V138.182H67.4429V136.04H65.4429ZM66.4429 137.182H64.3V139.182H66.4429V137.182ZM65.3 138.182V136.04H63.3V138.182H65.3ZM64.3 134.897H66.4429V132.897H64.3V134.897ZM65.4429 133.897V136.04H67.4429V133.897H65.4429ZM66.4429 135.04H64.3V137.04H66.4429V135.04ZM65.3 136.04V133.897H63.3V136.04H65.3ZM64.3 132.754H66.4429V130.754H64.3V132.754ZM65.4429 131.754V133.897H67.4429V131.754H65.4429ZM66.4429 132.897H64.3V134.897H66.4429V132.897ZM65.3 133.897V131.754H63.3V133.897H65.3ZM64.3 130.611H66.4429V128.611H64.3V130.611ZM65.4429 129.611V131.754H67.4429V129.611H65.4429ZM66.4429 130.754H64.3V132.754H66.4429V130.754ZM65.3 131.754V129.611H63.3V131.754H65.3ZM66.4429 130.611H68.5858V128.611H66.4429V130.611ZM67.5858 129.611V131.754H69.5858V129.611H67.5858ZM68.5858 130.754H66.4429V132.754H68.5858V130.754ZM67.4429 131.754V129.611H65.4429V131.754H67.4429ZM64.3 128.468H66.4429V126.468H64.3V128.468ZM65.4429 127.468V129.611H67.4429V127.468H65.4429ZM66.4429 128.611H64.3V130.611H66.4429V128.611ZM65.3 129.611V127.468H63.3V129.611H65.3ZM68.5858 130.611H70.7286V128.611H68.5858V130.611ZM69.7286 129.611V131.754H71.7286V129.611H69.7286ZM70.7286 130.754H68.5858V132.754H70.7286V130.754ZM69.5858 131.754V129.611H67.5858V131.754H69.5858ZM66.4429 132.754H68.5858V130.754H66.4429V132.754ZM67.5858 131.754V133.897H69.5858V131.754H67.5858ZM68.5858 132.897H66.4429V134.897H68.5858V132.897ZM67.4429 133.897V131.754H65.4429V133.897H67.4429ZM66.4429 134.897H68.5858V132.897H66.4429V134.897ZM67.5858 133.897V136.04H69.5858V133.897H67.5858ZM68.5858 135.04H66.4429V137.04H68.5858V135.04ZM67.4429 136.04V133.897H65.4429V136.04H67.4429ZM66.4429 137.04H68.5858V135.04H66.4429V137.04ZM67.5858 136.04V138.182H69.5858V136.04H67.5858ZM68.5858 137.182H66.4429V139.182H68.5858V137.182ZM67.4429 138.182V136.04H65.4429V138.182H67.4429ZM66.4429 139.182H68.5858V137.182H66.4429V139.182ZM67.5858 138.182V140.325H69.5858V138.182H67.5858ZM68.5858 139.325H66.4429V141.325H68.5858V139.325ZM67.4429 140.325V138.182H65.4429V140.325H67.4429ZM70.7286 147.754H72.8715V145.754H70.7286V147.754ZM71.8715 146.754V148.897H73.8715V146.754H71.8715ZM72.8715 147.897H70.7286V149.897H72.8715V147.897ZM71.7286 148.897V146.754H69.7286V148.897H71.7286ZM72.8715 147.754H75.0143V145.754H72.8715V147.754ZM74.0143 146.754V148.897H76.0143V146.754H74.0143ZM75.0143 147.897H72.8715V149.897H75.0143V147.897ZM73.8715 148.897V146.754H71.8715V148.897H73.8715ZM75.0143 147.754H77.1572V145.754H75.0143V147.754ZM76.1572 146.754V148.897H78.1572V146.754H76.1572ZM77.1572 147.897H75.0143V149.897H77.1572V147.897ZM76.0143 148.897V146.754H74.0143V148.897H76.0143ZM72.8715 149.897H75.0143V147.897H72.8715V149.897ZM74.0143 148.897V151.04H76.0143V148.897H74.0143ZM75.0143 150.04H72.8715V152.04H75.0143V150.04ZM73.8715 151.04V148.897H71.8715V151.04H73.8715ZM75.0143 149.897H77.1572V147.897H75.0143V149.897ZM76.1572 148.897V151.04H78.1572V148.897H76.1572ZM77.1572 150.04H75.0143V152.04H77.1572V150.04ZM76.0143 151.04V148.897H74.0143V151.04H76.0143ZM77.1572 149.897H79.3V147.897H77.1572V149.897ZM78.3 148.897V151.04H80.3V148.897H78.3ZM79.3 150.04H77.1572V152.04H79.3V150.04ZM78.1572 151.04V148.897H76.1572V151.04H78.1572ZM77.1572 147.754H79.3V145.754H77.1572V147.754ZM78.3 146.754V148.897H80.3V146.754H78.3ZM79.3 147.897H77.1572V149.897H79.3V147.897ZM78.1572 148.897V146.754H76.1572V148.897H78.1572Z" fill="#C8C3C3" mask="url(#path-31-outside-15_22_388)"/>
</g>
</svg>
