<svg width="512" height="512" viewBox="0 0 512 512" fill="none" xmlns="http://www.w3.org/2000/svg">
<circle cx="256.25" cy="256.25" r="204.75" fill="white"/>
<mask id="path-2-inside-1_22_286" fill="white">
<path fill-rule="evenodd" clip-rule="evenodd" d="M258.236 111.736L198.071 77L137.906 111.736V181.209L198.071 215.945L258.236 181.209V111.736ZM247.129 118.149L198.071 89.8256L149.014 118.149V174.796L198.071 203.119L247.129 174.796V118.149Z"/>
</mask>
<path fill-rule="evenodd" clip-rule="evenodd" d="M258.236 111.736L198.071 77L137.906 111.736V181.209L198.071 215.945L258.236 181.209V111.736ZM247.129 118.149L198.071 89.8256L149.014 118.149V174.796L198.071 203.119L247.129 174.796V118.149Z" fill="#0F0F0F"/>
<path d="M198.071 77L198.571 76.134L198.071 75.8453L197.571 76.134L198.071 77ZM258.236 111.736H259.236V111.159L258.736 110.87L258.236 111.736ZM137.906 111.736L137.406 110.87L136.906 111.159V111.736H137.906ZM137.906 181.209H136.906V181.786L137.406 182.075L137.906 181.209ZM198.071 215.945L197.571 216.811L198.071 217.1L198.571 216.811L198.071 215.945ZM258.236 181.209L258.736 182.075L259.236 181.786V181.209H258.236ZM198.071 89.8256L198.571 88.9596L198.071 88.6709L197.571 88.9596L198.071 89.8256ZM247.129 118.149H248.129V117.572L247.629 117.283L247.129 118.149ZM149.014 118.149L148.514 117.283L148.014 117.572V118.149H149.014ZM149.014 174.796H148.014V175.373L148.514 175.662L149.014 174.796ZM198.071 203.119L197.571 203.985L198.071 204.274L198.571 203.985L198.071 203.119ZM247.129 174.796L247.629 175.662L248.129 175.373V174.796H247.129ZM197.571 77.866L257.736 112.602L258.736 110.87L198.571 76.134L197.571 77.866ZM138.406 112.602L198.571 77.866L197.571 76.134L137.406 110.87L138.406 112.602ZM138.906 181.209V111.736H136.906V181.209H138.906ZM198.571 215.079L138.406 180.343L137.406 182.075L197.571 216.811L198.571 215.079ZM257.736 180.343L197.571 215.079L198.571 216.811L258.736 182.075L257.736 180.343ZM257.236 111.736V181.209H259.236V111.736H257.236ZM197.571 90.6916L246.629 119.015L247.629 117.283L198.571 88.9596L197.571 90.6916ZM149.514 119.015L198.571 90.6916L197.571 88.9596L148.514 117.283L149.514 119.015ZM150.014 174.796V118.149H148.014V174.796H150.014ZM198.571 202.253L149.514 173.93L148.514 175.662L197.571 203.985L198.571 202.253ZM246.629 173.93L197.571 202.253L198.571 203.985L247.629 175.662L246.629 173.93ZM246.129 118.149V174.796H248.129V118.149H246.129Z" fill="black" mask="url(#path-2-inside-1_22_286)"/>
<mask id="path-4-inside-2_22_286" fill="white">
<path fill-rule="evenodd" clip-rule="evenodd" d="M379.296 111.736L319.132 77L258.967 111.736V181.209L319.132 215.945L379.296 181.209V111.736ZM368.189 118.149L319.131 89.8256L270.074 118.149V174.796L319.131 203.119L368.189 174.796V118.149Z"/>
</mask>
<path fill-rule="evenodd" clip-rule="evenodd" d="M379.296 111.736L319.132 77L258.967 111.736V181.209L319.132 215.945L379.296 181.209V111.736ZM368.189 118.149L319.131 89.8256L270.074 118.149V174.796L319.131 203.119L368.189 174.796V118.149Z" fill="#0C0C0C"/>
<path d="M319.132 77L319.632 76.134L319.132 75.8453L318.632 76.134L319.132 77ZM379.296 111.736H380.296V111.159L379.796 110.87L379.296 111.736ZM258.967 111.736L258.467 110.87L257.967 111.159V111.736H258.967ZM258.967 181.209H257.967V181.786L258.467 182.075L258.967 181.209ZM319.132 215.945L318.632 216.811L319.132 217.1L319.632 216.811L319.132 215.945ZM379.296 181.209L379.796 182.075L380.296 181.786V181.209H379.296ZM319.131 89.8256L319.631 88.9596L319.131 88.6709L318.631 88.9596L319.131 89.8256ZM368.189 118.149H369.189V117.572L368.689 117.283L368.189 118.149ZM270.074 118.149L269.574 117.283L269.074 117.572V118.149H270.074ZM270.074 174.796H269.074V175.373L269.574 175.662L270.074 174.796ZM319.131 203.119L318.631 203.985L319.131 204.274L319.631 203.985L319.131 203.119ZM368.189 174.796L368.689 175.662L369.189 175.373V174.796H368.189ZM318.632 77.866L378.796 112.602L379.796 110.87L319.632 76.134L318.632 77.866ZM259.467 112.602L319.632 77.866L318.632 76.134L258.467 110.87L259.467 112.602ZM259.967 181.209V111.736H257.967V181.209H259.967ZM319.632 215.079L259.467 180.343L258.467 182.075L318.632 216.811L319.632 215.079ZM378.796 180.343L318.632 215.079L319.632 216.811L379.796 182.075L378.796 180.343ZM378.296 111.736V181.209H380.296V111.736H378.296ZM318.631 90.6916L367.689 119.015L368.689 117.283L319.631 88.9596L318.631 90.6916ZM270.574 119.015L319.631 90.6916L318.631 88.9596L269.574 117.283L270.574 119.015ZM271.074 174.796V118.149H269.074V174.796H271.074ZM319.631 202.253L270.574 173.93L269.574 175.662L318.631 203.985L319.631 202.253ZM367.689 173.93L318.631 202.253L319.631 203.985L368.689 175.662L367.689 173.93ZM367.189 118.149V174.796H369.189V118.149H367.189Z" fill="black" mask="url(#path-4-inside-2_22_286)"/>
<mask id="path-6-inside-3_22_286" fill="white">
<path fill-rule="evenodd" clip-rule="evenodd" d="M259.59 326.21L199.425 291.474L139.26 326.21V395.682L199.425 430.419L259.59 395.682V326.21ZM248.482 332.622L199.425 304.299L150.367 332.622V389.269L199.425 417.592L248.482 389.269V332.622Z"/>
</mask>
<path fill-rule="evenodd" clip-rule="evenodd" d="M259.59 326.21L199.425 291.474L139.26 326.21V395.682L199.425 430.419L259.59 395.682V326.21ZM248.482 332.622L199.425 304.299L150.367 332.622V389.269L199.425 417.592L248.482 389.269V332.622Z" fill="#B49E2F"/>
<path d="M199.425 291.474L199.925 290.608L199.425 290.319L198.925 290.608L199.425 291.474ZM259.59 326.21H260.59V325.633L260.09 325.344L259.59 326.21ZM139.26 326.21L138.76 325.344L138.26 325.633V326.21H139.26ZM139.26 395.682H138.26V396.26L138.76 396.548L139.26 395.682ZM199.425 430.419L198.925 431.285L199.425 431.573L199.925 431.285L199.425 430.419ZM259.59 395.682L260.09 396.548L260.59 396.26V395.682H259.59ZM199.425 304.299L199.925 303.433L199.425 303.144L198.925 303.433L199.425 304.299ZM248.482 332.622H249.482V332.045L248.982 331.756L248.482 332.622ZM150.367 332.622L149.867 331.756L149.367 332.045V332.622H150.367ZM150.367 389.269H149.367V389.846L149.867 390.135L150.367 389.269ZM199.425 417.592L198.925 418.458L199.425 418.747L199.925 418.458L199.425 417.592ZM248.482 389.269L248.982 390.135L249.482 389.846V389.269H248.482ZM198.925 292.34L259.09 327.076L260.09 325.344L199.925 290.608L198.925 292.34ZM139.76 327.076L199.925 292.34L198.925 290.608L138.76 325.344L139.76 327.076ZM140.26 395.682V326.21H138.26V395.682H140.26ZM199.925 429.553L139.76 394.816L138.76 396.548L198.925 431.285L199.925 429.553ZM259.09 394.816L198.925 429.553L199.925 431.285L260.09 396.548L259.09 394.816ZM258.59 326.21V395.682H260.59V326.21H258.59ZM198.925 305.165L247.982 333.488L248.982 331.756L199.925 303.433L198.925 305.165ZM150.867 333.488L199.925 305.165L198.925 303.433L149.867 331.756L150.867 333.488ZM151.367 389.269V332.622H149.367V389.269H151.367ZM199.925 416.726L150.867 388.403L149.867 390.135L198.925 418.458L199.925 416.726ZM247.982 388.403L198.925 416.726L199.925 418.458L248.982 390.135L247.982 388.403ZM247.482 332.622V389.269H249.482V332.622H247.482Z" fill="black" mask="url(#path-6-inside-3_22_286)"/>
<mask id="path-8-inside-4_22_286" fill="white">
<path fill-rule="evenodd" clip-rule="evenodd" d="M319.158 218.617L258.993 183.881L198.828 218.617V288.09L258.993 322.826L319.158 288.09V218.617ZM308.051 225.029L258.993 196.706L209.936 225.029V281.676L258.993 309.999L308.051 281.676V225.029Z"/>
</mask>
<path fill-rule="evenodd" clip-rule="evenodd" d="M319.158 218.617L258.993 183.881L198.828 218.617V288.09L258.993 322.826L319.158 288.09V218.617ZM308.051 225.029L258.993 196.706L209.936 225.029V281.676L258.993 309.999L308.051 281.676V225.029Z" fill="#130B0B"/>
<path d="M258.993 183.881L259.493 183.015L258.993 182.726L258.493 183.015L258.993 183.881ZM319.158 218.617H320.158V218.04L319.658 217.751L319.158 218.617ZM198.828 218.617L198.328 217.751L197.828 218.04V218.617H198.828ZM198.828 288.09H197.828V288.667L198.328 288.956L198.828 288.09ZM258.993 322.826L258.493 323.692L258.993 323.98L259.493 323.692L258.993 322.826ZM319.158 288.09L319.658 288.956L320.158 288.667V288.09H319.158ZM258.993 196.706L259.493 195.84L258.993 195.551L258.493 195.84L258.993 196.706ZM308.051 225.029H309.051V224.452L308.551 224.163L308.051 225.029ZM209.936 225.029L209.436 224.163L208.936 224.452V225.029H209.936ZM209.936 281.676H208.936V282.253L209.436 282.542L209.936 281.676ZM258.993 309.999L258.493 310.865L258.993 311.154L259.493 310.865L258.993 309.999ZM308.051 281.676L308.551 282.542L309.051 282.253V281.676H308.051ZM258.493 184.747L318.658 219.483L319.658 217.751L259.493 183.015L258.493 184.747ZM199.328 219.483L259.493 184.747L258.493 183.015L198.328 217.751L199.328 219.483ZM199.828 288.09V218.617H197.828V288.09H199.828ZM259.493 321.96L199.328 287.224L198.328 288.956L258.493 323.692L259.493 321.96ZM318.658 287.224L258.493 321.96L259.493 323.692L319.658 288.956L318.658 287.224ZM318.158 218.617V288.09H320.158V218.617H318.158ZM258.493 197.572L307.551 225.895L308.551 224.163L259.493 195.84L258.493 197.572ZM210.436 225.895L259.493 197.572L258.493 195.84L209.436 224.163L210.436 225.895ZM210.936 281.676V225.029H208.936V281.676H210.936ZM259.493 309.133L210.436 280.81L209.436 282.542L258.493 310.865L259.493 309.133ZM307.551 280.81L258.493 309.133L259.493 310.865L308.551 282.542L307.551 280.81ZM307.051 225.029V281.676H309.051V225.029H307.051Z" fill="black" mask="url(#path-8-inside-4_22_286)"/>
<mask id="path-10-inside-5_22_286" fill="white">
<path fill-rule="evenodd" clip-rule="evenodd" d="M442 217.904L381.835 183.167L321.67 217.904V287.376L381.835 322.112L442 287.376V217.904ZM430.893 224.316L381.835 195.993L332.778 224.316V280.963L381.835 309.286L430.893 280.963V224.316Z"/>
</mask>
<path fill-rule="evenodd" clip-rule="evenodd" d="M442 217.904L381.835 183.167L321.67 217.904V287.376L381.835 322.112L442 287.376V217.904ZM430.893 224.316L381.835 195.993L332.778 224.316V280.963L381.835 309.286L430.893 280.963V224.316Z" fill="#0C0C0C"/>
<path d="M381.835 183.167L382.335 182.301L381.835 182.013L381.335 182.301L381.835 183.167ZM442 217.904H443V217.326L442.5 217.038L442 217.904ZM321.67 217.904L321.17 217.038L320.67 217.326V217.904H321.67ZM321.67 287.376H320.67V287.954L321.17 288.242L321.67 287.376ZM381.835 322.112L381.335 322.978L381.835 323.267L382.335 322.978L381.835 322.112ZM442 287.376L442.5 288.242L443 287.954V287.376H442ZM381.835 195.993L382.335 195.127L381.835 194.838L381.335 195.127L381.835 195.993ZM430.893 224.316H431.893V223.739L431.393 223.45L430.893 224.316ZM332.778 224.316L332.278 223.45L331.778 223.739V224.316H332.778ZM332.778 280.963H331.778V281.54L332.278 281.829L332.778 280.963ZM381.835 309.286L381.335 310.152L381.835 310.441L382.335 310.152L381.835 309.286ZM430.893 280.963L431.393 281.829L431.893 281.54V280.963H430.893ZM381.335 184.034L441.5 218.77L442.5 217.038L382.335 182.301L381.335 184.034ZM322.17 218.77L382.335 184.034L381.335 182.301L321.17 217.038L322.17 218.77ZM322.67 287.376V217.904H320.67V287.376H322.67ZM382.335 321.246L322.17 286.51L321.17 288.242L381.335 322.978L382.335 321.246ZM441.5 286.51L381.335 321.246L382.335 322.978L442.5 288.242L441.5 286.51ZM441 217.904V287.376H443V217.904H441ZM381.335 196.859L430.393 225.182L431.393 223.45L382.335 195.127L381.335 196.859ZM333.278 225.182L382.335 196.859L381.335 195.127L332.278 223.45L333.278 225.182ZM333.778 280.963V224.316H331.778V280.963H333.778ZM382.335 308.42L333.278 280.097L332.278 281.829L381.335 310.152L382.335 308.42ZM430.393 280.097L381.335 308.42L382.335 310.152L431.393 281.829L430.393 280.097ZM429.893 224.316V280.963H431.893V224.316H429.893Z" fill="black" mask="url(#path-10-inside-5_22_286)"/>
<mask id="path-12-inside-6_22_286" fill="white">
<path fill-rule="evenodd" clip-rule="evenodd" d="M196.317 219.329L136.152 184.593L75.9867 219.329V288.801L136.152 323.538L196.317 288.801V219.329ZM185.209 225.742L136.152 197.419L87.094 225.742V282.389L136.152 310.712L185.209 282.389V225.742Z"/>
</mask>
<path fill-rule="evenodd" clip-rule="evenodd" d="M196.317 219.329L136.152 184.593L75.9867 219.329V288.801L136.152 323.538L196.317 288.801V219.329ZM185.209 225.742L136.152 197.419L87.094 225.742V282.389L136.152 310.712L185.209 282.389V225.742Z" fill="#0C0C0C"/>
<path d="M136.152 184.593L136.652 183.727L136.152 183.438L135.652 183.727L136.152 184.593ZM196.317 219.329H197.317V218.752L196.817 218.463L196.317 219.329ZM75.9867 219.329L75.4867 218.463L74.9867 218.752V219.329H75.9867ZM75.9867 288.801H74.9867V289.379L75.4867 289.667L75.9867 288.801ZM136.152 323.538L135.652 324.404L136.152 324.692L136.652 324.404L136.152 323.538ZM196.317 288.801L196.817 289.667L197.317 289.379V288.801H196.317ZM136.152 197.419L136.652 196.553L136.152 196.264L135.652 196.553L136.152 197.419ZM185.209 225.742H186.209V225.165L185.709 224.876L185.209 225.742ZM87.094 225.742L86.594 224.876L86.094 225.165V225.742H87.094ZM87.094 282.389H86.094V282.966L86.594 283.255L87.094 282.389ZM136.152 310.712L135.652 311.578L136.152 311.867L136.652 311.578L136.152 310.712ZM185.209 282.389L185.709 283.255L186.209 282.966V282.389H185.209ZM135.652 185.459L195.817 220.195L196.817 218.463L136.652 183.727L135.652 185.459ZM76.4867 220.195L136.652 185.459L135.652 183.727L75.4867 218.463L76.4867 220.195ZM76.9867 288.801V219.329H74.9867V288.801H76.9867ZM136.652 322.672L76.4867 287.935L75.4867 289.667L135.652 324.404L136.652 322.672ZM195.817 287.935L135.652 322.672L136.652 324.404L196.817 289.667L195.817 287.935ZM195.317 219.329V288.801H197.317V219.329H195.317ZM135.652 198.285L184.709 226.608L185.709 224.876L136.652 196.553L135.652 198.285ZM87.594 226.608L136.652 198.285L135.652 196.553L86.594 224.876L87.594 226.608ZM88.094 282.389V225.742H86.094V282.389H88.094ZM136.652 309.846L87.594 281.523L86.594 283.255L135.652 311.578L136.652 309.846ZM184.709 281.523L135.652 309.846L136.652 311.578L185.709 283.255L184.709 281.523ZM184.209 225.742V282.389H186.209V225.742H184.209Z" fill="black" mask="url(#path-12-inside-6_22_286)"/>
<mask id="path-14-inside-7_22_286" fill="white">
<path fill-rule="evenodd" clip-rule="evenodd" d="M380.65 326.21L320.485 291.474L260.32 326.21V395.682L320.485 430.419L380.65 395.682V326.21ZM369.543 332.622L320.485 304.299L271.428 332.622V389.269L320.485 417.592L369.543 389.269V332.622Z"/>
</mask>
<path fill-rule="evenodd" clip-rule="evenodd" d="M380.65 326.21L320.485 291.474L260.32 326.21V395.682L320.485 430.419L380.65 395.682V326.21ZM369.543 332.622L320.485 304.299L271.428 332.622V389.269L320.485 417.592L369.543 389.269V332.622Z" fill="#1A1918"/>
<path d="M320.485 291.474L320.985 290.608L320.485 290.319L319.985 290.608L320.485 291.474ZM380.65 326.21H381.65V325.633L381.15 325.344L380.65 326.21ZM260.32 326.21L259.82 325.344L259.32 325.633V326.21H260.32ZM260.32 395.682H259.32V396.26L259.82 396.548L260.32 395.682ZM320.485 430.419L319.985 431.285L320.485 431.573L320.985 431.285L320.485 430.419ZM380.65 395.682L381.15 396.548L381.65 396.26V395.682H380.65ZM320.485 304.299L320.985 303.433L320.485 303.144L319.985 303.433L320.485 304.299ZM369.543 332.622H370.543V332.045L370.043 331.756L369.543 332.622ZM271.428 332.622L270.928 331.756L270.428 332.045V332.622H271.428ZM271.428 389.269H270.428V389.846L270.928 390.135L271.428 389.269ZM320.485 417.592L319.985 418.458L320.485 418.747L320.985 418.458L320.485 417.592ZM369.543 389.269L370.043 390.135L370.543 389.846V389.269H369.543ZM319.985 292.34L380.15 327.076L381.15 325.344L320.985 290.608L319.985 292.34ZM260.82 327.076L320.985 292.34L319.985 290.608L259.82 325.344L260.82 327.076ZM261.32 395.682V326.21H259.32V395.682H261.32ZM320.985 429.553L260.82 394.816L259.82 396.548L319.985 431.285L320.985 429.553ZM380.15 394.816L319.985 429.553L320.985 431.285L381.15 396.548L380.15 394.816ZM379.65 326.21V395.682H381.65V326.21H379.65ZM319.985 305.165L369.043 333.488L370.043 331.756L320.985 303.433L319.985 305.165ZM271.928 333.488L320.985 305.165L319.985 303.433L270.928 331.756L271.928 333.488ZM272.428 389.269V332.622H270.428V389.269H272.428ZM320.985 416.726L271.928 388.403L270.928 390.135L319.985 418.458L320.985 416.726ZM369.043 388.403L319.985 416.726L320.985 418.458L370.043 390.135L369.043 388.403ZM368.543 332.622V389.269H370.543V332.622H368.543Z" fill="black" mask="url(#path-14-inside-7_22_286)"/>
<path d="M188.739 330.806H194.632V336.699H188.739V330.806ZM182.846 330.806H188.739V336.699H182.846V330.806ZM182.846 336.699H188.739V342.592H182.846V336.699ZM188.739 336.699H194.632V342.592H188.739V336.699ZM194.632 336.699H200.525V342.592H194.632V336.699ZM194.632 330.806H200.525V336.699H194.632V330.806ZM200.525 330.806H206.418V336.699H200.525V330.806ZM206.418 330.806H212.31V336.699H206.418V330.806ZM206.418 336.699H212.31V342.592H206.418V336.699ZM200.525 336.699H206.418V342.592H200.525V336.699ZM200.525 342.592H206.418V348.485H200.525V342.592ZM206.418 342.592H212.31V348.485H206.418V342.592ZM212.31 336.699H218.203V342.592H212.31V336.699ZM212.31 342.592H218.203V348.485H212.31V342.592ZM212.31 348.485H218.203V354.378H212.31V348.485ZM212.31 354.378H218.203V360.271H212.31V354.378ZM212.31 360.271H218.203V366.163H212.31V360.271ZM212.31 366.163H218.203V372.056H212.31V366.163ZM212.31 372.056H218.203V377.949H212.31V372.056ZM212.31 377.949H218.203V383.842H212.31V377.949ZM206.418 377.949H212.31V383.842H206.418V377.949ZM206.418 372.056H212.31V377.949H206.418V372.056ZM206.418 366.163H212.31V372.056H206.418V366.163ZM206.418 360.271H212.31V366.163H206.418V360.271ZM206.418 354.378H212.31V360.271H206.418V354.378ZM206.418 348.485H212.31V354.378H206.418V348.485ZM200.525 372.056H206.418V377.949H200.525V372.056ZM200.525 377.949H206.418V383.842H200.525V377.949ZM200.525 383.842H206.418V389.735H200.525V383.842ZM194.632 383.842H200.525V389.735H194.632V383.842ZM194.632 377.949H200.525V383.842H194.632V377.949ZM188.739 383.842H194.632V389.735H188.739V383.842ZM182.846 383.842H188.739V389.735H182.846V383.842ZM182.846 377.949H188.739V383.842H182.846V377.949ZM188.739 377.949H194.632V383.842H188.739V377.949ZM188.739 372.056H194.632V377.949H188.739V372.056ZM182.846 372.056H188.739V377.949H182.846V372.056ZM176.953 377.949H182.846V383.842H176.953V377.949ZM176.953 372.056H182.846V377.949H176.953V372.056ZM176.953 366.163H182.846V372.056H176.953V366.163ZM176.953 360.271H182.846V366.163H176.953V360.271ZM176.953 354.378H182.846V360.271H176.953V354.378ZM176.953 348.485H182.846V354.378H176.953V348.485ZM176.953 342.592H182.846V348.485H176.953V342.592ZM182.846 342.592H188.739V348.485H182.846V342.592ZM176.953 336.699H182.846V342.592H176.953V336.699ZM188.739 342.592H194.632V348.485H188.739V342.592ZM182.846 348.485H188.739V354.378H182.846V348.485ZM182.846 354.378H188.739V360.271H182.846V354.378ZM182.846 360.271H188.739V366.163H182.846V360.271ZM182.846 366.163H188.739V372.056H182.846V366.163ZM194.632 389.735H200.525V395.628H194.632V389.735ZM200.525 389.735H206.418V395.628H200.525V389.735ZM206.418 389.735H212.31V395.628H206.418V389.735ZM200.525 395.628H206.418V401.521H200.525V395.628ZM206.418 395.628H212.31V401.521H206.418V395.628ZM212.31 395.628H218.203V401.521H212.31V395.628ZM212.31 389.735H218.203V395.628H212.31V389.735Z" fill="#CCB928"/>
<g opacity="0.2">
<mask id="path-17-inside-8_22_286" fill="white">
<path fill-rule="evenodd" clip-rule="evenodd" d="M252.749 116.012L192.584 81.2754L132.419 116.012V185.484L192.584 220.22L252.749 185.484V116.012ZM241.642 122.424L192.585 94.101L143.527 122.424V179.071L192.585 207.395L241.642 179.071V122.424Z"/>
</mask>
<path fill-rule="evenodd" clip-rule="evenodd" d="M252.749 116.012L192.584 81.2754L132.419 116.012V185.484L192.584 220.22L252.749 185.484V116.012ZM241.642 122.424L192.585 94.101L143.527 122.424V179.071L192.585 207.395L241.642 179.071V122.424Z" fill="#0F0F0F"/>
<path d="M192.584 81.2754L193.084 80.4094L192.584 80.1207L192.084 80.4094L192.584 81.2754ZM252.749 116.012H253.749V115.434L253.249 115.146L252.749 116.012ZM132.419 116.012L131.919 115.146L131.419 115.434V116.012H132.419ZM132.419 185.484H131.419V186.061L131.919 186.35L132.419 185.484ZM192.584 220.22L192.084 221.086L192.584 221.375L193.084 221.086L192.584 220.22ZM252.749 185.484L253.249 186.35L253.749 186.061V185.484H252.749ZM192.585 94.101L193.085 93.235L192.585 92.9463L192.085 93.235L192.585 94.101ZM241.642 122.424H242.642V121.847L242.142 121.558L241.642 122.424ZM143.527 122.424L143.027 121.558L142.527 121.847V122.424H143.527ZM143.527 179.071H142.527V179.649L143.027 179.937L143.527 179.071ZM192.585 207.395L192.085 208.261L192.585 208.549L193.085 208.261L192.585 207.395ZM241.642 179.071L242.142 179.937L242.642 179.649V179.071H241.642ZM192.084 82.1414L252.249 116.878L253.249 115.146L193.084 80.4094L192.084 82.1414ZM132.919 116.878L193.084 82.1414L192.084 80.4094L131.919 115.146L132.919 116.878ZM133.419 185.484V116.012H131.419V185.484H133.419ZM193.084 219.354L132.919 184.618L131.919 186.35L192.084 221.086L193.084 219.354ZM252.249 184.618L192.084 219.354L193.084 221.086L253.249 186.35L252.249 184.618ZM251.749 116.012V185.484H253.749V116.012H251.749ZM192.085 94.967L241.142 123.29L242.142 121.558L193.085 93.235L192.085 94.967ZM144.027 123.29L193.085 94.967L192.085 93.235L143.027 121.558L144.027 123.29ZM144.527 179.071V122.424H142.527V179.071H144.527ZM193.085 206.529L144.027 178.205L143.027 179.937L192.085 208.261L193.085 206.529ZM241.142 178.205L192.085 206.529L193.085 208.261L242.142 179.937L241.142 178.205ZM240.642 122.424V179.071H242.642V122.424H240.642Z" fill="#C8C3C3" mask="url(#path-17-inside-8_22_286)"/>
<mask id="path-19-inside-9_22_286" fill="white">
<path fill-rule="evenodd" clip-rule="evenodd" d="M373.81 116.011L313.645 81.2749L253.48 116.011V185.484L313.645 220.22L373.81 185.484V116.011ZM362.703 122.425L313.645 94.1011L264.588 122.425V179.071L313.645 207.395L362.703 179.071V122.425Z"/>
</mask>
<path fill-rule="evenodd" clip-rule="evenodd" d="M373.81 116.011L313.645 81.2749L253.48 116.011V185.484L313.645 220.22L373.81 185.484V116.011ZM362.703 122.425L313.645 94.1011L264.588 122.425V179.071L313.645 207.395L362.703 179.071V122.425Z" fill="#0C0C0C"/>
<path d="M313.645 81.2749L314.145 80.4089L313.645 80.1202L313.145 80.4089L313.645 81.2749ZM373.81 116.011H374.81V115.434L374.31 115.145L373.81 116.011ZM253.48 116.011L252.98 115.145L252.48 115.434V116.011H253.48ZM253.48 185.484H252.48V186.061L252.98 186.35L253.48 185.484ZM313.645 220.22L313.145 221.086L313.645 221.375L314.145 221.086L313.645 220.22ZM373.81 185.484L374.31 186.35L374.81 186.061V185.484H373.81ZM313.645 94.1011L314.145 93.2351L313.645 92.9464L313.145 93.2351L313.645 94.1011ZM362.703 122.425H363.703V121.847L363.203 121.558L362.703 122.425ZM264.588 122.425L264.088 121.558L263.588 121.847V122.425H264.588ZM264.588 179.071H263.588V179.649L264.088 179.937L264.588 179.071ZM313.645 207.395L313.145 208.261L313.645 208.549L314.145 208.261L313.645 207.395ZM362.703 179.071L363.203 179.937L363.703 179.649V179.071H362.703ZM313.145 82.1409L373.31 116.877L374.31 115.145L314.145 80.4089L313.145 82.1409ZM253.98 116.877L314.145 82.1409L313.145 80.4089L252.98 115.145L253.98 116.877ZM254.48 185.484V116.011H252.48V185.484H254.48ZM314.145 219.354L253.98 184.618L252.98 186.35L313.145 221.086L314.145 219.354ZM373.31 184.618L313.145 219.354L314.145 221.086L374.31 186.35L373.31 184.618ZM372.81 116.011V185.484H374.81V116.011H372.81ZM313.145 94.9672L362.203 123.291L363.203 121.558L314.145 93.2351L313.145 94.9672ZM265.088 123.291L314.145 94.9672L313.145 93.2351L264.088 121.558L265.088 123.291ZM265.588 179.071V122.425H263.588V179.071H265.588ZM314.145 206.529L265.088 178.205L264.088 179.937L313.145 208.261L314.145 206.529ZM362.203 178.205L313.145 206.529L314.145 208.261L363.203 179.937L362.203 178.205ZM361.703 122.425V179.071H363.703V122.425H361.703Z" fill="#C8C3C3" mask="url(#path-19-inside-9_22_286)"/>
<mask id="path-21-inside-10_22_286" fill="white">
<path fill-rule="evenodd" clip-rule="evenodd" d="M254.103 330.486L193.938 295.75L133.773 330.486V399.958L193.938 434.694L254.103 399.958V330.486ZM242.996 336.899L193.938 308.575L144.881 336.899V393.546L193.938 421.869L242.996 393.546V336.899Z"/>
</mask>
<path fill-rule="evenodd" clip-rule="evenodd" d="M254.103 330.486L193.938 295.75L133.773 330.486V399.958L193.938 434.694L254.103 399.958V330.486ZM242.996 336.899L193.938 308.575L144.881 336.899V393.546L193.938 421.869L242.996 393.546V336.899Z" fill="#B49E2F"/>
<path d="M193.938 295.75L194.438 294.883L193.938 294.595L193.438 294.883L193.938 295.75ZM254.103 330.486H255.103V329.908L254.603 329.62L254.103 330.486ZM133.773 330.486L133.273 329.62L132.773 329.908V330.486H133.773ZM133.773 399.958H132.773V400.536L133.273 400.824L133.773 399.958ZM193.938 434.694L193.438 435.56L193.938 435.849L194.438 435.56L193.938 434.694ZM254.103 399.958L254.603 400.824L255.103 400.536V399.958H254.103ZM193.938 308.575L194.438 307.709L193.938 307.421L193.438 307.709L193.938 308.575ZM242.996 336.899H243.996V336.321L243.496 336.033L242.996 336.899ZM144.881 336.899L144.381 336.033L143.881 336.321V336.899H144.881ZM144.881 393.546H143.881V394.123L144.381 394.412L144.881 393.546ZM193.938 421.869L193.438 422.735L193.938 423.024L194.438 422.735L193.938 421.869ZM242.996 393.546L243.496 394.412L243.996 394.123V393.546H242.996ZM193.438 296.616L253.603 331.352L254.603 329.62L194.438 294.883L193.438 296.616ZM134.273 331.352L194.438 296.616L193.438 294.883L133.273 329.62L134.273 331.352ZM134.773 399.958V330.486H132.773V399.958H134.773ZM194.438 433.828L134.273 399.092L133.273 400.824L193.438 435.56L194.438 433.828ZM253.603 399.092L193.438 433.828L194.438 435.56L254.603 400.824L253.603 399.092ZM253.103 330.486V399.958H255.103V330.486H253.103ZM193.438 309.441L242.496 337.765L243.496 336.033L194.438 307.709L193.438 309.441ZM145.381 337.765L194.438 309.441L193.438 307.709L144.381 336.033L145.381 337.765ZM145.881 393.546V336.899H143.881V393.546H145.881ZM194.438 421.003L145.381 392.68L144.381 394.412L193.438 422.735L194.438 421.003ZM242.496 392.68L193.438 421.003L194.438 422.735L243.496 394.412L242.496 392.68ZM241.996 336.899V393.546H243.996V336.899H241.996Z" fill="#C8C3C3" mask="url(#path-21-inside-10_22_286)"/>
<mask id="path-23-inside-11_22_286" fill="white">
<path fill-rule="evenodd" clip-rule="evenodd" d="M313.672 222.892L253.507 188.156L193.342 222.892V292.365L253.507 327.101L313.672 292.365V222.892ZM302.564 229.306L253.507 200.982L204.449 229.306V285.952L253.507 314.276L302.564 285.952V229.306Z"/>
</mask>
<path fill-rule="evenodd" clip-rule="evenodd" d="M313.672 222.892L253.507 188.156L193.342 222.892V292.365L253.507 327.101L313.672 292.365V222.892ZM302.564 229.306L253.507 200.982L204.449 229.306V285.952L253.507 314.276L302.564 285.952V229.306Z" fill="#130B0B"/>
<path d="M253.507 188.156L254.007 187.29L253.507 187.002L253.007 187.29L253.507 188.156ZM313.672 222.892H314.672V222.315L314.172 222.026L313.672 222.892ZM193.342 222.892L192.842 222.026L192.342 222.315V222.892H193.342ZM193.342 292.365H192.342V292.942L192.842 293.231L193.342 292.365ZM253.507 327.101L253.007 327.967L253.507 328.256L254.007 327.967L253.507 327.101ZM313.672 292.365L314.172 293.231L314.672 292.942V292.365H313.672ZM253.507 200.982L254.007 200.116L253.507 199.827L253.007 200.116L253.507 200.982ZM302.564 229.306H303.564V228.728L303.064 228.44L302.564 229.306ZM204.449 229.306L203.949 228.44L203.449 228.728V229.306H204.449ZM204.449 285.952H203.449V286.53L203.949 286.818L204.449 285.952ZM253.507 314.276L253.007 315.142L253.507 315.43L254.007 315.142L253.507 314.276ZM302.564 285.952L303.064 286.818L303.564 286.53V285.952H302.564ZM253.007 189.022L313.172 223.759L314.172 222.026L254.007 187.29L253.007 189.022ZM193.842 223.759L254.007 189.022L253.007 187.29L192.842 222.026L193.842 223.759ZM194.342 292.365V222.892H192.342V292.365H194.342ZM254.007 326.235L193.842 291.499L192.842 293.231L253.007 327.967L254.007 326.235ZM313.172 291.499L253.007 326.235L254.007 327.967L314.172 293.231L313.172 291.499ZM312.672 222.892V292.365H314.672V222.892H312.672ZM253.007 201.848L302.064 230.172L303.064 228.44L254.007 200.116L253.007 201.848ZM204.949 230.172L254.007 201.848L253.007 200.116L203.949 228.44L204.949 230.172ZM205.449 285.952V229.306H203.449V285.952H205.449ZM254.007 313.41L204.949 285.086L203.949 286.818L253.007 315.142L254.007 313.41ZM302.064 285.086L253.007 313.41L254.007 315.142L303.064 286.818L302.064 285.086ZM301.564 229.306V285.952H303.564V229.306H301.564Z" fill="#C8C3C3" mask="url(#path-23-inside-11_22_286)"/>
<mask id="path-25-inside-12_22_286" fill="white">
<path fill-rule="evenodd" clip-rule="evenodd" d="M436.513 222.181L376.348 187.444L316.183 222.181V291.653L376.348 326.389L436.513 291.653V222.181ZM425.406 228.593L376.348 200.27L327.291 228.593V285.24L376.348 313.563L425.406 285.24V228.593Z"/>
</mask>
<path fill-rule="evenodd" clip-rule="evenodd" d="M436.513 222.181L376.348 187.444L316.183 222.181V291.653L376.348 326.389L436.513 291.653V222.181ZM425.406 228.593L376.348 200.27L327.291 228.593V285.24L376.348 313.563L425.406 285.24V228.593Z" fill="#0C0C0C"/>
<path d="M376.348 187.444L376.848 186.578L376.348 186.29L375.848 186.578L376.348 187.444ZM436.513 222.181H437.513V221.603L437.013 221.315L436.513 222.181ZM316.183 222.181L315.683 221.315L315.183 221.603V222.181H316.183ZM316.183 291.653H315.183V292.23L315.683 292.519L316.183 291.653ZM376.348 326.389L375.848 327.255L376.348 327.544L376.848 327.255L376.348 326.389ZM436.513 291.653L437.013 292.519L437.513 292.23V291.653H436.513ZM376.348 200.27L376.848 199.404L376.348 199.115L375.848 199.404L376.348 200.27ZM425.406 228.593H426.406V228.016L425.906 227.727L425.406 228.593ZM327.291 228.593L326.791 227.727L326.291 228.016V228.593H327.291ZM327.291 285.24H326.291V285.817L326.791 286.106L327.291 285.24ZM376.348 313.563L375.848 314.43L376.348 314.718L376.848 314.43L376.348 313.563ZM425.406 285.24L425.906 286.106L426.406 285.817V285.24H425.406ZM375.848 188.31L436.013 223.047L437.013 221.315L376.848 186.578L375.848 188.31ZM316.683 223.047L376.848 188.31L375.848 186.578L315.683 221.315L316.683 223.047ZM317.183 291.653V222.181H315.183V291.653H317.183ZM376.848 325.523L316.683 290.787L315.683 292.519L375.848 327.255L376.848 325.523ZM436.013 290.787L375.848 325.523L376.848 327.255L437.013 292.519L436.013 290.787ZM435.513 222.181V291.653H437.513V222.181H435.513ZM375.848 201.136L424.906 229.459L425.906 227.727L376.848 199.404L375.848 201.136ZM327.791 229.459L376.848 201.136L375.848 199.404L326.791 227.727L327.791 229.459ZM328.291 285.24V228.593H326.291V285.24H328.291ZM376.848 312.697L327.791 284.374L326.791 286.106L375.848 314.43L376.848 312.697ZM424.906 284.374L375.848 312.697L376.848 314.43L425.906 286.106L424.906 284.374ZM424.406 228.593V285.24H426.406V228.593H424.406Z" fill="#C8C3C3" mask="url(#path-25-inside-12_22_286)"/>
<mask id="path-27-inside-13_22_286" fill="white">
<path fill-rule="evenodd" clip-rule="evenodd" d="M190.83 223.605L130.665 188.869L70.5 223.605V293.077L130.665 327.814L190.83 293.077V223.605ZM179.723 230.018L130.665 201.695L81.6073 230.018V286.665L130.665 314.988L179.723 286.665V230.018Z"/>
</mask>
<path fill-rule="evenodd" clip-rule="evenodd" d="M190.83 223.605L130.665 188.869L70.5 223.605V293.077L130.665 327.814L190.83 293.077V223.605ZM179.723 230.018L130.665 201.695L81.6073 230.018V286.665L130.665 314.988L179.723 286.665V230.018Z" fill="#0C0C0C"/>
<path d="M130.665 188.869L131.165 188.003L130.665 187.714L130.165 188.003L130.665 188.869ZM190.83 223.605H191.83V223.028L191.33 222.739L190.83 223.605ZM70.5 223.605L70 222.739L69.5 223.028V223.605H70.5ZM70.5 293.077H69.5V293.655L70 293.943L70.5 293.077ZM130.665 327.814L130.165 328.68L130.665 328.968L131.165 328.68L130.665 327.814ZM190.83 293.077L191.33 293.943L191.83 293.655V293.077H190.83ZM130.665 201.695L131.165 200.829L130.665 200.54L130.165 200.829L130.665 201.695ZM179.723 230.018H180.723V229.441L180.223 229.152L179.723 230.018ZM81.6073 230.018L81.1073 229.152L80.6073 229.441V230.018H81.6073ZM81.6073 286.665H80.6073V287.242L81.1073 287.531L81.6073 286.665ZM130.665 314.988L130.165 315.854L130.665 316.143L131.165 315.854L130.665 314.988ZM179.723 286.665L180.223 287.531L180.723 287.242V286.665H179.723ZM130.165 189.735L190.33 224.471L191.33 222.739L131.165 188.003L130.165 189.735ZM71 224.471L131.165 189.735L130.165 188.003L70 222.739L71 224.471ZM71.5 293.077V223.605H69.5V293.077H71.5ZM131.165 326.948L71 292.211L70 293.943L130.165 328.68L131.165 326.948ZM190.33 292.211L130.165 326.948L131.165 328.68L191.33 293.943L190.33 292.211ZM189.83 223.605V293.077H191.83V223.605H189.83ZM130.165 202.561L179.223 230.884L180.223 229.152L131.165 200.829L130.165 202.561ZM82.1073 230.884L131.165 202.561L130.165 200.829L81.1073 229.152L82.1073 230.884ZM82.6073 286.665V230.018H80.6073V286.665H82.6073ZM131.165 314.122L82.1073 285.799L81.1073 287.531L130.165 315.854L131.165 314.122ZM179.223 285.799L130.165 314.122L131.165 315.854L180.223 287.531L179.223 285.799ZM178.723 230.018V286.665H180.723V230.018H178.723Z" fill="#C8C3C3" mask="url(#path-27-inside-13_22_286)"/>
<mask id="path-29-inside-14_22_286" fill="white">
<path fill-rule="evenodd" clip-rule="evenodd" d="M375.164 330.486L314.999 295.75L254.834 330.486V399.958L314.999 434.694L375.164 399.958V330.486ZM364.057 336.899L314.999 308.575L265.941 336.899V393.546L314.999 421.869L364.057 393.546V336.899Z"/>
</mask>
<path fill-rule="evenodd" clip-rule="evenodd" d="M375.164 330.486L314.999 295.75L254.834 330.486V399.958L314.999 434.694L375.164 399.958V330.486ZM364.057 336.899L314.999 308.575L265.941 336.899V393.546L314.999 421.869L364.057 393.546V336.899Z" fill="#1A1918"/>
<path d="M314.999 295.75L315.499 294.883L314.999 294.595L314.499 294.883L314.999 295.75ZM375.164 330.486H376.164V329.908L375.664 329.62L375.164 330.486ZM254.834 330.486L254.334 329.62L253.834 329.908V330.486H254.834ZM254.834 399.958H253.834V400.536L254.334 400.824L254.834 399.958ZM314.999 434.694L314.499 435.56L314.999 435.849L315.499 435.56L314.999 434.694ZM375.164 399.958L375.664 400.824L376.164 400.536V399.958H375.164ZM314.999 308.575L315.499 307.709L314.999 307.421L314.499 307.709L314.999 308.575ZM364.057 336.899H365.057V336.321L364.557 336.033L364.057 336.899ZM265.941 336.899L265.441 336.033L264.941 336.321V336.899H265.941ZM265.941 393.546H264.941V394.123L265.441 394.412L265.941 393.546ZM314.999 421.869L314.499 422.735L314.999 423.024L315.499 422.735L314.999 421.869ZM364.057 393.546L364.557 394.412L365.057 394.123V393.546H364.057ZM314.499 296.616L374.664 331.352L375.664 329.62L315.499 294.883L314.499 296.616ZM255.334 331.352L315.499 296.616L314.499 294.883L254.334 329.62L255.334 331.352ZM255.834 399.958V330.486H253.834V399.958H255.834ZM315.499 433.828L255.334 399.092L254.334 400.824L314.499 435.56L315.499 433.828ZM374.664 399.092L314.499 433.828L315.499 435.56L375.664 400.824L374.664 399.092ZM374.164 330.486V399.958H376.164V330.486H374.164ZM314.499 309.441L363.557 337.765L364.557 336.033L315.499 307.709L314.499 309.441ZM266.441 337.765L315.499 309.441L314.499 307.709L265.441 336.033L266.441 337.765ZM266.941 393.546V336.899H264.941V393.546H266.941ZM315.499 421.003L266.441 392.68L265.441 394.412L314.499 422.735L315.499 421.003ZM363.557 392.68L314.499 421.003L315.499 422.735L364.557 394.412L363.557 392.68ZM363.057 336.899V393.546H365.057V336.899H363.057Z" fill="#C8C3C3" mask="url(#path-29-inside-14_22_286)"/>
<mask id="path-31-outside-15_22_286" maskUnits="userSpaceOnUse" x="170.467" y="334.01" width="44" height="73" fill="black">
<rect fill="white" x="170.467" y="334.01" width="44" height="73"/>
<path d="M183.252 335.081H189.145V340.974H183.252V335.081ZM177.36 335.081H183.252V340.974H177.36V335.081ZM177.36 340.974H183.252V346.867H177.36V340.974ZM183.252 340.974H189.145V346.867H183.252V340.974ZM189.145 340.974H195.038V346.867H189.145V340.974ZM189.145 335.081H195.038V340.974H189.145V335.081ZM195.038 335.081H200.931V340.974H195.038V335.081ZM200.931 335.081H206.824V340.974H200.931V335.081ZM200.931 340.974H206.824V346.867H200.931V340.974ZM195.038 340.974H200.931V346.867H195.038V340.974ZM195.038 346.867H200.931V352.76H195.038V346.867ZM200.931 346.867H206.824V352.76H200.931V346.867ZM206.824 340.974H212.717V346.867H206.824V340.974ZM206.824 346.867H212.717V352.76H206.824V346.867ZM206.824 352.76H212.717V358.653H206.824V352.76ZM206.824 358.653H212.717V364.545H206.824V358.653ZM206.824 364.545H212.717V370.438H206.824V364.545ZM206.824 370.438H212.717V376.331H206.824V370.438ZM206.824 376.331H212.717V382.224H206.824V376.331ZM206.824 382.224H212.717V388.117H206.824V382.224ZM200.931 382.224H206.824V388.117H200.931V382.224ZM200.931 376.331H206.824V382.224H200.931V376.331ZM200.931 370.438H206.824V376.331H200.931V370.438ZM200.931 364.545H206.824V370.438H200.931V364.545ZM200.931 358.653H206.824V364.545H200.931V358.653ZM200.931 352.76H206.824V358.653H200.931V352.76ZM195.038 376.331H200.931V382.224H195.038V376.331ZM195.038 382.224H200.931V388.117H195.038V382.224ZM195.038 388.117H200.931V394.01H195.038V388.117ZM189.145 388.117H195.038V394.01H189.145V388.117ZM189.145 382.224H195.038V388.117H189.145V382.224ZM183.252 388.117H189.145V394.01H183.252V388.117ZM177.36 388.117H183.252V394.01H177.36V388.117ZM177.36 382.224H183.252V388.117H177.36V382.224ZM183.252 382.224H189.145V388.117H183.252V382.224ZM183.252 376.331H189.145V382.224H183.252V376.331ZM177.36 376.331H183.252V382.224H177.36V376.331ZM171.467 382.224H177.36V388.117H171.467V382.224ZM171.467 376.331H177.36V382.224H171.467V376.331ZM171.467 370.438H177.36V376.331H171.467V370.438ZM171.467 364.545H177.36V370.438H171.467V364.545ZM171.467 358.653H177.36V364.545H171.467V358.653ZM171.467 352.76H177.36V358.653H171.467V352.76ZM171.467 346.867H177.36V352.76H171.467V346.867ZM177.36 346.867H183.252V352.76H177.36V346.867ZM171.467 340.974H177.36V346.867H171.467V340.974ZM183.252 346.867H189.145V352.76H183.252V346.867ZM177.36 352.76H183.252V358.653H177.36V352.76ZM177.36 358.653H183.252V364.545H177.36V358.653ZM177.36 364.545H183.252V370.438H177.36V364.545ZM177.36 370.438H183.252V376.331H177.36V370.438ZM189.145 394.01H195.038V399.903H189.145V394.01ZM195.038 394.01H200.931V399.903H195.038V394.01ZM200.931 394.01H206.824V399.903H200.931V394.01ZM195.038 399.903H200.931V405.795H195.038V399.903ZM200.931 399.903H206.824V405.795H200.931V399.903ZM206.824 399.903H212.717V405.795H206.824V399.903ZM206.824 394.01H212.717V399.903H206.824V394.01Z"/>
</mask>
<path d="M183.252 335.081H189.145V340.974H183.252V335.081ZM177.36 335.081H183.252V340.974H177.36V335.081ZM177.36 340.974H183.252V346.867H177.36V340.974ZM183.252 340.974H189.145V346.867H183.252V340.974ZM189.145 340.974H195.038V346.867H189.145V340.974ZM189.145 335.081H195.038V340.974H189.145V335.081ZM195.038 335.081H200.931V340.974H195.038V335.081ZM200.931 335.081H206.824V340.974H200.931V335.081ZM200.931 340.974H206.824V346.867H200.931V340.974ZM195.038 340.974H200.931V346.867H195.038V340.974ZM195.038 346.867H200.931V352.76H195.038V346.867ZM200.931 346.867H206.824V352.76H200.931V346.867ZM206.824 340.974H212.717V346.867H206.824V340.974ZM206.824 346.867H212.717V352.76H206.824V346.867ZM206.824 352.76H212.717V358.653H206.824V352.76ZM206.824 358.653H212.717V364.545H206.824V358.653ZM206.824 364.545H212.717V370.438H206.824V364.545ZM206.824 370.438H212.717V376.331H206.824V370.438ZM206.824 376.331H212.717V382.224H206.824V376.331ZM206.824 382.224H212.717V388.117H206.824V382.224ZM200.931 382.224H206.824V388.117H200.931V382.224ZM200.931 376.331H206.824V382.224H200.931V376.331ZM200.931 370.438H206.824V376.331H200.931V370.438ZM200.931 364.545H206.824V370.438H200.931V364.545ZM200.931 358.653H206.824V364.545H200.931V358.653ZM200.931 352.76H206.824V358.653H200.931V352.76ZM195.038 376.331H200.931V382.224H195.038V376.331ZM195.038 382.224H200.931V388.117H195.038V382.224ZM195.038 388.117H200.931V394.01H195.038V388.117ZM189.145 388.117H195.038V394.01H189.145V388.117ZM189.145 382.224H195.038V388.117H189.145V382.224ZM183.252 388.117H189.145V394.01H183.252V388.117ZM177.36 388.117H183.252V394.01H177.36V388.117ZM177.36 382.224H183.252V388.117H177.36V382.224ZM183.252 382.224H189.145V388.117H183.252V382.224ZM183.252 376.331H189.145V382.224H183.252V376.331ZM177.36 376.331H183.252V382.224H177.36V376.331ZM171.467 382.224H177.36V388.117H171.467V382.224ZM171.467 376.331H177.36V382.224H171.467V376.331ZM171.467 370.438H177.36V376.331H171.467V370.438ZM171.467 364.545H177.36V370.438H171.467V364.545ZM171.467 358.653H177.36V364.545H171.467V358.653ZM171.467 352.76H177.36V358.653H171.467V352.76ZM171.467 346.867H177.36V352.76H171.467V346.867ZM177.36 346.867H183.252V352.76H177.36V346.867ZM171.467 340.974H177.36V346.867H171.467V340.974ZM183.252 346.867H189.145V352.76H183.252V346.867ZM177.36 352.76H183.252V358.653H177.36V352.76ZM177.36 358.653H183.252V364.545H177.36V358.653ZM177.36 364.545H183.252V370.438H177.36V364.545ZM177.36 370.438H183.252V376.331H177.36V370.438ZM189.145 394.01H195.038V399.903H189.145V394.01ZM195.038 394.01H200.931V399.903H195.038V394.01ZM200.931 394.01H206.824V399.903H200.931V394.01ZM195.038 399.903H200.931V405.795H195.038V399.903ZM200.931 399.903H206.824V405.795H200.931V399.903ZM206.824 399.903H212.717V405.795H206.824V399.903ZM206.824 394.01H212.717V399.903H206.824V394.01Z" fill="#CCB928"/>
<path d="M183.252 335.081V334.081H182.252V335.081H183.252ZM189.145 335.081H190.145V334.081H189.145V335.081ZM189.145 340.974V341.974H190.145V340.974H189.145ZM183.252 340.974H182.252V341.974H183.252V340.974ZM177.36 335.081V334.081H176.36V335.081H177.36ZM183.252 335.081H184.252V334.081H183.252V335.081ZM183.252 340.974V341.974H184.252V340.974H183.252ZM177.36 340.974H176.36V341.974H177.36V340.974ZM177.36 340.974V339.974H176.36V340.974H177.36ZM183.252 340.974H184.252V339.974H183.252V340.974ZM183.252 346.867V347.867H184.252V346.867H183.252ZM177.36 346.867H176.36V347.867H177.36V346.867ZM183.252 340.974V339.974H182.252V340.974H183.252ZM189.145 340.974H190.145V339.974H189.145V340.974ZM189.145 346.867V347.867H190.145V346.867H189.145ZM183.252 346.867H182.252V347.867H183.252V346.867ZM189.145 340.974V339.974H188.145V340.974H189.145ZM195.038 340.974H196.038V339.974H195.038V340.974ZM195.038 346.867V347.867H196.038V346.867H195.038ZM189.145 346.867H188.145V347.867H189.145V346.867ZM189.145 335.081V334.081H188.145V335.081H189.145ZM195.038 335.081H196.038V334.081H195.038V335.081ZM195.038 340.974V341.974H196.038V340.974H195.038ZM189.145 340.974H188.145V341.974H189.145V340.974ZM195.038 335.081V334.081H194.038V335.081H195.038ZM200.931 335.081H201.931V334.081H200.931V335.081ZM200.931 340.974V341.974H201.931V340.974H200.931ZM195.038 340.974H194.038V341.974H195.038V340.974ZM200.931 335.081V334.081H199.931V335.081H200.931ZM206.824 335.081H207.824V334.081H206.824V335.081ZM206.824 340.974V341.974H207.824V340.974H206.824ZM200.931 340.974H199.931V341.974H200.931V340.974ZM200.931 340.974V339.974H199.931V340.974H200.931ZM206.824 340.974H207.824V339.974H206.824V340.974ZM206.824 346.867V347.867H207.824V346.867H206.824ZM200.931 346.867H199.931V347.867H200.931V346.867ZM195.038 340.974V339.974H194.038V340.974H195.038ZM200.931 340.974H201.931V339.974H200.931V340.974ZM200.931 346.867V347.867H201.931V346.867H200.931ZM195.038 346.867H194.038V347.867H195.038V346.867ZM195.038 346.867V345.867H194.038V346.867H195.038ZM200.931 346.867H201.931V345.867H200.931V346.867ZM200.931 352.76V353.76H201.931V352.76H200.931ZM195.038 352.76H194.038V353.76H195.038V352.76ZM200.931 346.867V345.867H199.931V346.867H200.931ZM206.824 346.867H207.824V345.867H206.824V346.867ZM206.824 352.76V353.76H207.824V352.76H206.824ZM200.931 352.76H199.931V353.76H200.931V352.76ZM206.824 340.974V339.974H205.824V340.974H206.824ZM212.717 340.974H213.717V339.974H212.717V340.974ZM212.717 346.867V347.867H213.717V346.867H212.717ZM206.824 346.867H205.824V347.867H206.824V346.867ZM206.824 346.867V345.867H205.824V346.867H206.824ZM212.717 346.867H213.717V345.867H212.717V346.867ZM212.717 352.76V353.76H213.717V352.76H212.717ZM206.824 352.76H205.824V353.76H206.824V352.76ZM206.824 352.76V351.76H205.824V352.76H206.824ZM212.717 352.76H213.717V351.76H212.717V352.76ZM212.717 358.653V359.653H213.717V358.653H212.717ZM206.824 358.653H205.824V359.653H206.824V358.653ZM206.824 358.653V357.653H205.824V358.653H206.824ZM212.717 358.653H213.717V357.653H212.717V358.653ZM212.717 364.545V365.545H213.717V364.545H212.717ZM206.824 364.545H205.824V365.545H206.824V364.545ZM206.824 364.545V363.545H205.824V364.545H206.824ZM212.717 364.545H213.717V363.545H212.717V364.545ZM212.717 370.438V371.438H213.717V370.438H212.717ZM206.824 370.438H205.824V371.438H206.824V370.438ZM206.824 370.438V369.438H205.824V370.438H206.824ZM212.717 370.438H213.717V369.438H212.717V370.438ZM212.717 376.331V377.331H213.717V376.331H212.717ZM206.824 376.331H205.824V377.331H206.824V376.331ZM206.824 376.331V375.331H205.824V376.331H206.824ZM212.717 376.331H213.717V375.331H212.717V376.331ZM212.717 382.224V383.224H213.717V382.224H212.717ZM206.824 382.224H205.824V383.224H206.824V382.224ZM206.824 382.224V381.224H205.824V382.224H206.824ZM212.717 382.224H213.717V381.224H212.717V382.224ZM212.717 388.117V389.117H213.717V388.117H212.717ZM206.824 388.117H205.824V389.117H206.824V388.117ZM200.931 382.224V381.224H199.931V382.224H200.931ZM206.824 382.224H207.824V381.224H206.824V382.224ZM206.824 388.117V389.117H207.824V388.117H206.824ZM200.931 388.117H199.931V389.117H200.931V388.117ZM200.931 376.331V375.331H199.931V376.331H200.931ZM206.824 376.331H207.824V375.331H206.824V376.331ZM206.824 382.224V383.224H207.824V382.224H206.824ZM200.931 382.224H199.931V383.224H200.931V382.224ZM200.931 370.438V369.438H199.931V370.438H200.931ZM206.824 370.438H207.824V369.438H206.824V370.438ZM206.824 376.331V377.331H207.824V376.331H206.824ZM200.931 376.331H199.931V377.331H200.931V376.331ZM200.931 364.545V363.545H199.931V364.545H200.931ZM206.824 364.545H207.824V363.545H206.824V364.545ZM206.824 370.438V371.438H207.824V370.438H206.824ZM200.931 370.438H199.931V371.438H200.931V370.438ZM200.931 358.653V357.653H199.931V358.653H200.931ZM206.824 358.653H207.824V357.653H206.824V358.653ZM206.824 364.545V365.545H207.824V364.545H206.824ZM200.931 364.545H199.931V365.545H200.931V364.545ZM200.931 352.76V351.76H199.931V352.76H200.931ZM206.824 352.76H207.824V351.76H206.824V352.76ZM206.824 358.653V359.653H207.824V358.653H206.824ZM200.931 358.653H199.931V359.653H200.931V358.653ZM195.038 376.331V375.331H194.038V376.331H195.038ZM200.931 376.331H201.931V375.331H200.931V376.331ZM200.931 382.224V383.224H201.931V382.224H200.931ZM195.038 382.224H194.038V383.224H195.038V382.224ZM195.038 382.224V381.224H194.038V382.224H195.038ZM200.931 382.224H201.931V381.224H200.931V382.224ZM200.931 388.117V389.117H201.931V388.117H200.931ZM195.038 388.117H194.038V389.117H195.038V388.117ZM195.038 388.117V387.117H194.038V388.117H195.038ZM200.931 388.117H201.931V387.117H200.931V388.117ZM200.931 394.01V395.01H201.931V394.01H200.931ZM195.038 394.01H194.038V395.01H195.038V394.01ZM189.145 388.117V387.117H188.145V388.117H189.145ZM195.038 388.117H196.038V387.117H195.038V388.117ZM195.038 394.01V395.01H196.038V394.01H195.038ZM189.145 394.01H188.145V395.01H189.145V394.01ZM189.145 382.224V381.224H188.145V382.224H189.145ZM195.038 382.224H196.038V381.224H195.038V382.224ZM195.038 388.117V389.117H196.038V388.117H195.038ZM189.145 388.117H188.145V389.117H189.145V388.117ZM183.252 388.117V387.117H182.252V388.117H183.252ZM189.145 388.117H190.145V387.117H189.145V388.117ZM189.145 394.01V395.01H190.145V394.01H189.145ZM183.252 394.01H182.252V395.01H183.252V394.01ZM177.36 388.117V387.117H176.36V388.117H177.36ZM183.252 388.117H184.252V387.117H183.252V388.117ZM183.252 394.01V395.01H184.252V394.01H183.252ZM177.36 394.01H176.36V395.01H177.36V394.01ZM177.36 382.224V381.224H176.36V382.224H177.36ZM183.252 382.224H184.252V381.224H183.252V382.224ZM183.252 388.117V389.117H184.252V388.117H183.252ZM177.36 388.117H176.36V389.117H177.36V388.117ZM183.252 382.224V381.224H182.252V382.224H183.252ZM189.145 382.224H190.145V381.224H189.145V382.224ZM189.145 388.117V389.117H190.145V388.117H189.145ZM183.252 388.117H182.252V389.117H183.252V388.117ZM183.252 376.331V375.331H182.252V376.331H183.252ZM189.145 376.331H190.145V375.331H189.145V376.331ZM189.145 382.224V383.224H190.145V382.224H189.145ZM183.252 382.224H182.252V383.224H183.252V382.224ZM177.36 376.331V375.331H176.36V376.331H177.36ZM183.252 376.331H184.252V375.331H183.252V376.331ZM183.252 382.224V383.224H184.252V382.224H183.252ZM177.36 382.224H176.36V383.224H177.36V382.224ZM171.467 382.224V381.224H170.467V382.224H171.467ZM177.36 382.224H178.36V381.224H177.36V382.224ZM177.36 388.117V389.117H178.36V388.117H177.36ZM171.467 388.117H170.467V389.117H171.467V388.117ZM171.467 376.331V375.331H170.467V376.331H171.467ZM177.36 376.331H178.36V375.331H177.36V376.331ZM177.36 382.224V383.224H178.36V382.224H177.36ZM171.467 382.224H170.467V383.224H171.467V382.224ZM171.467 370.438V369.438H170.467V370.438H171.467ZM177.36 370.438H178.36V369.438H177.36V370.438ZM177.36 376.331V377.331H178.36V376.331H177.36ZM171.467 376.331H170.467V377.331H171.467V376.331ZM171.467 364.545V363.545H170.467V364.545H171.467ZM177.36 364.545H178.36V363.545H177.36V364.545ZM177.36 370.438V371.438H178.36V370.438H177.36ZM171.467 370.438H170.467V371.438H171.467V370.438ZM171.467 358.653V357.653H170.467V358.653H171.467ZM177.36 358.653H178.36V357.653H177.36V358.653ZM177.36 364.545V365.545H178.36V364.545H177.36ZM171.467 364.545H170.467V365.545H171.467V364.545ZM171.467 352.76V351.76H170.467V352.76H171.467ZM177.36 352.76H178.36V351.76H177.36V352.76ZM177.36 358.653V359.653H178.36V358.653H177.36ZM171.467 358.653H170.467V359.653H171.467V358.653ZM171.467 346.867V345.867H170.467V346.867H171.467ZM177.36 346.867H178.36V345.867H177.36V346.867ZM177.36 352.76V353.76H178.36V352.76H177.36ZM171.467 352.76H170.467V353.76H171.467V352.76ZM177.36 346.867V345.867H176.36V346.867H177.36ZM183.252 346.867H184.252V345.867H183.252V346.867ZM183.252 352.76V353.76H184.252V352.76H183.252ZM177.36 352.76H176.36V353.76H177.36V352.76ZM171.467 340.974V339.974H170.467V340.974H171.467ZM177.36 340.974H178.36V339.974H177.36V340.974ZM177.36 346.867V347.867H178.36V346.867H177.36ZM171.467 346.867H170.467V347.867H171.467V346.867ZM183.252 346.867V345.867H182.252V346.867H183.252ZM189.145 346.867H190.145V345.867H189.145V346.867ZM189.145 352.76V353.76H190.145V352.76H189.145ZM183.252 352.76H182.252V353.76H183.252V352.76ZM177.36 352.76V351.76H176.36V352.76H177.36ZM183.252 352.76H184.252V351.76H183.252V352.76ZM183.252 358.653V359.653H184.252V358.653H183.252ZM177.36 358.653H176.36V359.653H177.36V358.653ZM177.36 358.653V357.653H176.36V358.653H177.36ZM183.252 358.653H184.252V357.653H183.252V358.653ZM183.252 364.545V365.545H184.252V364.545H183.252ZM177.36 364.545H176.36V365.545H177.36V364.545ZM177.36 364.545V363.545H176.36V364.545H177.36ZM183.252 364.545H184.252V363.545H183.252V364.545ZM183.252 370.438V371.438H184.252V370.438H183.252ZM177.36 370.438H176.36V371.438H177.36V370.438ZM177.36 370.438V369.438H176.36V370.438H177.36ZM183.252 370.438H184.252V369.438H183.252V370.438ZM183.252 376.331V377.331H184.252V376.331H183.252ZM177.36 376.331H176.36V377.331H177.36V376.331ZM189.145 394.01V393.01H188.145V394.01H189.145ZM195.038 394.01H196.038V393.01H195.038V394.01ZM195.038 399.903V400.903H196.038V399.903H195.038ZM189.145 399.903H188.145V400.903H189.145V399.903ZM195.038 394.01V393.01H194.038V394.01H195.038ZM200.931 394.01H201.931V393.01H200.931V394.01ZM200.931 399.903V400.903H201.931V399.903H200.931ZM195.038 399.903H194.038V400.903H195.038V399.903ZM200.931 394.01V393.01H199.931V394.01H200.931ZM206.824 394.01H207.824V393.01H206.824V394.01ZM206.824 399.903V400.903H207.824V399.903H206.824ZM200.931 399.903H199.931V400.903H200.931V399.903ZM195.038 399.903V398.903H194.038V399.903H195.038ZM200.931 399.903H201.931V398.903H200.931V399.903ZM200.931 405.795V406.795H201.931V405.795H200.931ZM195.038 405.795H194.038V406.795H195.038V405.795ZM200.931 399.903V398.903H199.931V399.903H200.931ZM206.824 399.903H207.824V398.903H206.824V399.903ZM206.824 405.795V406.795H207.824V405.795H206.824ZM200.931 405.795H199.931V406.795H200.931V405.795ZM206.824 399.903V398.903H205.824V399.903H206.824ZM212.717 399.903H213.717V398.903H212.717V399.903ZM212.717 405.795V406.795H213.717V405.795H212.717ZM206.824 405.795H205.824V406.795H206.824V405.795ZM206.824 394.01V393.01H205.824V394.01H206.824ZM212.717 394.01H213.717V393.01H212.717V394.01ZM212.717 399.903V400.903H213.717V399.903H212.717ZM206.824 399.903H205.824V400.903H206.824V399.903ZM183.252 336.081H189.145V334.081H183.252V336.081ZM188.145 335.081V340.974H190.145V335.081H188.145ZM189.145 339.974H183.252V341.974H189.145V339.974ZM184.252 340.974V335.081H182.252V340.974H184.252ZM177.36 336.081H183.252V334.081H177.36V336.081ZM182.252 335.081V340.974H184.252V335.081H182.252ZM183.252 339.974H177.36V341.974H183.252V339.974ZM178.36 340.974V335.081H176.36V340.974H178.36ZM177.36 341.974H183.252V339.974H177.36V341.974ZM182.252 340.974V346.867H184.252V340.974H182.252ZM183.252 345.867H177.36V347.867H183.252V345.867ZM178.36 346.867V340.974H176.36V346.867H178.36ZM183.252 341.974H189.145V339.974H183.252V341.974ZM188.145 340.974V346.867H190.145V340.974H188.145ZM189.145 345.867H183.252V347.867H189.145V345.867ZM184.252 346.867V340.974H182.252V346.867H184.252ZM189.145 341.974H195.038V339.974H189.145V341.974ZM194.038 340.974V346.867H196.038V340.974H194.038ZM195.038 345.867H189.145V347.867H195.038V345.867ZM190.145 346.867V340.974H188.145V346.867H190.145ZM189.145 336.081H195.038V334.081H189.145V336.081ZM194.038 335.081V340.974H196.038V335.081H194.038ZM195.038 339.974H189.145V341.974H195.038V339.974ZM190.145 340.974V335.081H188.145V340.974H190.145ZM195.038 336.081H200.931V334.081H195.038V336.081ZM199.931 335.081V340.974H201.931V335.081H199.931ZM200.931 339.974H195.038V341.974H200.931V339.974ZM196.038 340.974V335.081H194.038V340.974H196.038ZM200.931 336.081H206.824V334.081H200.931V336.081ZM205.824 335.081V340.974H207.824V335.081H205.824ZM206.824 339.974H200.931V341.974H206.824V339.974ZM201.931 340.974V335.081H199.931V340.974H201.931ZM200.931 341.974H206.824V339.974H200.931V341.974ZM205.824 340.974V346.867H207.824V340.974H205.824ZM206.824 345.867H200.931V347.867H206.824V345.867ZM201.931 346.867V340.974H199.931V346.867H201.931ZM195.038 341.974H200.931V339.974H195.038V341.974ZM199.931 340.974V346.867H201.931V340.974H199.931ZM200.931 345.867H195.038V347.867H200.931V345.867ZM196.038 346.867V340.974H194.038V346.867H196.038ZM195.038 347.867H200.931V345.867H195.038V347.867ZM199.931 346.867V352.76H201.931V346.867H199.931ZM200.931 351.76H195.038V353.76H200.931V351.76ZM196.038 352.76V346.867H194.038V352.76H196.038ZM200.931 347.867H206.824V345.867H200.931V347.867ZM205.824 346.867V352.76H207.824V346.867H205.824ZM206.824 351.76H200.931V353.76H206.824V351.76ZM201.931 352.76V346.867H199.931V352.76H201.931ZM206.824 341.974H212.717V339.974H206.824V341.974ZM211.717 340.974V346.867H213.717V340.974H211.717ZM212.717 345.867H206.824V347.867H212.717V345.867ZM207.824 346.867V340.974H205.824V346.867H207.824ZM206.824 347.867H212.717V345.867H206.824V347.867ZM211.717 346.867V352.76H213.717V346.867H211.717ZM212.717 351.76H206.824V353.76H212.717V351.76ZM207.824 352.76V346.867H205.824V352.76H207.824ZM206.824 353.76H212.717V351.76H206.824V353.76ZM211.717 352.76V358.653H213.717V352.76H211.717ZM212.717 357.653H206.824V359.653H212.717V357.653ZM207.824 358.653V352.76H205.824V358.653H207.824ZM206.824 359.653H212.717V357.653H206.824V359.653ZM211.717 358.653V364.545H213.717V358.653H211.717ZM212.717 363.545H206.824V365.545H212.717V363.545ZM207.824 364.545V358.653H205.824V364.545H207.824ZM206.824 365.545H212.717V363.545H206.824V365.545ZM211.717 364.545V370.438H213.717V364.545H211.717ZM212.717 369.438H206.824V371.438H212.717V369.438ZM207.824 370.438V364.545H205.824V370.438H207.824ZM206.824 371.438H212.717V369.438H206.824V371.438ZM211.717 370.438V376.331H213.717V370.438H211.717ZM212.717 375.331H206.824V377.331H212.717V375.331ZM207.824 376.331V370.438H205.824V376.331H207.824ZM206.824 377.331H212.717V375.331H206.824V377.331ZM211.717 376.331V382.224H213.717V376.331H211.717ZM212.717 381.224H206.824V383.224H212.717V381.224ZM207.824 382.224V376.331H205.824V382.224H207.824ZM206.824 383.224H212.717V381.224H206.824V383.224ZM211.717 382.224V388.117H213.717V382.224H211.717ZM212.717 387.117H206.824V389.117H212.717V387.117ZM207.824 388.117V382.224H205.824V388.117H207.824ZM200.931 383.224H206.824V381.224H200.931V383.224ZM205.824 382.224V388.117H207.824V382.224H205.824ZM206.824 387.117H200.931V389.117H206.824V387.117ZM201.931 388.117V382.224H199.931V388.117H201.931ZM200.931 377.331H206.824V375.331H200.931V377.331ZM205.824 376.331V382.224H207.824V376.331H205.824ZM206.824 381.224H200.931V383.224H206.824V381.224ZM201.931 382.224V376.331H199.931V382.224H201.931ZM200.931 371.438H206.824V369.438H200.931V371.438ZM205.824 370.438V376.331H207.824V370.438H205.824ZM206.824 375.331H200.931V377.331H206.824V375.331ZM201.931 376.331V370.438H199.931V376.331H201.931ZM200.931 365.545H206.824V363.545H200.931V365.545ZM205.824 364.545V370.438H207.824V364.545H205.824ZM206.824 369.438H200.931V371.438H206.824V369.438ZM201.931 370.438V364.545H199.931V370.438H201.931ZM200.931 359.653H206.824V357.653H200.931V359.653ZM205.824 358.653V364.545H207.824V358.653H205.824ZM206.824 363.545H200.931V365.545H206.824V363.545ZM201.931 364.545V358.653H199.931V364.545H201.931ZM200.931 353.76H206.824V351.76H200.931V353.76ZM205.824 352.76V358.653H207.824V352.76H205.824ZM206.824 357.653H200.931V359.653H206.824V357.653ZM201.931 358.653V352.76H199.931V358.653H201.931ZM195.038 377.331H200.931V375.331H195.038V377.331ZM199.931 376.331V382.224H201.931V376.331H199.931ZM200.931 381.224H195.038V383.224H200.931V381.224ZM196.038 382.224V376.331H194.038V382.224H196.038ZM195.038 383.224H200.931V381.224H195.038V383.224ZM199.931 382.224V388.117H201.931V382.224H199.931ZM200.931 387.117H195.038V389.117H200.931V387.117ZM196.038 388.117V382.224H194.038V388.117H196.038ZM195.038 389.117H200.931V387.117H195.038V389.117ZM199.931 388.117V394.01H201.931V388.117H199.931ZM200.931 393.01H195.038V395.01H200.931V393.01ZM196.038 394.01V388.117H194.038V394.01H196.038ZM189.145 389.117H195.038V387.117H189.145V389.117ZM194.038 388.117V394.01H196.038V388.117H194.038ZM195.038 393.01H189.145V395.01H195.038V393.01ZM190.145 394.01V388.117H188.145V394.01H190.145ZM189.145 383.224H195.038V381.224H189.145V383.224ZM194.038 382.224V388.117H196.038V382.224H194.038ZM195.038 387.117H189.145V389.117H195.038V387.117ZM190.145 388.117V382.224H188.145V388.117H190.145ZM183.252 389.117H189.145V387.117H183.252V389.117ZM188.145 388.117V394.01H190.145V388.117H188.145ZM189.145 393.01H183.252V395.01H189.145V393.01ZM184.252 394.01V388.117H182.252V394.01H184.252ZM177.36 389.117H183.252V387.117H177.36V389.117ZM182.252 388.117V394.01H184.252V388.117H182.252ZM183.252 393.01H177.36V395.01H183.252V393.01ZM178.36 394.01V388.117H176.36V394.01H178.36ZM177.36 383.224H183.252V381.224H177.36V383.224ZM182.252 382.224V388.117H184.252V382.224H182.252ZM183.252 387.117H177.36V389.117H183.252V387.117ZM178.36 388.117V382.224H176.36V388.117H178.36ZM183.252 383.224H189.145V381.224H183.252V383.224ZM188.145 382.224V388.117H190.145V382.224H188.145ZM189.145 387.117H183.252V389.117H189.145V387.117ZM184.252 388.117V382.224H182.252V388.117H184.252ZM183.252 377.331H189.145V375.331H183.252V377.331ZM188.145 376.331V382.224H190.145V376.331H188.145ZM189.145 381.224H183.252V383.224H189.145V381.224ZM184.252 382.224V376.331H182.252V382.224H184.252ZM177.36 377.331H183.252V375.331H177.36V377.331ZM182.252 376.331V382.224H184.252V376.331H182.252ZM183.252 381.224H177.36V383.224H183.252V381.224ZM178.36 382.224V376.331H176.36V382.224H178.36ZM171.467 383.224H177.36V381.224H171.467V383.224ZM176.36 382.224V388.117H178.36V382.224H176.36ZM177.36 387.117H171.467V389.117H177.36V387.117ZM172.467 388.117V382.224H170.467V388.117H172.467ZM171.467 377.331H177.36V375.331H171.467V377.331ZM176.36 376.331V382.224H178.36V376.331H176.36ZM177.36 381.224H171.467V383.224H177.36V381.224ZM172.467 382.224V376.331H170.467V382.224H172.467ZM171.467 371.438H177.36V369.438H171.467V371.438ZM176.36 370.438V376.331H178.36V370.438H176.36ZM177.36 375.331H171.467V377.331H177.36V375.331ZM172.467 376.331V370.438H170.467V376.331H172.467ZM171.467 365.545H177.36V363.545H171.467V365.545ZM176.36 364.545V370.438H178.36V364.545H176.36ZM177.36 369.438H171.467V371.438H177.36V369.438ZM172.467 370.438V364.545H170.467V370.438H172.467ZM171.467 359.653H177.36V357.653H171.467V359.653ZM176.36 358.653V364.545H178.36V358.653H176.36ZM177.36 363.545H171.467V365.545H177.36V363.545ZM172.467 364.545V358.653H170.467V364.545H172.467ZM171.467 353.76H177.36V351.76H171.467V353.76ZM176.36 352.76V358.653H178.36V352.76H176.36ZM177.36 357.653H171.467V359.653H177.36V357.653ZM172.467 358.653V352.76H170.467V358.653H172.467ZM171.467 347.867H177.36V345.867H171.467V347.867ZM176.36 346.867V352.76H178.36V346.867H176.36ZM177.36 351.76H171.467V353.76H177.36V351.76ZM172.467 352.76V346.867H170.467V352.76H172.467ZM177.36 347.867H183.252V345.867H177.36V347.867ZM182.252 346.867V352.76H184.252V346.867H182.252ZM183.252 351.76H177.36V353.76H183.252V351.76ZM178.36 352.76V346.867H176.36V352.76H178.36ZM171.467 341.974H177.36V339.974H171.467V341.974ZM176.36 340.974V346.867H178.36V340.974H176.36ZM177.36 345.867H171.467V347.867H177.36V345.867ZM172.467 346.867V340.974H170.467V346.867H172.467ZM183.252 347.867H189.145V345.867H183.252V347.867ZM188.145 346.867V352.76H190.145V346.867H188.145ZM189.145 351.76H183.252V353.76H189.145V351.76ZM184.252 352.76V346.867H182.252V352.76H184.252ZM177.36 353.76H183.252V351.76H177.36V353.76ZM182.252 352.76V358.653H184.252V352.76H182.252ZM183.252 357.653H177.36V359.653H183.252V357.653ZM178.36 358.653V352.76H176.36V358.653H178.36ZM177.36 359.653H183.252V357.653H177.36V359.653ZM182.252 358.653V364.545H184.252V358.653H182.252ZM183.252 363.545H177.36V365.545H183.252V363.545ZM178.36 364.545V358.653H176.36V364.545H178.36ZM177.36 365.545H183.252V363.545H177.36V365.545ZM182.252 364.545V370.438H184.252V364.545H182.252ZM183.252 369.438H177.36V371.438H183.252V369.438ZM178.36 370.438V364.545H176.36V370.438H178.36ZM177.36 371.438H183.252V369.438H177.36V371.438ZM182.252 370.438V376.331H184.252V370.438H182.252ZM183.252 375.331H177.36V377.331H183.252V375.331ZM178.36 376.331V370.438H176.36V376.331H178.36ZM189.145 395.01H195.038V393.01H189.145V395.01ZM194.038 394.01V399.903H196.038V394.01H194.038ZM195.038 398.903H189.145V400.903H195.038V398.903ZM190.145 399.903V394.01H188.145V399.903H190.145ZM195.038 395.01H200.931V393.01H195.038V395.01ZM199.931 394.01V399.903H201.931V394.01H199.931ZM200.931 398.903H195.038V400.903H200.931V398.903ZM196.038 399.903V394.01H194.038V399.903H196.038ZM200.931 395.01H206.824V393.01H200.931V395.01ZM205.824 394.01V399.903H207.824V394.01H205.824ZM206.824 398.903H200.931V400.903H206.824V398.903ZM201.931 399.903V394.01H199.931V399.903H201.931ZM195.038 400.903H200.931V398.903H195.038V400.903ZM199.931 399.903V405.795H201.931V399.903H199.931ZM200.931 404.795H195.038V406.795H200.931V404.795ZM196.038 405.795V399.903H194.038V405.795H196.038ZM200.931 400.903H206.824V398.903H200.931V400.903ZM205.824 399.903V405.795H207.824V399.903H205.824ZM206.824 404.795H200.931V406.795H206.824V404.795ZM201.931 405.795V399.903H199.931V405.795H201.931ZM206.824 400.903H212.717V398.903H206.824V400.903ZM211.717 399.903V405.795H213.717V399.903H211.717ZM212.717 404.795H206.824V406.795H212.717V404.795ZM207.824 405.795V399.903H205.824V405.795H207.824ZM206.824 395.01H212.717V393.01H206.824V395.01ZM211.717 394.01V399.903H213.717V394.01H211.717ZM212.717 398.903H206.824V400.903H212.717V398.903ZM207.824 399.903V394.01H205.824V399.903H207.824Z" fill="#C8C3C3" mask="url(#path-31-outside-15_22_286)"/>
</g>
</svg>
