<svg width="1024" height="1024" viewBox="0 0 1024 1024" fill="none" xmlns="http://www.w3.org/2000/svg">
<rect x="2.5" y="2.5" width="1019" height="1019" rx="114.5" fill="white" stroke="black" stroke-width="5"/>
<circle cx="512.5" cy="512.5" r="409.5" fill="white"/>
<mask id="path-3-inside-1_20_285" fill="white">
<path fill-rule="evenodd" clip-rule="evenodd" d="M516.473 223.472L396.143 154L275.813 223.472V362.417L396.143 431.89L516.473 362.417V223.472ZM494.258 236.298L396.143 179.651L298.028 236.298V349.592L396.143 406.238L494.258 349.592V236.298Z"/>
</mask>
<path fill-rule="evenodd" clip-rule="evenodd" d="M516.473 223.472L396.143 154L275.813 223.472V362.417L396.143 431.89L516.473 362.417V223.472ZM494.258 236.298L396.143 179.651L298.028 236.298V349.592L396.143 406.238L494.258 349.592V236.298Z" fill="#0F0F0F"/>
<path d="M396.143 154L396.643 153.134L396.143 152.845L395.643 153.134L396.143 154ZM516.473 223.472H517.473V222.895L516.973 222.606L516.473 223.472ZM275.813 223.472L275.313 222.606L274.813 222.895V223.472H275.813ZM275.813 362.417H274.813V362.995L275.313 363.283L275.813 362.417ZM396.143 431.89L395.643 432.756L396.143 433.045L396.643 432.756L396.143 431.89ZM516.473 362.417L516.973 363.283L517.473 362.995V362.417H516.473ZM396.143 179.651L396.643 178.785L396.143 178.497L395.643 178.785L396.143 179.651ZM494.258 236.298H495.258V235.721L494.758 235.432L494.258 236.298ZM298.028 236.298L297.528 235.432L297.028 235.721V236.298H298.028ZM298.028 349.592H297.028V350.169L297.528 350.458L298.028 349.592ZM396.143 406.238L395.643 407.105L396.143 407.393L396.643 407.105L396.143 406.238ZM494.258 349.592L494.758 350.458L495.258 350.169V349.592H494.258ZM395.643 154.866L515.973 224.338L516.973 222.606L396.643 153.134L395.643 154.866ZM276.313 224.338L396.643 154.866L395.643 153.134L275.313 222.606L276.313 224.338ZM276.813 362.417V223.472H274.813V362.417H276.813ZM396.643 431.024L276.313 361.551L275.313 363.283L395.643 432.756L396.643 431.024ZM515.973 361.551L395.643 431.024L396.643 432.756L516.973 363.283L515.973 361.551ZM515.473 223.472V362.417H517.473V223.472H515.473ZM395.643 180.517L493.758 237.164L494.758 235.432L396.643 178.785L395.643 180.517ZM298.528 237.164L396.643 180.517L395.643 178.785L297.528 235.432L298.528 237.164ZM299.028 349.592V236.298H297.028V349.592H299.028ZM396.643 405.372L298.528 348.726L297.528 350.458L395.643 407.105L396.643 405.372ZM493.758 348.726L395.643 405.372L396.643 407.105L494.758 350.458L493.758 348.726ZM493.258 236.298V349.592H495.258V236.298H493.258Z" fill="black" mask="url(#path-3-inside-1_20_285)"/>
<mask id="path-5-inside-2_20_285" fill="white">
<path fill-rule="evenodd" clip-rule="evenodd" d="M758.593 223.472L638.263 154L517.933 223.472V362.417L638.263 431.89L758.593 362.417V223.472ZM736.378 236.298L638.263 179.651L540.148 236.298V349.592L638.263 406.238L736.378 349.592V236.298Z"/>
</mask>
<path fill-rule="evenodd" clip-rule="evenodd" d="M758.593 223.472L638.263 154L517.933 223.472V362.417L638.263 431.89L758.593 362.417V223.472ZM736.378 236.298L638.263 179.651L540.148 236.298V349.592L638.263 406.238L736.378 349.592V236.298Z" fill="#0C0C0C"/>
<path d="M638.263 154L638.763 153.134L638.263 152.845L637.763 153.134L638.263 154ZM758.593 223.472H759.593V222.895L759.093 222.606L758.593 223.472ZM517.933 223.472L517.433 222.606L516.933 222.895V223.472H517.933ZM517.933 362.417H516.933V362.995L517.433 363.283L517.933 362.417ZM638.263 431.89L637.763 432.756L638.263 433.045L638.763 432.756L638.263 431.89ZM758.593 362.417L759.093 363.283L759.593 362.995V362.417H758.593ZM638.263 179.651L638.763 178.785L638.263 178.497L637.763 178.785L638.263 179.651ZM736.378 236.298H737.378V235.721L736.878 235.432L736.378 236.298ZM540.148 236.298L539.648 235.432L539.148 235.721V236.298H540.148ZM540.148 349.592H539.148V350.169L539.648 350.458L540.148 349.592ZM638.263 406.238L637.763 407.105L638.263 407.393L638.763 407.105L638.263 406.238ZM736.378 349.592L736.878 350.458L737.378 350.169V349.592H736.378ZM637.763 154.866L758.093 224.338L759.093 222.606L638.763 153.134L637.763 154.866ZM518.433 224.338L638.763 154.866L637.763 153.134L517.433 222.606L518.433 224.338ZM518.933 362.417V223.472H516.933V362.417H518.933ZM638.763 431.024L518.433 361.551L517.433 363.283L637.763 432.756L638.763 431.024ZM758.093 361.551L637.763 431.024L638.763 432.756L759.093 363.283L758.093 361.551ZM757.593 223.472V362.417H759.593V223.472H757.593ZM637.763 180.517L735.878 237.164L736.878 235.432L638.763 178.785L637.763 180.517ZM540.648 237.164L638.763 180.517L637.763 178.785L539.648 235.432L540.648 237.164ZM541.148 349.592V236.298H539.148V349.592H541.148ZM638.763 405.372L540.648 348.726L539.648 350.458L637.763 407.105L638.763 405.372ZM735.878 348.726L637.763 405.372L638.763 407.105L736.878 350.458L735.878 348.726ZM735.378 236.298V349.592H737.378V236.298H735.378Z" fill="black" mask="url(#path-5-inside-2_20_285)"/>
<mask id="path-7-inside-3_20_285" fill="white">
<path fill-rule="evenodd" clip-rule="evenodd" d="M519.18 652.42L398.85 582.947L278.52 652.42V791.365L398.85 860.837L519.18 791.365V652.42ZM496.965 665.244L398.85 608.598L300.734 665.244V778.538L398.85 835.185L496.965 778.538V665.244Z"/>
</mask>
<path fill-rule="evenodd" clip-rule="evenodd" d="M519.18 652.42L398.85 582.947L278.52 652.42V791.365L398.85 860.837L519.18 791.365V652.42ZM496.965 665.244L398.85 608.598L300.734 665.244V778.538L398.85 835.185L496.965 778.538V665.244Z" fill="#B49E2F"/>
<path d="M398.85 582.947L399.35 582.081L398.85 581.793L398.35 582.081L398.85 582.947ZM519.18 652.42H520.18V651.842L519.68 651.554L519.18 652.42ZM278.52 652.42L278.02 651.554L277.52 651.842V652.42H278.52ZM278.52 791.365H277.52V791.942L278.02 792.231L278.52 791.365ZM398.85 860.837L398.35 861.703L398.85 861.992L399.35 861.703L398.85 860.837ZM519.18 791.365L519.68 792.231L520.18 791.942V791.365H519.18ZM398.85 608.598L399.35 607.732L398.85 607.443L398.35 607.732L398.85 608.598ZM496.965 665.244H497.965V664.667L497.465 664.378L496.965 665.244ZM300.734 665.244L300.234 664.378L299.734 664.667V665.244H300.734ZM300.734 778.538H299.734V779.115L300.234 779.404L300.734 778.538ZM398.85 835.185L398.35 836.051L398.85 836.339L399.35 836.051L398.85 835.185ZM496.965 778.538L497.465 779.404L497.965 779.115V778.538H496.965ZM398.35 583.813L518.68 653.286L519.68 651.554L399.35 582.081L398.35 583.813ZM279.02 653.286L399.35 583.813L398.35 582.081L278.02 651.554L279.02 653.286ZM279.52 791.365V652.42H277.52V791.365H279.52ZM399.35 859.971L279.02 790.499L278.02 792.231L398.35 861.703L399.35 859.971ZM518.68 790.499L398.35 859.971L399.35 861.703L519.68 792.231L518.68 790.499ZM518.18 652.42V791.365H520.18V652.42H518.18ZM398.35 609.464L496.465 666.11L497.465 664.378L399.35 607.732L398.35 609.464ZM301.234 666.11L399.35 609.464L398.35 607.732L300.234 664.378L301.234 666.11ZM301.734 778.538V665.244H299.734V778.538H301.734ZM399.35 834.319L301.234 777.672L300.234 779.404L398.35 836.051L399.35 834.319ZM496.465 777.672L398.35 834.319L399.35 836.051L497.465 779.404L496.465 777.672ZM495.965 665.244V778.538H497.965V665.244H495.965Z" fill="black" mask="url(#path-7-inside-3_20_285)"/>
<mask id="path-9-inside-4_20_285" fill="white">
<path fill-rule="evenodd" clip-rule="evenodd" d="M638.316 437.234L517.986 367.762L397.656 437.234V576.179L517.986 645.652L638.316 576.179V437.234ZM616.102 450.058L517.986 393.412L419.871 450.058V563.352L517.986 619.999L616.102 563.352V450.058Z"/>
</mask>
<path fill-rule="evenodd" clip-rule="evenodd" d="M638.316 437.234L517.986 367.762L397.656 437.234V576.179L517.986 645.652L638.316 576.179V437.234ZM616.102 450.058L517.986 393.412L419.871 450.058V563.352L517.986 619.999L616.102 563.352V450.058Z" fill="#130B0B"/>
<path d="M517.986 367.762L518.486 366.896L517.986 366.607L517.486 366.896L517.986 367.762ZM638.316 437.234H639.316V436.657L638.816 436.368L638.316 437.234ZM397.656 437.234L397.156 436.368L396.656 436.657V437.234H397.656ZM397.656 576.179H396.656V576.756L397.156 577.045L397.656 576.179ZM517.986 645.652L517.486 646.518L517.986 646.806L518.486 646.518L517.986 645.652ZM638.316 576.179L638.816 577.045L639.316 576.756V576.179H638.316ZM517.986 393.412L518.486 392.546L517.986 392.257L517.486 392.546L517.986 393.412ZM616.102 450.058H617.102V449.481L616.602 449.192L616.102 450.058ZM419.871 450.058L419.371 449.192L418.871 449.481V450.058H419.871ZM419.871 563.352H418.871V563.929L419.371 564.218L419.871 563.352ZM517.986 619.999L517.486 620.865L517.986 621.153L518.486 620.865L517.986 619.999ZM616.102 563.352L616.602 564.218L617.102 563.929V563.352H616.102ZM517.486 368.628L637.816 438.1L638.816 436.368L518.486 366.896L517.486 368.628ZM398.156 438.1L518.486 368.628L517.486 366.896L397.156 436.368L398.156 438.1ZM398.656 576.179V437.234H396.656V576.179H398.656ZM518.486 644.786L398.156 575.313L397.156 577.045L517.486 646.518L518.486 644.786ZM637.816 575.313L517.486 644.786L518.486 646.518L638.816 577.045L637.816 575.313ZM637.316 437.234V576.179H639.316V437.234H637.316ZM517.486 394.278L615.602 450.924L616.602 449.192L518.486 392.546L517.486 394.278ZM420.371 450.924L518.486 394.278L517.486 392.546L419.371 449.192L420.371 450.924ZM420.871 563.352V450.058H418.871V563.352H420.871ZM518.486 619.133L420.371 562.486L419.371 564.218L517.486 620.865L518.486 619.133ZM615.602 562.486L517.486 619.133L518.486 620.865L616.602 564.218L615.602 562.486ZM615.102 450.058V563.352H617.102V450.058H615.102Z" fill="black" mask="url(#path-9-inside-4_20_285)"/>
<mask id="path-11-inside-5_20_285" fill="white">
<path fill-rule="evenodd" clip-rule="evenodd" d="M884 435.807L763.67 366.335L643.34 435.807V574.752L763.67 644.225L884 574.752V435.807ZM861.785 448.633L763.67 391.986L665.555 448.633V561.926L763.67 618.573L861.785 561.926V448.633Z"/>
</mask>
<path fill-rule="evenodd" clip-rule="evenodd" d="M884 435.807L763.67 366.335L643.34 435.807V574.752L763.67 644.225L884 574.752V435.807ZM861.785 448.633L763.67 391.986L665.555 448.633V561.926L763.67 618.573L861.785 561.926V448.633Z" fill="#0C0C0C"/>
<path d="M763.67 366.335L764.17 365.469L763.67 365.18L763.17 365.469L763.67 366.335ZM884 435.807H885V435.23L884.5 434.941L884 435.807ZM643.34 435.807L642.84 434.941L642.34 435.23V435.807H643.34ZM643.34 574.752H642.34V575.33L642.84 575.618L643.34 574.752ZM763.67 644.225L763.17 645.091L763.67 645.379L764.17 645.091L763.67 644.225ZM884 574.752L884.5 575.618L885 575.33V574.752H884ZM763.67 391.986L764.17 391.12L763.67 390.831L763.17 391.12L763.67 391.986ZM861.785 448.633H862.785V448.055L862.285 447.767L861.785 448.633ZM665.555 448.633L665.055 447.767L664.555 448.055V448.633H665.555ZM665.555 561.926H664.555V562.504L665.055 562.792L665.555 561.926ZM763.67 618.573L763.17 619.439L763.67 619.728L764.17 619.439L763.67 618.573ZM861.785 561.926L862.285 562.792L862.785 562.504V561.926H861.785ZM763.17 367.201L883.5 436.673L884.5 434.941L764.17 365.469L763.17 367.201ZM643.84 436.673L764.17 367.201L763.17 365.469L642.84 434.941L643.84 436.673ZM644.34 574.752V435.807H642.34V574.752H644.34ZM764.17 643.359L643.84 573.886L642.84 575.618L763.17 645.091L764.17 643.359ZM883.5 573.886L763.17 643.359L764.17 645.091L884.5 575.618L883.5 573.886ZM883 435.807V574.752H885V435.807H883ZM763.17 392.852L861.285 449.499L862.285 447.767L764.17 391.12L763.17 392.852ZM666.055 449.499L764.17 392.852L763.17 391.12L665.055 447.767L666.055 449.499ZM666.555 561.926V448.633H664.555V561.926H666.555ZM764.17 617.707L666.055 561.06L665.055 562.792L763.17 619.439L764.17 617.707ZM861.285 561.06L763.17 617.707L764.17 619.439L862.285 562.792L861.285 561.06ZM860.785 448.633V561.926H862.785V448.633H860.785Z" fill="black" mask="url(#path-11-inside-5_20_285)"/>
<mask id="path-13-inside-6_20_285" fill="white">
<path fill-rule="evenodd" clip-rule="evenodd" d="M392.633 438.658L272.303 369.186L151.973 438.658V577.603L272.303 647.076L392.633 577.603V438.658ZM370.418 451.484L272.303 394.837L174.188 451.484V564.778L272.303 621.425L370.418 564.778V451.484Z"/>
</mask>
<path fill-rule="evenodd" clip-rule="evenodd" d="M392.633 438.658L272.303 369.186L151.973 438.658V577.603L272.303 647.076L392.633 577.603V438.658ZM370.418 451.484L272.303 394.837L174.188 451.484V564.778L272.303 621.425L370.418 564.778V451.484Z" fill="#0C0C0C"/>
<path d="M272.303 369.186L272.803 368.32L272.303 368.031L271.803 368.32L272.303 369.186ZM392.633 438.658H393.633V438.081L393.133 437.792L392.633 438.658ZM151.973 438.658L151.473 437.792L150.973 438.081V438.658H151.973ZM151.973 577.603H150.973V578.181L151.473 578.469L151.973 577.603ZM272.303 647.076L271.803 647.942L272.303 648.231L272.803 647.942L272.303 647.076ZM392.633 577.603L393.133 578.469L393.633 578.181V577.603H392.633ZM272.303 394.837L272.803 393.971L272.303 393.683L271.803 393.971L272.303 394.837ZM370.418 451.484H371.418V450.907L370.918 450.618L370.418 451.484ZM174.188 451.484L173.688 450.618L173.188 450.907V451.484H174.188ZM174.188 564.778H173.188V565.355L173.688 565.644L174.188 564.778ZM272.303 621.425L271.803 622.291L272.303 622.579L272.803 622.291L272.303 621.425ZM370.418 564.778L370.918 565.644L371.418 565.355V564.778H370.418ZM271.803 370.052L392.133 439.525L393.133 437.792L272.803 368.32L271.803 370.052ZM152.473 439.525L272.803 370.052L271.803 368.32L151.473 437.792L152.473 439.525ZM152.973 577.603V438.658H150.973V577.603H152.973ZM272.803 646.21L152.473 576.737L151.473 578.469L271.803 647.942L272.803 646.21ZM392.133 576.737L271.803 646.21L272.803 647.942L393.133 578.469L392.133 576.737ZM391.633 438.658V577.603H393.633V438.658H391.633ZM271.803 395.703L369.918 452.35L370.918 450.618L272.803 393.971L271.803 395.703ZM174.688 452.35L272.803 395.703L271.803 393.971L173.688 450.618L174.688 452.35ZM175.188 564.778V451.484H173.188V564.778H175.188ZM272.803 620.558L174.688 563.912L173.688 565.644L271.803 622.291L272.803 620.558ZM369.918 563.912L271.803 620.558L272.803 622.291L370.918 565.644L369.918 563.912ZM369.418 451.484V564.778H371.418V451.484H369.418Z" fill="black" mask="url(#path-13-inside-6_20_285)"/>
<mask id="path-15-inside-7_20_285" fill="white">
<path fill-rule="evenodd" clip-rule="evenodd" d="M761.301 652.42L640.971 582.947L520.641 652.42V791.365L640.971 860.837L761.301 791.365V652.42ZM739.086 665.244L640.971 608.598L542.856 665.244V778.538L640.971 835.185L739.086 778.538V665.244Z"/>
</mask>
<path fill-rule="evenodd" clip-rule="evenodd" d="M761.301 652.42L640.971 582.947L520.641 652.42V791.365L640.971 860.837L761.301 791.365V652.42ZM739.086 665.244L640.971 608.598L542.856 665.244V778.538L640.971 835.185L739.086 778.538V665.244Z" fill="#1A1918"/>
<path d="M640.971 582.947L641.471 582.081L640.971 581.793L640.471 582.081L640.971 582.947ZM761.301 652.42H762.301V651.842L761.801 651.554L761.301 652.42ZM520.641 652.42L520.141 651.554L519.641 651.842V652.42H520.641ZM520.641 791.365H519.641V791.942L520.141 792.231L520.641 791.365ZM640.971 860.837L640.471 861.703L640.971 861.992L641.471 861.703L640.971 860.837ZM761.301 791.365L761.801 792.231L762.301 791.942V791.365H761.301ZM640.971 608.598L641.471 607.732L640.971 607.443L640.471 607.732L640.971 608.598ZM739.086 665.244H740.086V664.667L739.586 664.378L739.086 665.244ZM542.856 665.244L542.356 664.378L541.856 664.667V665.244H542.856ZM542.856 778.538H541.856V779.115L542.356 779.404L542.856 778.538ZM640.971 835.185L640.471 836.051L640.971 836.339L641.471 836.051L640.971 835.185ZM739.086 778.538L739.586 779.404L740.086 779.115V778.538H739.086ZM640.471 583.813L760.801 653.286L761.801 651.554L641.471 582.081L640.471 583.813ZM521.141 653.286L641.471 583.813L640.471 582.081L520.141 651.554L521.141 653.286ZM521.641 791.365V652.42H519.641V791.365H521.641ZM641.471 859.971L521.141 790.499L520.141 792.231L640.471 861.703L641.471 859.971ZM760.801 790.499L640.471 859.971L641.471 861.703L761.801 792.231L760.801 790.499ZM760.301 652.42V791.365H762.301V652.42H760.301ZM640.471 609.464L738.586 666.11L739.586 664.378L641.471 607.732L640.471 609.464ZM543.356 666.11L641.471 609.464L640.471 607.732L542.356 664.378L543.356 666.11ZM543.856 778.538V665.244H541.856V778.538H543.856ZM641.471 834.319L543.356 777.672L542.356 779.404L640.471 836.051L641.471 834.319ZM738.586 777.672L640.471 834.319L641.471 836.051L739.586 779.404L738.586 777.672ZM738.086 665.244V778.538H740.086V665.244H738.086Z" fill="black" mask="url(#path-15-inside-7_20_285)"/>
<path d="M375.335 657.327H386.049V668.041H375.335V657.327ZM364.621 657.327H375.335V668.041H364.621V657.327ZM364.621 668.041H375.335V678.755H364.621V668.041ZM375.335 668.041H386.049V678.755H375.335V668.041ZM386.049 668.041H396.764V678.755H386.049V668.041ZM386.049 657.327H396.764V668.041H386.049V657.327ZM396.764 657.327H407.478V668.041H396.764V657.327ZM407.478 657.327H418.192V668.041H407.478V657.327ZM407.478 668.041H418.192V678.755H407.478V668.041ZM396.764 668.041H407.478V678.755H396.764V668.041ZM396.764 678.755H407.478V689.47H396.764V678.755ZM407.478 678.755H418.192V689.47H407.478V678.755ZM418.192 668.041H428.906V678.755H418.192V668.041ZM418.192 678.755H428.906V689.47H418.192V678.755ZM418.192 689.47H428.906V700.184H418.192V689.47ZM418.192 700.184H428.906V710.898H418.192V700.184ZM418.192 710.898H428.906V721.613H418.192V710.898ZM418.192 721.613H428.906V732.327H418.192V721.613ZM418.192 732.327H428.906V743.041H418.192V732.327ZM418.192 743.041H428.906V753.755H418.192V743.041ZM407.478 743.041H418.192V753.755H407.478V743.041ZM407.478 732.327H418.192V743.041H407.478V732.327ZM407.478 721.613H418.192V732.327H407.478V721.613ZM407.478 710.898H418.192V721.613H407.478V710.898ZM407.478 700.184H418.192V710.898H407.478V700.184ZM407.478 689.47H418.192V700.184H407.478V689.47ZM396.764 732.327H407.478V743.041H396.764V732.327ZM396.764 743.041H407.478V753.755H396.764V743.041ZM396.764 753.755H407.478V764.47H396.764V753.755ZM386.049 753.755H396.764V764.47H386.049V753.755ZM386.049 743.041H396.764V753.755H386.049V743.041ZM375.335 753.755H386.049V764.47H375.335V753.755ZM364.621 753.755H375.335V764.47H364.621V753.755ZM364.621 743.041H375.335V753.755H364.621V743.041ZM375.335 743.041H386.049V753.755H375.335V743.041ZM375.335 732.327H386.049V743.041H375.335V732.327ZM364.621 732.327H375.335V743.041H364.621V732.327ZM353.906 743.041H364.621V753.755H353.906V743.041ZM353.906 732.327H364.621V743.041H353.906V732.327ZM353.906 721.613H364.621V732.327H353.906V721.613ZM353.906 710.898H364.621V721.613H353.906V710.898ZM353.906 700.184H364.621V710.898H353.906V700.184ZM353.906 689.47H364.621V700.184H353.906V689.47ZM353.906 678.755H364.621V689.47H353.906V678.755ZM364.621 678.755H375.335V689.47H364.621V678.755ZM353.906 668.041H364.621V678.755H353.906V668.041ZM375.335 678.755H386.049V689.47H375.335V678.755ZM364.621 689.47H375.335V700.184H364.621V689.47ZM364.621 700.184H375.335V710.898H364.621V700.184ZM364.621 710.898H375.335V721.613H364.621V710.898ZM364.621 721.613H375.335V732.327H364.621V721.613ZM386.049 764.47H396.764V775.184H386.049V764.47ZM396.764 764.47H407.478V775.184H396.764V764.47ZM407.478 764.47H418.192V775.184H407.478V764.47ZM396.764 775.184H407.478V785.898H396.764V775.184ZM407.478 775.184H418.192V785.898H407.478V775.184ZM418.192 775.184H428.906V785.898H418.192V775.184ZM418.192 764.47H428.906V775.184H418.192V764.47Z" fill="#CCB928"/>
<g opacity="0.2">
<mask id="path-18-inside-8_20_285" fill="white">
<path fill-rule="evenodd" clip-rule="evenodd" d="M505.499 232.024L385.169 162.551L264.839 232.024V370.969L385.169 440.441L505.499 370.969V232.024ZM483.284 244.849L385.169 188.203L287.054 244.849V358.143L385.169 414.79L483.284 358.143V244.849Z"/>
</mask>
<path fill-rule="evenodd" clip-rule="evenodd" d="M505.499 232.024L385.169 162.551L264.839 232.024V370.969L385.169 440.441L505.499 370.969V232.024ZM483.284 244.849L385.169 188.203L287.054 244.849V358.143L385.169 414.79L483.284 358.143V244.849Z" fill="#0F0F0F"/>
<path d="M385.169 162.551L385.669 161.685L385.169 161.397L384.669 161.685L385.169 162.551ZM505.499 232.024H506.499V231.446L505.999 231.158L505.499 232.024ZM264.839 232.024L264.339 231.158L263.839 231.446V232.024H264.839ZM264.839 370.969H263.839V371.546L264.339 371.835L264.839 370.969ZM385.169 440.441L384.669 441.307L385.169 441.596L385.669 441.307L385.169 440.441ZM505.499 370.969L505.999 371.835L506.499 371.546V370.969H505.499ZM385.169 188.203L385.669 187.337L385.169 187.048L384.669 187.337L385.169 188.203ZM483.284 244.849H484.284V244.272L483.784 243.983L483.284 244.849ZM287.054 244.849L286.554 243.983L286.054 244.272V244.849H287.054ZM287.054 358.143H286.054V358.72L286.554 359.009L287.054 358.143ZM385.169 414.79L384.669 415.656L385.169 415.944L385.669 415.656L385.169 414.79ZM483.284 358.143L483.784 359.009L484.284 358.72V358.143H483.284ZM384.669 163.417L504.999 232.89L505.999 231.158L385.669 161.685L384.669 163.417ZM265.339 232.89L385.669 163.417L384.669 161.685L264.339 231.158L265.339 232.89ZM265.839 370.969V232.024H263.839V370.969H265.839ZM385.669 439.575L265.339 370.103L264.339 371.835L384.669 441.307L385.669 439.575ZM504.999 370.103L384.669 439.575L385.669 441.307L505.999 371.835L504.999 370.103ZM504.499 232.024V370.969H506.499V232.024H504.499ZM384.669 189.069L482.784 245.715L483.784 243.983L385.669 187.337L384.669 189.069ZM287.554 245.715L385.669 189.069L384.669 187.337L286.554 243.983L287.554 245.715ZM288.054 358.143V244.849H286.054V358.143H288.054ZM385.669 413.924L287.554 357.277L286.554 359.009L384.669 415.656L385.669 413.924ZM482.784 357.277L384.669 413.924L385.669 415.656L483.784 359.009L482.784 357.277ZM482.284 244.849V358.143H484.284V244.849H482.284Z" fill="#C8C3C3" mask="url(#path-18-inside-8_20_285)"/>
<mask id="path-20-inside-9_20_285" fill="white">
<path fill-rule="evenodd" clip-rule="evenodd" d="M747.62 232.023L627.29 162.55L506.96 232.023V370.968L627.29 440.44L747.62 370.968V232.023ZM725.405 244.849L627.29 188.202L529.175 244.849V358.143L627.29 414.789L725.405 358.143V244.849Z"/>
</mask>
<path fill-rule="evenodd" clip-rule="evenodd" d="M747.62 232.023L627.29 162.55L506.96 232.023V370.968L627.29 440.44L747.62 370.968V232.023ZM725.405 244.849L627.29 188.202L529.175 244.849V358.143L627.29 414.789L725.405 358.143V244.849Z" fill="#0C0C0C"/>
<path d="M627.29 162.55L627.79 161.684L627.29 161.396L626.79 161.684L627.29 162.55ZM747.62 232.023H748.62V231.445L748.12 231.157L747.62 232.023ZM506.96 232.023L506.46 231.157L505.96 231.445V232.023H506.96ZM506.96 370.968H505.96V371.545L506.46 371.834L506.96 370.968ZM627.29 440.44L626.79 441.306L627.29 441.595L627.79 441.306L627.29 440.44ZM747.62 370.968L748.12 371.834L748.62 371.545V370.968H747.62ZM627.29 188.202L627.79 187.336L627.29 187.048L626.79 187.336L627.29 188.202ZM725.405 244.849H726.405V244.272L725.905 243.983L725.405 244.849ZM529.175 244.849L528.675 243.983L528.175 244.272V244.849H529.175ZM529.175 358.143H528.175V358.72L528.675 359.009L529.175 358.143ZM627.29 414.789L626.79 415.655L627.29 415.944L627.79 415.655L627.29 414.789ZM725.405 358.143L725.905 359.009L726.405 358.72V358.143H725.405ZM626.79 163.416L747.12 232.889L748.12 231.157L627.79 161.684L626.79 163.416ZM507.46 232.889L627.79 163.416L626.79 161.684L506.46 231.157L507.46 232.889ZM507.96 370.968V232.023H505.96V370.968H507.96ZM627.79 439.574L507.46 370.102L506.46 371.834L626.79 441.306L627.79 439.574ZM747.12 370.102L626.79 439.574L627.79 441.306L748.12 371.834L747.12 370.102ZM746.62 232.023V370.968H748.62V232.023H746.62ZM626.79 189.068L724.905 245.715L725.905 243.983L627.79 187.336L626.79 189.068ZM529.675 245.715L627.79 189.068L626.79 187.336L528.675 243.983L529.675 245.715ZM530.175 358.143V244.849H528.175V358.143H530.175ZM627.79 413.923L529.675 357.277L528.675 359.009L626.79 415.655L627.79 413.923ZM724.905 357.277L626.79 413.923L627.79 415.655L725.905 359.009L724.905 357.277ZM724.405 244.849V358.143H726.405V244.849H724.405Z" fill="#C8C3C3" mask="url(#path-20-inside-9_20_285)"/>
<mask id="path-22-inside-10_20_285" fill="white">
<path fill-rule="evenodd" clip-rule="evenodd" d="M508.207 660.972L387.877 591.5L267.547 660.972V799.917L387.877 869.389L508.207 799.917V660.972ZM485.992 673.798L387.877 617.151L289.762 673.798V787.091L387.877 843.738L485.992 787.091V673.798Z"/>
</mask>
<path fill-rule="evenodd" clip-rule="evenodd" d="M508.207 660.972L387.877 591.5L267.547 660.972V799.917L387.877 869.389L508.207 799.917V660.972ZM485.992 673.798L387.877 617.151L289.762 673.798V787.091L387.877 843.738L485.992 787.091V673.798Z" fill="#B49E2F"/>
<path d="M387.877 591.5L388.377 590.633L387.877 590.345L387.377 590.633L387.877 591.5ZM508.207 660.972H509.207V660.395L508.707 660.106L508.207 660.972ZM267.547 660.972L267.047 660.106L266.547 660.395V660.972H267.547ZM267.547 799.917H266.547V800.494L267.047 800.783L267.547 799.917ZM387.877 869.389L387.377 870.255L387.877 870.544L388.377 870.255L387.877 869.389ZM508.207 799.917L508.707 800.783L509.207 800.494V799.917H508.207ZM387.877 617.151L388.377 616.285L387.877 615.996L387.377 616.285L387.877 617.151ZM485.992 673.798H486.992V673.22L486.492 672.932L485.992 673.798ZM289.762 673.798L289.262 672.932L288.762 673.22V673.798H289.762ZM289.762 787.091H288.762V787.669L289.262 787.957L289.762 787.091ZM387.877 843.738L387.377 844.604L387.877 844.893L388.377 844.604L387.877 843.738ZM485.992 787.091L486.492 787.957L486.992 787.669V787.091H485.992ZM387.377 592.366L507.707 661.838L508.707 660.106L388.377 590.633L387.377 592.366ZM268.047 661.838L388.377 592.366L387.377 590.633L267.047 660.106L268.047 661.838ZM268.547 799.917V660.972H266.547V799.917H268.547ZM388.377 868.523L268.047 799.051L267.047 800.783L387.377 870.255L388.377 868.523ZM507.707 799.051L387.377 868.523L388.377 870.255L508.707 800.783L507.707 799.051ZM507.207 660.972V799.917H509.207V660.972H507.207ZM387.377 618.017L485.492 674.664L486.492 672.932L388.377 616.285L387.377 618.017ZM290.262 674.664L388.377 618.017L387.377 616.285L289.262 672.932L290.262 674.664ZM290.762 787.091V673.798H288.762V787.091H290.762ZM388.377 842.872L290.262 786.225L289.262 787.957L387.377 844.604L388.377 842.872ZM485.492 786.225L387.377 842.872L388.377 844.604L486.492 787.957L485.492 786.225ZM484.992 673.798V787.091H486.992V673.798H484.992Z" fill="#C8C3C3" mask="url(#path-22-inside-10_20_285)"/>
<mask id="path-24-inside-11_20_285" fill="white">
<path fill-rule="evenodd" clip-rule="evenodd" d="M627.344 445.785L507.014 376.312L386.684 445.785V584.73L507.014 654.202L627.344 584.73V445.785ZM605.129 458.611L507.014 401.964L408.898 458.611V571.905L507.014 628.552L605.129 571.905V458.611Z"/>
</mask>
<path fill-rule="evenodd" clip-rule="evenodd" d="M627.344 445.785L507.014 376.312L386.684 445.785V584.73L507.014 654.202L627.344 584.73V445.785ZM605.129 458.611L507.014 401.964L408.898 458.611V571.905L507.014 628.552L605.129 571.905V458.611Z" fill="#130B0B"/>
<path d="M507.014 376.312L507.514 375.446L507.014 375.158L506.514 375.446L507.014 376.312ZM627.344 445.785H628.344V445.208L627.844 444.919L627.344 445.785ZM386.684 445.785L386.184 444.919L385.684 445.208V445.785H386.684ZM386.684 584.73H385.684V585.307L386.184 585.596L386.684 584.73ZM507.014 654.202L506.514 655.068L507.014 655.357L507.514 655.068L507.014 654.202ZM627.344 584.73L627.844 585.596L628.344 585.307V584.73H627.344ZM507.014 401.964L507.514 401.098L507.014 400.81L506.514 401.098L507.014 401.964ZM605.129 458.611H606.129V458.034L605.629 457.745L605.129 458.611ZM408.898 458.611L408.398 457.745L407.898 458.034V458.611H408.898ZM408.898 571.905H407.898V572.482L408.398 572.771L408.898 571.905ZM507.014 628.552L506.514 629.418L507.014 629.706L507.514 629.418L507.014 628.552ZM605.129 571.905L605.629 572.771L606.129 572.482V571.905H605.129ZM506.514 377.179L626.844 446.651L627.844 444.919L507.514 375.446L506.514 377.179ZM387.184 446.651L507.514 377.179L506.514 375.446L386.184 444.919L387.184 446.651ZM387.684 584.73V445.785H385.684V584.73H387.684ZM507.514 653.336L387.184 583.864L386.184 585.596L506.514 655.068L507.514 653.336ZM626.844 583.864L506.514 653.336L507.514 655.068L627.844 585.596L626.844 583.864ZM626.344 445.785V584.73H628.344V445.785H626.344ZM506.514 402.83L604.629 459.477L605.629 457.745L507.514 401.098L506.514 402.83ZM409.398 459.477L507.514 402.83L506.514 401.098L408.398 457.745L409.398 459.477ZM409.898 571.905V458.611H407.898V571.905H409.898ZM507.514 627.685L409.398 571.039L408.398 572.771L506.514 629.418L507.514 627.685ZM604.629 571.039L506.514 627.685L507.514 629.418L605.629 572.771L604.629 571.039ZM604.129 458.611V571.905H606.129V458.611H604.129Z" fill="#C8C3C3" mask="url(#path-24-inside-11_20_285)"/>
<mask id="path-26-inside-12_20_285" fill="white">
<path fill-rule="evenodd" clip-rule="evenodd" d="M873.027 444.362L752.697 374.889L632.367 444.362V583.307L752.697 652.779L873.027 583.307V444.362ZM850.812 457.187L752.697 400.54L654.582 457.187V570.48L752.697 627.127L850.812 570.48V457.187Z"/>
</mask>
<path fill-rule="evenodd" clip-rule="evenodd" d="M873.027 444.362L752.697 374.889L632.367 444.362V583.307L752.697 652.779L873.027 583.307V444.362ZM850.812 457.187L752.697 400.54L654.582 457.187V570.48L752.697 627.127L850.812 570.48V457.187Z" fill="#0C0C0C"/>
<path d="M752.697 374.889L753.197 374.023L752.697 373.734L752.197 374.023L752.697 374.889ZM873.027 444.362H874.027V443.784L873.527 443.496L873.027 444.362ZM632.367 444.362L631.867 443.496L631.367 443.784V444.362H632.367ZM632.367 583.307H631.367V583.884L631.867 584.173L632.367 583.307ZM752.697 652.779L752.197 653.645L752.697 653.934L753.197 653.645L752.697 652.779ZM873.027 583.307L873.527 584.173L874.027 583.884V583.307H873.027ZM752.697 400.54L753.197 399.674L752.697 399.385L752.197 399.674L752.697 400.54ZM850.812 457.187H851.812V456.609L851.312 456.321L850.812 457.187ZM654.582 457.187L654.082 456.321L653.582 456.609V457.187H654.582ZM654.582 570.48H653.582V571.058L654.082 571.346L654.582 570.48ZM752.697 627.127L752.197 627.993L752.697 628.282L753.197 627.993L752.697 627.127ZM850.812 570.48L851.312 571.346L851.812 571.058V570.48H850.812ZM752.197 375.755L872.527 445.228L873.527 443.496L753.197 374.023L752.197 375.755ZM632.867 445.228L753.197 375.755L752.197 374.023L631.867 443.496L632.867 445.228ZM633.367 583.307V444.362H631.367V583.307H633.367ZM753.197 651.913L632.867 582.441L631.867 584.173L752.197 653.645L753.197 651.913ZM872.527 582.441L752.197 651.913L753.197 653.645L873.527 584.173L872.527 582.441ZM872.027 444.362V583.307H874.027V444.362H872.027ZM752.197 401.406L850.312 458.053L851.312 456.321L753.197 399.674L752.197 401.406ZM655.082 458.053L753.197 401.406L752.197 399.674L654.082 456.321L655.082 458.053ZM655.582 570.48V457.187H653.582V570.48H655.582ZM753.197 626.261L655.082 569.614L654.082 571.346L752.197 627.993L753.197 626.261ZM850.312 569.614L752.197 626.261L753.197 627.993L851.312 571.346L850.312 569.614ZM849.812 457.187V570.48H851.812V457.187H849.812Z" fill="#C8C3C3" mask="url(#path-26-inside-12_20_285)"/>
<mask id="path-28-inside-13_20_285" fill="white">
<path fill-rule="evenodd" clip-rule="evenodd" d="M381.66 447.21L261.33 377.737L141 447.21V586.155L261.33 655.627L381.66 586.155V447.21ZM359.445 460.035L261.33 403.389L163.215 460.035V573.329L261.33 629.976L359.445 573.329V460.035Z"/>
</mask>
<path fill-rule="evenodd" clip-rule="evenodd" d="M381.66 447.21L261.33 377.737L141 447.21V586.155L261.33 655.627L381.66 586.155V447.21ZM359.445 460.035L261.33 403.389L163.215 460.035V573.329L261.33 629.976L359.445 573.329V460.035Z" fill="#0C0C0C"/>
<path d="M261.33 377.737L261.83 376.871L261.33 376.583L260.83 376.871L261.33 377.737ZM381.66 447.21H382.66V446.632L382.16 446.344L381.66 447.21ZM141 447.21L140.5 446.344L140 446.632V447.21H141ZM141 586.155H140V586.732L140.5 587.021L141 586.155ZM261.33 655.627L260.83 656.493L261.33 656.782L261.83 656.493L261.33 655.627ZM381.66 586.155L382.16 587.021L382.66 586.732V586.155H381.66ZM261.33 403.389L261.83 402.523L261.33 402.234L260.83 402.523L261.33 403.389ZM359.445 460.035H360.445V459.458L359.945 459.169L359.445 460.035ZM163.215 460.035L162.715 459.169L162.215 459.458V460.035H163.215ZM163.215 573.329H162.215V573.906L162.715 574.195L163.215 573.329ZM261.33 629.976L260.83 630.842L261.33 631.13L261.83 630.842L261.33 629.976ZM359.445 573.329L359.945 574.195L360.445 573.906V573.329H359.445ZM260.83 378.603L381.16 448.076L382.16 446.344L261.83 376.871L260.83 378.603ZM141.5 448.076L261.83 378.603L260.83 376.871L140.5 446.344L141.5 448.076ZM142 586.155V447.21H140V586.155H142ZM261.83 654.761L141.5 585.289L140.5 587.021L260.83 656.493L261.83 654.761ZM381.16 585.289L260.83 654.761L261.83 656.493L382.16 587.021L381.16 585.289ZM380.66 447.21V586.155H382.66V447.21H380.66ZM260.83 404.255L358.945 460.902L359.945 459.169L261.83 402.523L260.83 404.255ZM163.715 460.902L261.83 404.255L260.83 402.523L162.715 459.169L163.715 460.902ZM164.215 573.329V460.035H162.215V573.329H164.215ZM261.83 629.11L163.715 572.463L162.715 574.195L260.83 630.842L261.83 629.11ZM358.945 572.463L260.83 629.11L261.83 630.842L359.945 574.195L358.945 572.463ZM358.445 460.035V573.329H360.445V460.035H358.445Z" fill="#C8C3C3" mask="url(#path-28-inside-13_20_285)"/>
<mask id="path-30-inside-14_20_285" fill="white">
<path fill-rule="evenodd" clip-rule="evenodd" d="M750.328 660.972L629.998 591.5L509.668 660.972V799.917L629.998 869.389L750.328 799.917V660.972ZM728.113 673.798L629.998 617.151L531.883 673.798V787.091L629.998 843.738L728.113 787.091V673.798Z"/>
</mask>
<path fill-rule="evenodd" clip-rule="evenodd" d="M750.328 660.972L629.998 591.5L509.668 660.972V799.917L629.998 869.389L750.328 799.917V660.972ZM728.113 673.798L629.998 617.151L531.883 673.798V787.091L629.998 843.738L728.113 787.091V673.798Z" fill="#1A1918"/>
<path d="M629.998 591.5L630.498 590.633L629.998 590.345L629.498 590.633L629.998 591.5ZM750.328 660.972H751.328V660.395L750.828 660.106L750.328 660.972ZM509.668 660.972L509.168 660.106L508.668 660.395V660.972H509.668ZM509.668 799.917H508.668V800.494L509.168 800.783L509.668 799.917ZM629.998 869.389L629.498 870.255L629.998 870.544L630.498 870.255L629.998 869.389ZM750.328 799.917L750.828 800.783L751.328 800.494V799.917H750.328ZM629.998 617.151L630.498 616.285L629.998 615.996L629.498 616.285L629.998 617.151ZM728.113 673.798H729.113V673.22L728.613 672.932L728.113 673.798ZM531.883 673.798L531.383 672.932L530.883 673.22V673.798H531.883ZM531.883 787.091H530.883V787.669L531.383 787.957L531.883 787.091ZM629.998 843.738L629.498 844.604L629.998 844.893L630.498 844.604L629.998 843.738ZM728.113 787.091L728.613 787.957L729.113 787.669V787.091H728.113ZM629.498 592.366L749.828 661.838L750.828 660.106L630.498 590.633L629.498 592.366ZM510.168 661.838L630.498 592.366L629.498 590.633L509.168 660.106L510.168 661.838ZM510.668 799.917V660.972H508.668V799.917H510.668ZM630.498 868.523L510.168 799.051L509.168 800.783L629.498 870.255L630.498 868.523ZM749.828 799.051L629.498 868.523L630.498 870.255L750.828 800.783L749.828 799.051ZM749.328 660.972V799.917H751.328V660.972H749.328ZM629.498 618.017L727.613 674.664L728.613 672.932L630.498 616.285L629.498 618.017ZM532.383 674.664L630.498 618.017L629.498 616.285L531.383 672.932L532.383 674.664ZM532.883 787.091V673.798H530.883V787.091H532.883ZM630.498 842.872L532.383 786.225L531.383 787.957L629.498 844.604L630.498 842.872ZM727.613 786.225L629.498 842.872L630.498 844.604L728.613 787.957L727.613 786.225ZM727.113 673.798V787.091H729.113V673.798H727.113Z" fill="#C8C3C3" mask="url(#path-30-inside-14_20_285)"/>
<mask id="path-32-outside-15_20_285" maskUnits="userSpaceOnUse" x="341.933" y="664.02" width="77" height="132" fill="black">
<rect fill="white" x="341.933" y="664.02" width="77" height="132"/>
<path d="M364.362 665.877H375.076V676.591H364.362V665.877ZM353.648 665.877H364.362V676.591H353.648V665.877ZM353.648 676.591H364.362V687.305H353.648V676.591ZM364.362 676.591H375.076V687.305H364.362V676.591ZM375.076 676.591H385.791V687.305H375.076V676.591ZM375.076 665.877H385.791V676.591H375.076V665.877ZM385.791 665.877H396.505V676.591H385.791V665.877ZM396.505 665.877H407.219V676.591H396.505V665.877ZM396.505 676.591H407.219V687.305H396.505V676.591ZM385.791 676.591H396.505V687.305H385.791V676.591ZM385.791 687.305H396.505V698.02H385.791V687.305ZM396.505 687.305H407.219V698.02H396.505V687.305ZM407.219 676.591H417.933V687.305H407.219V676.591ZM407.219 687.305H417.933V698.02H407.219V687.305ZM407.219 698.02H417.933V708.734H407.219V698.02ZM407.219 708.734H417.933V719.448H407.219V708.734ZM407.219 719.448H417.933V730.162H407.219V719.448ZM407.219 730.162H417.933V740.877H407.219V730.162ZM407.219 740.877H417.933V751.591H407.219V740.877ZM407.219 751.591H417.933V762.305H407.219V751.591ZM396.505 751.591H407.219V762.305H396.505V751.591ZM396.505 740.877H407.219V751.591H396.505V740.877ZM396.505 730.162H407.219V740.877H396.505V730.162ZM396.505 719.448H407.219V730.162H396.505V719.448ZM396.505 708.734H407.219V719.448H396.505V708.734ZM396.505 698.02H407.219V708.734H396.505V698.02ZM385.791 740.877H396.505V751.591H385.791V740.877ZM385.791 751.591H396.505V762.305H385.791V751.591ZM385.791 762.305H396.505V773.02H385.791V762.305ZM375.076 762.305H385.791V773.02H375.076V762.305ZM375.076 751.591H385.791V762.305H375.076V751.591ZM364.362 762.305H375.076V773.02H364.362V762.305ZM353.648 762.305H364.362V773.02H353.648V762.305ZM353.648 751.591H364.362V762.305H353.648V751.591ZM364.362 751.591H375.076V762.305H364.362V751.591ZM364.362 740.877H375.076V751.591H364.362V740.877ZM353.648 740.877H364.362V751.591H353.648V740.877ZM342.933 751.591H353.648V762.305H342.933V751.591ZM342.933 740.877H353.648V751.591H342.933V740.877ZM342.933 730.162H353.648V740.877H342.933V730.162ZM342.933 719.448H353.648V730.162H342.933V719.448ZM342.933 708.734H353.648V719.448H342.933V708.734ZM342.933 698.02H353.648V708.734H342.933V698.02ZM342.933 687.305H353.648V698.02H342.933V687.305ZM353.648 687.305H364.362V698.02H353.648V687.305ZM342.933 676.591H353.648V687.305H342.933V676.591ZM364.362 687.305H375.076V698.02H364.362V687.305ZM353.648 698.02H364.362V708.734H353.648V698.02ZM353.648 708.734H364.362V719.448H353.648V708.734ZM353.648 719.448H364.362V730.162H353.648V719.448ZM353.648 730.162H364.362V740.877H353.648V730.162ZM375.076 773.02H385.791V783.734H375.076V773.02ZM385.791 773.02H396.505V783.734H385.791V773.02ZM396.505 773.02H407.219V783.734H396.505V773.02ZM385.791 783.734H396.505V794.448H385.791V783.734ZM396.505 783.734H407.219V794.448H396.505V783.734ZM407.219 783.734H417.933V794.448H407.219V783.734ZM407.219 773.02H417.933V783.734H407.219V773.02Z"/>
</mask>
<path d="M364.362 665.877H375.076V676.591H364.362V665.877ZM353.648 665.877H364.362V676.591H353.648V665.877ZM353.648 676.591H364.362V687.305H353.648V676.591ZM364.362 676.591H375.076V687.305H364.362V676.591ZM375.076 676.591H385.791V687.305H375.076V676.591ZM375.076 665.877H385.791V676.591H375.076V665.877ZM385.791 665.877H396.505V676.591H385.791V665.877ZM396.505 665.877H407.219V676.591H396.505V665.877ZM396.505 676.591H407.219V687.305H396.505V676.591ZM385.791 676.591H396.505V687.305H385.791V676.591ZM385.791 687.305H396.505V698.02H385.791V687.305ZM396.505 687.305H407.219V698.02H396.505V687.305ZM407.219 676.591H417.933V687.305H407.219V676.591ZM407.219 687.305H417.933V698.02H407.219V687.305ZM407.219 698.02H417.933V708.734H407.219V698.02ZM407.219 708.734H417.933V719.448H407.219V708.734ZM407.219 719.448H417.933V730.162H407.219V719.448ZM407.219 730.162H417.933V740.877H407.219V730.162ZM407.219 740.877H417.933V751.591H407.219V740.877ZM407.219 751.591H417.933V762.305H407.219V751.591ZM396.505 751.591H407.219V762.305H396.505V751.591ZM396.505 740.877H407.219V751.591H396.505V740.877ZM396.505 730.162H407.219V740.877H396.505V730.162ZM396.505 719.448H407.219V730.162H396.505V719.448ZM396.505 708.734H407.219V719.448H396.505V708.734ZM396.505 698.02H407.219V708.734H396.505V698.02ZM385.791 740.877H396.505V751.591H385.791V740.877ZM385.791 751.591H396.505V762.305H385.791V751.591ZM385.791 762.305H396.505V773.02H385.791V762.305ZM375.076 762.305H385.791V773.02H375.076V762.305ZM375.076 751.591H385.791V762.305H375.076V751.591ZM364.362 762.305H375.076V773.02H364.362V762.305ZM353.648 762.305H364.362V773.02H353.648V762.305ZM353.648 751.591H364.362V762.305H353.648V751.591ZM364.362 751.591H375.076V762.305H364.362V751.591ZM364.362 740.877H375.076V751.591H364.362V740.877ZM353.648 740.877H364.362V751.591H353.648V740.877ZM342.933 751.591H353.648V762.305H342.933V751.591ZM342.933 740.877H353.648V751.591H342.933V740.877ZM342.933 730.162H353.648V740.877H342.933V730.162ZM342.933 719.448H353.648V730.162H342.933V719.448ZM342.933 708.734H353.648V719.448H342.933V708.734ZM342.933 698.02H353.648V708.734H342.933V698.02ZM342.933 687.305H353.648V698.02H342.933V687.305ZM353.648 687.305H364.362V698.02H353.648V687.305ZM342.933 676.591H353.648V687.305H342.933V676.591ZM364.362 687.305H375.076V698.02H364.362V687.305ZM353.648 698.02H364.362V708.734H353.648V698.02ZM353.648 708.734H364.362V719.448H353.648V708.734ZM353.648 719.448H364.362V730.162H353.648V719.448ZM353.648 730.162H364.362V740.877H353.648V730.162ZM375.076 773.02H385.791V783.734H375.076V773.02ZM385.791 773.02H396.505V783.734H385.791V773.02ZM396.505 773.02H407.219V783.734H396.505V773.02ZM385.791 783.734H396.505V794.448H385.791V783.734ZM396.505 783.734H407.219V794.448H396.505V783.734ZM407.219 783.734H417.933V794.448H407.219V783.734ZM407.219 773.02H417.933V783.734H407.219V773.02Z" fill="#CCB928"/>
<path d="M364.362 665.877V664.877H363.362V665.877H364.362ZM375.076 665.877H376.076V664.877H375.076V665.877ZM375.076 676.591V677.591H376.076V676.591H375.076ZM364.362 676.591H363.362V677.591H364.362V676.591ZM353.648 665.877V664.877H352.648V665.877H353.648ZM364.362 665.877H365.362V664.877H364.362V665.877ZM364.362 676.591V677.591H365.362V676.591H364.362ZM353.648 676.591H352.648V677.591H353.648V676.591ZM353.648 676.591V675.591H352.648V676.591H353.648ZM364.362 676.591H365.362V675.591H364.362V676.591ZM364.362 687.305V688.305H365.362V687.305H364.362ZM353.648 687.305H352.648V688.305H353.648V687.305ZM364.362 676.591V675.591H363.362V676.591H364.362ZM375.076 676.591H376.076V675.591H375.076V676.591ZM375.076 687.305V688.305H376.076V687.305H375.076ZM364.362 687.305H363.362V688.305H364.362V687.305ZM375.076 676.591V675.591H374.076V676.591H375.076ZM385.791 676.591H386.791V675.591H385.791V676.591ZM385.791 687.305V688.305H386.791V687.305H385.791ZM375.076 687.305H374.076V688.305H375.076V687.305ZM375.076 665.877V664.877H374.076V665.877H375.076ZM385.791 665.877H386.791V664.877H385.791V665.877ZM385.791 676.591V677.591H386.791V676.591H385.791ZM375.076 676.591H374.076V677.591H375.076V676.591ZM385.791 665.877V664.877H384.791V665.877H385.791ZM396.505 665.877H397.505V664.877H396.505V665.877ZM396.505 676.591V677.591H397.505V676.591H396.505ZM385.791 676.591H384.791V677.591H385.791V676.591ZM396.505 665.877V664.877H395.505V665.877H396.505ZM407.219 665.877H408.219V664.877H407.219V665.877ZM407.219 676.591V677.591H408.219V676.591H407.219ZM396.505 676.591H395.505V677.591H396.505V676.591ZM396.505 676.591V675.591H395.505V676.591H396.505ZM407.219 676.591H408.219V675.591H407.219V676.591ZM407.219 687.305V688.305H408.219V687.305H407.219ZM396.505 687.305H395.505V688.305H396.505V687.305ZM385.791 676.591V675.591H384.791V676.591H385.791ZM396.505 676.591H397.505V675.591H396.505V676.591ZM396.505 687.305V688.305H397.505V687.305H396.505ZM385.791 687.305H384.791V688.305H385.791V687.305ZM385.791 687.305V686.305H384.791V687.305H385.791ZM396.505 687.305H397.505V686.305H396.505V687.305ZM396.505 698.02V699.02H397.505V698.02H396.505ZM385.791 698.02H384.791V699.02H385.791V698.02ZM396.505 687.305V686.305H395.505V687.305H396.505ZM407.219 687.305H408.219V686.305H407.219V687.305ZM407.219 698.02V699.02H408.219V698.02H407.219ZM396.505 698.02H395.505V699.02H396.505V698.02ZM407.219 676.591V675.591H406.219V676.591H407.219ZM417.933 676.591H418.933V675.591H417.933V676.591ZM417.933 687.305V688.305H418.933V687.305H417.933ZM407.219 687.305H406.219V688.305H407.219V687.305ZM407.219 687.305V686.305H406.219V687.305H407.219ZM417.933 687.305H418.933V686.305H417.933V687.305ZM417.933 698.02V699.02H418.933V698.02H417.933ZM407.219 698.02H406.219V699.02H407.219V698.02ZM407.219 698.02V697.02H406.219V698.02H407.219ZM417.933 698.02H418.933V697.02H417.933V698.02ZM417.933 708.734V709.734H418.933V708.734H417.933ZM407.219 708.734H406.219V709.734H407.219V708.734ZM407.219 708.734V707.734H406.219V708.734H407.219ZM417.933 708.734H418.933V707.734H417.933V708.734ZM417.933 719.448V720.448H418.933V719.448H417.933ZM407.219 719.448H406.219V720.448H407.219V719.448ZM407.219 719.448V718.448H406.219V719.448H407.219ZM417.933 719.448H418.933V718.448H417.933V719.448ZM417.933 730.162V731.162H418.933V730.162H417.933ZM407.219 730.162H406.219V731.162H407.219V730.162ZM407.219 730.162V729.162H406.219V730.162H407.219ZM417.933 730.162H418.933V729.162H417.933V730.162ZM417.933 740.877V741.877H418.933V740.877H417.933ZM407.219 740.877H406.219V741.877H407.219V740.877ZM407.219 740.877V739.877H406.219V740.877H407.219ZM417.933 740.877H418.933V739.877H417.933V740.877ZM417.933 751.591V752.591H418.933V751.591H417.933ZM407.219 751.591H406.219V752.591H407.219V751.591ZM407.219 751.591V750.591H406.219V751.591H407.219ZM417.933 751.591H418.933V750.591H417.933V751.591ZM417.933 762.305V763.305H418.933V762.305H417.933ZM407.219 762.305H406.219V763.305H407.219V762.305ZM396.505 751.591V750.591H395.505V751.591H396.505ZM407.219 751.591H408.219V750.591H407.219V751.591ZM407.219 762.305V763.305H408.219V762.305H407.219ZM396.505 762.305H395.505V763.305H396.505V762.305ZM396.505 740.877V739.877H395.505V740.877H396.505ZM407.219 740.877H408.219V739.877H407.219V740.877ZM407.219 751.591V752.591H408.219V751.591H407.219ZM396.505 751.591H395.505V752.591H396.505V751.591ZM396.505 730.162V729.162H395.505V730.162H396.505ZM407.219 730.162H408.219V729.162H407.219V730.162ZM407.219 740.877V741.877H408.219V740.877H407.219ZM396.505 740.877H395.505V741.877H396.505V740.877ZM396.505 719.448V718.448H395.505V719.448H396.505ZM407.219 719.448H408.219V718.448H407.219V719.448ZM407.219 730.162V731.162H408.219V730.162H407.219ZM396.505 730.162H395.505V731.162H396.505V730.162ZM396.505 708.734V707.734H395.505V708.734H396.505ZM407.219 708.734H408.219V707.734H407.219V708.734ZM407.219 719.448V720.448H408.219V719.448H407.219ZM396.505 719.448H395.505V720.448H396.505V719.448ZM396.505 698.02V697.02H395.505V698.02H396.505ZM407.219 698.02H408.219V697.02H407.219V698.02ZM407.219 708.734V709.734H408.219V708.734H407.219ZM396.505 708.734H395.505V709.734H396.505V708.734ZM385.791 740.877V739.877H384.791V740.877H385.791ZM396.505 740.877H397.505V739.877H396.505V740.877ZM396.505 751.591V752.591H397.505V751.591H396.505ZM385.791 751.591H384.791V752.591H385.791V751.591ZM385.791 751.591V750.591H384.791V751.591H385.791ZM396.505 751.591H397.505V750.591H396.505V751.591ZM396.505 762.305V763.305H397.505V762.305H396.505ZM385.791 762.305H384.791V763.305H385.791V762.305ZM385.791 762.305V761.305H384.791V762.305H385.791ZM396.505 762.305H397.505V761.305H396.505V762.305ZM396.505 773.02V774.02H397.505V773.02H396.505ZM385.791 773.02H384.791V774.02H385.791V773.02ZM375.076 762.305V761.305H374.076V762.305H375.076ZM385.791 762.305H386.791V761.305H385.791V762.305ZM385.791 773.02V774.02H386.791V773.02H385.791ZM375.076 773.02H374.076V774.02H375.076V773.02ZM375.076 751.591V750.591H374.076V751.591H375.076ZM385.791 751.591H386.791V750.591H385.791V751.591ZM385.791 762.305V763.305H386.791V762.305H385.791ZM375.076 762.305H374.076V763.305H375.076V762.305ZM364.362 762.305V761.305H363.362V762.305H364.362ZM375.076 762.305H376.076V761.305H375.076V762.305ZM375.076 773.02V774.02H376.076V773.02H375.076ZM364.362 773.02H363.362V774.02H364.362V773.02ZM353.648 762.305V761.305H352.648V762.305H353.648ZM364.362 762.305H365.362V761.305H364.362V762.305ZM364.362 773.02V774.02H365.362V773.02H364.362ZM353.648 773.02H352.648V774.02H353.648V773.02ZM353.648 751.591V750.591H352.648V751.591H353.648ZM364.362 751.591H365.362V750.591H364.362V751.591ZM364.362 762.305V763.305H365.362V762.305H364.362ZM353.648 762.305H352.648V763.305H353.648V762.305ZM364.362 751.591V750.591H363.362V751.591H364.362ZM375.076 751.591H376.076V750.591H375.076V751.591ZM375.076 762.305V763.305H376.076V762.305H375.076ZM364.362 762.305H363.362V763.305H364.362V762.305ZM364.362 740.877V739.877H363.362V740.877H364.362ZM375.076 740.877H376.076V739.877H375.076V740.877ZM375.076 751.591V752.591H376.076V751.591H375.076ZM364.362 751.591H363.362V752.591H364.362V751.591ZM353.648 740.877V739.877H352.648V740.877H353.648ZM364.362 740.877H365.362V739.877H364.362V740.877ZM364.362 751.591V752.591H365.362V751.591H364.362ZM353.648 751.591H352.648V752.591H353.648V751.591ZM342.933 751.591V750.591H341.933V751.591H342.933ZM353.648 751.591H354.648V750.591H353.648V751.591ZM353.648 762.305V763.305H354.648V762.305H353.648ZM342.933 762.305H341.933V763.305H342.933V762.305ZM342.933 740.877V739.877H341.933V740.877H342.933ZM353.648 740.877H354.648V739.877H353.648V740.877ZM353.648 751.591V752.591H354.648V751.591H353.648ZM342.933 751.591H341.933V752.591H342.933V751.591ZM342.933 730.162V729.162H341.933V730.162H342.933ZM353.648 730.162H354.648V729.162H353.648V730.162ZM353.648 740.877V741.877H354.648V740.877H353.648ZM342.933 740.877H341.933V741.877H342.933V740.877ZM342.933 719.448V718.448H341.933V719.448H342.933ZM353.648 719.448H354.648V718.448H353.648V719.448ZM353.648 730.162V731.162H354.648V730.162H353.648ZM342.933 730.162H341.933V731.162H342.933V730.162ZM342.933 708.734V707.734H341.933V708.734H342.933ZM353.648 708.734H354.648V707.734H353.648V708.734ZM353.648 719.448V720.448H354.648V719.448H353.648ZM342.933 719.448H341.933V720.448H342.933V719.448ZM342.933 698.02V697.02H341.933V698.02H342.933ZM353.648 698.02H354.648V697.02H353.648V698.02ZM353.648 708.734V709.734H354.648V708.734H353.648ZM342.933 708.734H341.933V709.734H342.933V708.734ZM342.933 687.305V686.305H341.933V687.305H342.933ZM353.648 687.305H354.648V686.305H353.648V687.305ZM353.648 698.02V699.02H354.648V698.02H353.648ZM342.933 698.02H341.933V699.02H342.933V698.02ZM353.648 687.305V686.305H352.648V687.305H353.648ZM364.362 687.305H365.362V686.305H364.362V687.305ZM364.362 698.02V699.02H365.362V698.02H364.362ZM353.648 698.02H352.648V699.02H353.648V698.02ZM342.933 676.591V675.591H341.933V676.591H342.933ZM353.648 676.591H354.648V675.591H353.648V676.591ZM353.648 687.305V688.305H354.648V687.305H353.648ZM342.933 687.305H341.933V688.305H342.933V687.305ZM364.362 687.305V686.305H363.362V687.305H364.362ZM375.076 687.305H376.076V686.305H375.076V687.305ZM375.076 698.02V699.02H376.076V698.02H375.076ZM364.362 698.02H363.362V699.02H364.362V698.02ZM353.648 698.02V697.02H352.648V698.02H353.648ZM364.362 698.02H365.362V697.02H364.362V698.02ZM364.362 708.734V709.734H365.362V708.734H364.362ZM353.648 708.734H352.648V709.734H353.648V708.734ZM353.648 708.734V707.734H352.648V708.734H353.648ZM364.362 708.734H365.362V707.734H364.362V708.734ZM364.362 719.448V720.448H365.362V719.448H364.362ZM353.648 719.448H352.648V720.448H353.648V719.448ZM353.648 719.448V718.448H352.648V719.448H353.648ZM364.362 719.448H365.362V718.448H364.362V719.448ZM364.362 730.162V731.162H365.362V730.162H364.362ZM353.648 730.162H352.648V731.162H353.648V730.162ZM353.648 730.162V729.162H352.648V730.162H353.648ZM364.362 730.162H365.362V729.162H364.362V730.162ZM364.362 740.877V741.877H365.362V740.877H364.362ZM353.648 740.877H352.648V741.877H353.648V740.877ZM375.076 773.02V772.02H374.076V773.02H375.076ZM385.791 773.02H386.791V772.02H385.791V773.02ZM385.791 783.734V784.734H386.791V783.734H385.791ZM375.076 783.734H374.076V784.734H375.076V783.734ZM385.791 773.02V772.02H384.791V773.02H385.791ZM396.505 773.02H397.505V772.02H396.505V773.02ZM396.505 783.734V784.734H397.505V783.734H396.505ZM385.791 783.734H384.791V784.734H385.791V783.734ZM396.505 773.02V772.02H395.505V773.02H396.505ZM407.219 773.02H408.219V772.02H407.219V773.02ZM407.219 783.734V784.734H408.219V783.734H407.219ZM396.505 783.734H395.505V784.734H396.505V783.734ZM385.791 783.734V782.734H384.791V783.734H385.791ZM396.505 783.734H397.505V782.734H396.505V783.734ZM396.505 794.448V795.448H397.505V794.448H396.505ZM385.791 794.448H384.791V795.448H385.791V794.448ZM396.505 783.734V782.734H395.505V783.734H396.505ZM407.219 783.734H408.219V782.734H407.219V783.734ZM407.219 794.448V795.448H408.219V794.448H407.219ZM396.505 794.448H395.505V795.448H396.505V794.448ZM407.219 783.734V782.734H406.219V783.734H407.219ZM417.933 783.734H418.933V782.734H417.933V783.734ZM417.933 794.448V795.448H418.933V794.448H417.933ZM407.219 794.448H406.219V795.448H407.219V794.448ZM407.219 773.02V772.02H406.219V773.02H407.219ZM417.933 773.02H418.933V772.02H417.933V773.02ZM417.933 783.734V784.734H418.933V783.734H417.933ZM407.219 783.734H406.219V784.734H407.219V783.734ZM364.362 666.877H375.076V664.877H364.362V666.877ZM374.076 665.877V676.591H376.076V665.877H374.076ZM375.076 675.591H364.362V677.591H375.076V675.591ZM365.362 676.591V665.877H363.362V676.591H365.362ZM353.648 666.877H364.362V664.877H353.648V666.877ZM363.362 665.877V676.591H365.362V665.877H363.362ZM364.362 675.591H353.648V677.591H364.362V675.591ZM354.648 676.591V665.877H352.648V676.591H354.648ZM353.648 677.591H364.362V675.591H353.648V677.591ZM363.362 676.591V687.305H365.362V676.591H363.362ZM364.362 686.305H353.648V688.305H364.362V686.305ZM354.648 687.305V676.591H352.648V687.305H354.648ZM364.362 677.591H375.076V675.591H364.362V677.591ZM374.076 676.591V687.305H376.076V676.591H374.076ZM375.076 686.305H364.362V688.305H375.076V686.305ZM365.362 687.305V676.591H363.362V687.305H365.362ZM375.076 677.591H385.791V675.591H375.076V677.591ZM384.791 676.591V687.305H386.791V676.591H384.791ZM385.791 686.305H375.076V688.305H385.791V686.305ZM376.076 687.305V676.591H374.076V687.305H376.076ZM375.076 666.877H385.791V664.877H375.076V666.877ZM384.791 665.877V676.591H386.791V665.877H384.791ZM385.791 675.591H375.076V677.591H385.791V675.591ZM376.076 676.591V665.877H374.076V676.591H376.076ZM385.791 666.877H396.505V664.877H385.791V666.877ZM395.505 665.877V676.591H397.505V665.877H395.505ZM396.505 675.591H385.791V677.591H396.505V675.591ZM386.791 676.591V665.877H384.791V676.591H386.791ZM396.505 666.877H407.219V664.877H396.505V666.877ZM406.219 665.877V676.591H408.219V665.877H406.219ZM407.219 675.591H396.505V677.591H407.219V675.591ZM397.505 676.591V665.877H395.505V676.591H397.505ZM396.505 677.591H407.219V675.591H396.505V677.591ZM406.219 676.591V687.305H408.219V676.591H406.219ZM407.219 686.305H396.505V688.305H407.219V686.305ZM397.505 687.305V676.591H395.505V687.305H397.505ZM385.791 677.591H396.505V675.591H385.791V677.591ZM395.505 676.591V687.305H397.505V676.591H395.505ZM396.505 686.305H385.791V688.305H396.505V686.305ZM386.791 687.305V676.591H384.791V687.305H386.791ZM385.791 688.305H396.505V686.305H385.791V688.305ZM395.505 687.305V698.02H397.505V687.305H395.505ZM396.505 697.02H385.791V699.02H396.505V697.02ZM386.791 698.02V687.305H384.791V698.02H386.791ZM396.505 688.305H407.219V686.305H396.505V688.305ZM406.219 687.305V698.02H408.219V687.305H406.219ZM407.219 697.02H396.505V699.02H407.219V697.02ZM397.505 698.02V687.305H395.505V698.02H397.505ZM407.219 677.591H417.933V675.591H407.219V677.591ZM416.933 676.591V687.305H418.933V676.591H416.933ZM417.933 686.305H407.219V688.305H417.933V686.305ZM408.219 687.305V676.591H406.219V687.305H408.219ZM407.219 688.305H417.933V686.305H407.219V688.305ZM416.933 687.305V698.02H418.933V687.305H416.933ZM417.933 697.02H407.219V699.02H417.933V697.02ZM408.219 698.02V687.305H406.219V698.02H408.219ZM407.219 699.02H417.933V697.02H407.219V699.02ZM416.933 698.02V708.734H418.933V698.02H416.933ZM417.933 707.734H407.219V709.734H417.933V707.734ZM408.219 708.734V698.02H406.219V708.734H408.219ZM407.219 709.734H417.933V707.734H407.219V709.734ZM416.933 708.734V719.448H418.933V708.734H416.933ZM417.933 718.448H407.219V720.448H417.933V718.448ZM408.219 719.448V708.734H406.219V719.448H408.219ZM407.219 720.448H417.933V718.448H407.219V720.448ZM416.933 719.448V730.162H418.933V719.448H416.933ZM417.933 729.162H407.219V731.162H417.933V729.162ZM408.219 730.162V719.448H406.219V730.162H408.219ZM407.219 731.162H417.933V729.162H407.219V731.162ZM416.933 730.162V740.877H418.933V730.162H416.933ZM417.933 739.877H407.219V741.877H417.933V739.877ZM408.219 740.877V730.162H406.219V740.877H408.219ZM407.219 741.877H417.933V739.877H407.219V741.877ZM416.933 740.877V751.591H418.933V740.877H416.933ZM417.933 750.591H407.219V752.591H417.933V750.591ZM408.219 751.591V740.877H406.219V751.591H408.219ZM407.219 752.591H417.933V750.591H407.219V752.591ZM416.933 751.591V762.305H418.933V751.591H416.933ZM417.933 761.305H407.219V763.305H417.933V761.305ZM408.219 762.305V751.591H406.219V762.305H408.219ZM396.505 752.591H407.219V750.591H396.505V752.591ZM406.219 751.591V762.305H408.219V751.591H406.219ZM407.219 761.305H396.505V763.305H407.219V761.305ZM397.505 762.305V751.591H395.505V762.305H397.505ZM396.505 741.877H407.219V739.877H396.505V741.877ZM406.219 740.877V751.591H408.219V740.877H406.219ZM407.219 750.591H396.505V752.591H407.219V750.591ZM397.505 751.591V740.877H395.505V751.591H397.505ZM396.505 731.162H407.219V729.162H396.505V731.162ZM406.219 730.162V740.877H408.219V730.162H406.219ZM407.219 739.877H396.505V741.877H407.219V739.877ZM397.505 740.877V730.162H395.505V740.877H397.505ZM396.505 720.448H407.219V718.448H396.505V720.448ZM406.219 719.448V730.162H408.219V719.448H406.219ZM407.219 729.162H396.505V731.162H407.219V729.162ZM397.505 730.162V719.448H395.505V730.162H397.505ZM396.505 709.734H407.219V707.734H396.505V709.734ZM406.219 708.734V719.448H408.219V708.734H406.219ZM407.219 718.448H396.505V720.448H407.219V718.448ZM397.505 719.448V708.734H395.505V719.448H397.505ZM396.505 699.02H407.219V697.02H396.505V699.02ZM406.219 698.02V708.734H408.219V698.02H406.219ZM407.219 707.734H396.505V709.734H407.219V707.734ZM397.505 708.734V698.02H395.505V708.734H397.505ZM385.791 741.877H396.505V739.877H385.791V741.877ZM395.505 740.877V751.591H397.505V740.877H395.505ZM396.505 750.591H385.791V752.591H396.505V750.591ZM386.791 751.591V740.877H384.791V751.591H386.791ZM385.791 752.591H396.505V750.591H385.791V752.591ZM395.505 751.591V762.305H397.505V751.591H395.505ZM396.505 761.305H385.791V763.305H396.505V761.305ZM386.791 762.305V751.591H384.791V762.305H386.791ZM385.791 763.305H396.505V761.305H385.791V763.305ZM395.505 762.305V773.02H397.505V762.305H395.505ZM396.505 772.02H385.791V774.02H396.505V772.02ZM386.791 773.02V762.305H384.791V773.02H386.791ZM375.076 763.305H385.791V761.305H375.076V763.305ZM384.791 762.305V773.02H386.791V762.305H384.791ZM385.791 772.02H375.076V774.02H385.791V772.02ZM376.076 773.02V762.305H374.076V773.02H376.076ZM375.076 752.591H385.791V750.591H375.076V752.591ZM384.791 751.591V762.305H386.791V751.591H384.791ZM385.791 761.305H375.076V763.305H385.791V761.305ZM376.076 762.305V751.591H374.076V762.305H376.076ZM364.362 763.305H375.076V761.305H364.362V763.305ZM374.076 762.305V773.02H376.076V762.305H374.076ZM375.076 772.02H364.362V774.02H375.076V772.02ZM365.362 773.02V762.305H363.362V773.02H365.362ZM353.648 763.305H364.362V761.305H353.648V763.305ZM363.362 762.305V773.02H365.362V762.305H363.362ZM364.362 772.02H353.648V774.02H364.362V772.02ZM354.648 773.02V762.305H352.648V773.02H354.648ZM353.648 752.591H364.362V750.591H353.648V752.591ZM363.362 751.591V762.305H365.362V751.591H363.362ZM364.362 761.305H353.648V763.305H364.362V761.305ZM354.648 762.305V751.591H352.648V762.305H354.648ZM364.362 752.591H375.076V750.591H364.362V752.591ZM374.076 751.591V762.305H376.076V751.591H374.076ZM375.076 761.305H364.362V763.305H375.076V761.305ZM365.362 762.305V751.591H363.362V762.305H365.362ZM364.362 741.877H375.076V739.877H364.362V741.877ZM374.076 740.877V751.591H376.076V740.877H374.076ZM375.076 750.591H364.362V752.591H375.076V750.591ZM365.362 751.591V740.877H363.362V751.591H365.362ZM353.648 741.877H364.362V739.877H353.648V741.877ZM363.362 740.877V751.591H365.362V740.877H363.362ZM364.362 750.591H353.648V752.591H364.362V750.591ZM354.648 751.591V740.877H352.648V751.591H354.648ZM342.933 752.591H353.648V750.591H342.933V752.591ZM352.648 751.591V762.305H354.648V751.591H352.648ZM353.648 761.305H342.933V763.305H353.648V761.305ZM343.933 762.305V751.591H341.933V762.305H343.933ZM342.933 741.877H353.648V739.877H342.933V741.877ZM352.648 740.877V751.591H354.648V740.877H352.648ZM353.648 750.591H342.933V752.591H353.648V750.591ZM343.933 751.591V740.877H341.933V751.591H343.933ZM342.933 731.162H353.648V729.162H342.933V731.162ZM352.648 730.162V740.877H354.648V730.162H352.648ZM353.648 739.877H342.933V741.877H353.648V739.877ZM343.933 740.877V730.162H341.933V740.877H343.933ZM342.933 720.448H353.648V718.448H342.933V720.448ZM352.648 719.448V730.162H354.648V719.448H352.648ZM353.648 729.162H342.933V731.162H353.648V729.162ZM343.933 730.162V719.448H341.933V730.162H343.933ZM342.933 709.734H353.648V707.734H342.933V709.734ZM352.648 708.734V719.448H354.648V708.734H352.648ZM353.648 718.448H342.933V720.448H353.648V718.448ZM343.933 719.448V708.734H341.933V719.448H343.933ZM342.933 699.02H353.648V697.02H342.933V699.02ZM352.648 698.02V708.734H354.648V698.02H352.648ZM353.648 707.734H342.933V709.734H353.648V707.734ZM343.933 708.734V698.02H341.933V708.734H343.933ZM342.933 688.305H353.648V686.305H342.933V688.305ZM352.648 687.305V698.02H354.648V687.305H352.648ZM353.648 697.02H342.933V699.02H353.648V697.02ZM343.933 698.02V687.305H341.933V698.02H343.933ZM353.648 688.305H364.362V686.305H353.648V688.305ZM363.362 687.305V698.02H365.362V687.305H363.362ZM364.362 697.02H353.648V699.02H364.362V697.02ZM354.648 698.02V687.305H352.648V698.02H354.648ZM342.933 677.591H353.648V675.591H342.933V677.591ZM352.648 676.591V687.305H354.648V676.591H352.648ZM353.648 686.305H342.933V688.305H353.648V686.305ZM343.933 687.305V676.591H341.933V687.305H343.933ZM364.362 688.305H375.076V686.305H364.362V688.305ZM374.076 687.305V698.02H376.076V687.305H374.076ZM375.076 697.02H364.362V699.02H375.076V697.02ZM365.362 698.02V687.305H363.362V698.02H365.362ZM353.648 699.02H364.362V697.02H353.648V699.02ZM363.362 698.02V708.734H365.362V698.02H363.362ZM364.362 707.734H353.648V709.734H364.362V707.734ZM354.648 708.734V698.02H352.648V708.734H354.648ZM353.648 709.734H364.362V707.734H353.648V709.734ZM363.362 708.734V719.448H365.362V708.734H363.362ZM364.362 718.448H353.648V720.448H364.362V718.448ZM354.648 719.448V708.734H352.648V719.448H354.648ZM353.648 720.448H364.362V718.448H353.648V720.448ZM363.362 719.448V730.162H365.362V719.448H363.362ZM364.362 729.162H353.648V731.162H364.362V729.162ZM354.648 730.162V719.448H352.648V730.162H354.648ZM353.648 731.162H364.362V729.162H353.648V731.162ZM363.362 730.162V740.877H365.362V730.162H363.362ZM364.362 739.877H353.648V741.877H364.362V739.877ZM354.648 740.877V730.162H352.648V740.877H354.648ZM375.076 774.02H385.791V772.02H375.076V774.02ZM384.791 773.02V783.734H386.791V773.02H384.791ZM385.791 782.734H375.076V784.734H385.791V782.734ZM376.076 783.734V773.02H374.076V783.734H376.076ZM385.791 774.02H396.505V772.02H385.791V774.02ZM395.505 773.02V783.734H397.505V773.02H395.505ZM396.505 782.734H385.791V784.734H396.505V782.734ZM386.791 783.734V773.02H384.791V783.734H386.791ZM396.505 774.02H407.219V772.02H396.505V774.02ZM406.219 773.02V783.734H408.219V773.02H406.219ZM407.219 782.734H396.505V784.734H407.219V782.734ZM397.505 783.734V773.02H395.505V783.734H397.505ZM385.791 784.734H396.505V782.734H385.791V784.734ZM395.505 783.734V794.448H397.505V783.734H395.505ZM396.505 793.448H385.791V795.448H396.505V793.448ZM386.791 794.448V783.734H384.791V794.448H386.791ZM396.505 784.734H407.219V782.734H396.505V784.734ZM406.219 783.734V794.448H408.219V783.734H406.219ZM407.219 793.448H396.505V795.448H407.219V793.448ZM397.505 794.448V783.734H395.505V794.448H397.505ZM407.219 784.734H417.933V782.734H407.219V784.734ZM416.933 783.734V794.448H418.933V783.734H416.933ZM417.933 793.448H407.219V795.448H417.933V793.448ZM408.219 794.448V783.734H406.219V794.448H408.219ZM407.219 774.02H417.933V772.02H407.219V774.02ZM416.933 773.02V783.734H418.933V773.02H416.933ZM417.933 782.734H407.219V784.734H417.933V782.734ZM408.219 783.734V773.02H406.219V783.734H408.219Z" fill="#C8C3C3" mask="url(#path-32-outside-15_20_285)"/>
</g>
</svg>
